<svg width="122" height="82" viewBox="0 0 122 82" fill="none" xmlns="http://www.w3.org/2000/svg">
<path d="M72.9291 1.47363H71.5625V2.83692H72.9291V1.47363Z" fill="#51656A"/>
<path d="M101.327 18.4248H99.9609V19.7881H101.327V18.4248Z" fill="#51656A"/>
<path d="M116.568 16.9623C116.904 16.8025 117.174 16.5742 117.38 16.2709C117.585 15.9708 117.729 15.6055 117.814 15.1815C117.898 14.7543 117.941 14.2749 117.941 13.7432V4.2002H116.574V13.7432C116.574 14.1281 116.555 14.4542 116.515 14.7217C116.476 14.9891 116.408 15.2044 116.31 15.3707C116.212 15.5338 116.082 15.6545 115.919 15.7295C115.752 15.8045 115.54 15.8404 115.279 15.8404C115.155 15.8404 115.045 15.8338 114.956 15.8241C114.865 15.8143 114.741 15.7849 114.581 15.7393L114.223 17.0504C114.598 17.1547 114.97 17.2036 115.332 17.2036C115.818 17.2004 116.232 17.1221 116.568 16.9623Z" fill="#51656A"/>
<path d="M111.87 1.78402H109.995V1.46766C109.995 1.2948 110.031 1.16108 110.106 1.0665C110.168 0.988224 110.315 0.949086 110.527 0.949086H111.466V0H110.504C109.982 0 109.574 0.136981 109.3 0.407683C109.023 0.678384 108.883 1.12194 108.883 1.71879V2.83095H111.874V1.78402H111.87Z" fill="#51656A"/>
<path d="M98.597 18.4248H97.2305V19.7881H98.597V18.4248Z" fill="#51656A"/>
<path d="M75.6556 1.47363H74.2891V2.83692H75.6556V1.47363Z" fill="#51656A"/>
<path d="M105.719 12.3702C106.237 12.7387 106.837 13.0127 107.519 13.1888C108.201 13.3649 108.925 13.453 109.688 13.453H110.05L110.51 12.4908V13.8443C110.51 14.5586 110.304 15.0707 109.897 15.3772C109.486 15.6838 108.912 15.8371 108.171 15.8371C107.751 15.8371 107.372 15.798 107.036 15.7164C106.7 15.6381 106.316 15.5012 105.885 15.3087L105.458 16.6198C105.98 16.8123 106.446 16.959 106.85 17.0536C107.255 17.1515 107.663 17.1971 108.07 17.1971C109.401 17.1971 110.37 16.8808 110.973 16.2513C111.576 15.6186 111.876 14.7706 111.876 13.7041V4.2002H109.691C108.85 4.2002 108.08 4.32087 107.385 4.55896C106.691 4.79705 106.097 5.12319 105.601 5.5374C105.106 5.9516 104.721 6.44734 104.45 7.02136C104.176 7.59538 104.039 8.21832 104.039 8.88692C104.039 9.6925 104.189 10.3839 104.492 10.9579C104.789 11.5287 105.2 12.0016 105.719 12.3702ZM105.719 7.53994C105.927 7.13225 106.208 6.78328 106.554 6.49301C106.899 6.20274 107.297 5.98095 107.741 5.82114C108.171 5.66785 108.618 5.58958 109.081 5.58632V5.58306H111.289L110.51 5.97117V12.0929H109.127C108.615 12.0929 108.135 12.0212 107.685 11.8777C107.235 11.7374 106.841 11.5287 106.498 11.2547C106.156 10.9808 105.888 10.6481 105.696 10.2502C105.503 9.85231 105.406 9.39897 105.406 8.88692C105.402 8.3977 105.507 7.94762 105.719 7.53994Z" fill="#51656A"/>
<path d="M71.9314 17.0112H74.7689V15.9904C74.7949 16.0393 74.8243 16.0882 74.8537 16.1306C75.0591 16.4307 75.3298 16.6622 75.6658 16.8221C76.0017 16.9819 76.4126 17.0601 76.9019 17.0601H101.803V4.2002H100.437V15.7001H99.0178H76.9508C76.6899 15.7001 76.4746 15.6642 76.3115 15.5892C76.1485 15.5142 76.0147 15.3968 75.9201 15.2305C75.8256 15.0641 75.7571 14.8489 75.7147 14.5814C75.6755 14.314 75.656 13.9878 75.656 13.603V4.2002H71.964C68.1872 4.2002 65.6172 7.19096 65.6172 10.6057V10.6416C65.6204 14.0563 68.1546 17.0112 71.9314 17.0112ZM67.0751 10.5698C67.0751 7.75519 69.0972 5.49174 71.9314 5.49174H75.1276L74.2894 5.9092V13.603C74.2894 14.1379 74.3318 14.6173 74.4166 15.0413C74.4655 15.2892 74.5373 15.5142 74.6286 15.7197H71.964C69.1265 15.7197 67.0718 13.4204 67.0718 10.6057V10.5698H67.0751Z" fill="#51656A"/>
<path d="M58.7915 13.6265L59.3884 15.1985L50.7129 4.18457H49.3594V16.9858H50.7683V7.33841L49.966 5.47285L59.0492 16.9858H60.2037V4.18457H58.7915V13.6265Z" fill="#51656A"/>
<path d="M78.2429 37.4374L86.1161 29.9327V24.7861H65.0732V30.647H75.8621L79.8639 28.0769L69.874 38.1059L70.9438 42.4567H73.791C77.6167 42.4567 79.8867 43.8787 79.8867 46.4096V46.4977C79.8867 48.8068 78.0636 50.2712 75.4837 50.2712C72.3266 50.2712 70.1023 48.9405 67.9661 46.5401L63.25 51.0246C65.9179 54.1784 69.7892 56.3962 75.3957 56.3962C82.3361 56.3962 86.6053 52.0878 86.6053 46.227V46.1389C86.6086 40.3694 82.4698 38.1484 78.2429 37.4374Z" fill="#51656A"/>
<path d="M40.4651 3.96484C36.5643 3.96484 33.9062 7.05345 33.9062 10.5856V10.6215C33.9062 14.1504 36.5252 17.2031 40.4292 17.2031C44.3331 17.2031 46.988 14.1145 46.988 10.5856V10.5497C46.9847 7.01757 44.3658 3.96484 40.4651 3.96484ZM45.4844 10.6215C45.4844 13.5275 43.3971 15.8692 40.4651 15.8692C37.533 15.8692 35.4098 13.4916 35.4098 10.5856V10.5497C35.4098 7.64377 37.5004 5.30204 40.4292 5.30204C43.3612 5.30204 45.4844 7.67965 45.4844 10.5856V10.6215Z" fill="#51656A"/>
<path d="M104.962 24.249C95.3532 24.249 88.3672 31.4862 88.3672 40.3215V40.4096C88.3672 49.2449 95.2619 56.394 104.87 56.394C114.478 56.394 121.465 49.1568 121.465 40.3215V40.2335C121.468 31.3982 114.57 24.249 104.962 24.249ZM114.306 40.4096C114.306 45.7388 110.48 50.0896 104.962 50.0896C99.4464 50.0896 95.5294 45.6507 95.5294 40.3215V40.2335C95.5294 34.9042 99.3551 30.5534 104.87 30.5534C110.385 30.5534 114.302 34.9923 114.302 40.3215V40.4096H114.306Z" fill="#51656A"/>
<path d="M31.4012 4.18457H29.9531V16.9826H31.4012V4.18457Z" fill="#51656A"/>
<path d="M6.70827 52.3095L8.02916 51.2919L14.8358 46.0475C20.351 41.7848 23.0221 39.2115 23.0221 34.016V33.9279C23.0221 28.1095 18.7529 24.3359 12.3017 24.3359C6.74088 24.3359 3.7599 26.5994 0.690868 30.7741L5.495 34.6356C7.80738 31.7949 9.45442 30.4642 11.8581 30.4642C14.3042 30.4642 16.0393 31.8862 16.0393 34.5052C16.0393 37.0785 14.526 38.7679 10.6579 41.9641L0.292969 50.444V55.8612H23.3385V49.9547H11.4635L6.70827 52.3095Z" fill="#51656A"/>
<path d="M6.8047 17.0771L12.3166 4.18457H10.7609L6.40354 14.6767L6.54052 16.0857L6.18176 15.2116L2.40825 6.09253L1.61897 4.18457H0.0078125L5.52295 17.0771H6.8047Z" fill="#51656A"/>
<path d="M15.7332 4.18457H14.2852V16.9826H15.7332V4.18457Z" fill="#51656A"/>
<path d="M23.3932 9.88856C20.5721 9.28519 19.9133 8.61007 19.9133 7.40333V7.36745C19.9133 6.21616 20.9765 5.30295 22.6431 5.30295C23.9607 5.30295 25.1544 5.72368 26.3449 6.69233L27.1863 5.57691C25.885 4.53324 24.5478 4.00488 22.679 4.00488C20.2427 4.00488 18.4652 5.48559 18.4652 7.49791V7.53379C18.4652 9.63743 19.8219 10.5865 22.7703 11.229C25.4643 11.7965 26.1035 12.4716 26.1035 13.6621V13.698C26.1035 14.9601 24.9685 15.8733 23.2465 15.8733C21.469 15.8733 20.1872 15.27 18.85 14.0632L17.9531 15.1232C19.4925 16.4963 21.1591 17.1714 23.191 17.1714C25.7382 17.1714 27.5679 15.7462 27.5679 13.5512V13.5153C27.5679 11.5552 26.2503 10.5115 23.3932 9.88856Z" fill="#51656A"/>
<path d="M41.943 22.2021L43.5216 23.7122L42.0082 25.2875L40.4297 23.7774L41.943 22.2021Z" fill="#28316F"/>
<path d="M45.5547 23.7774L47.13 25.2875L48.6433 23.7122L47.068 22.2021L45.5547 23.7774Z" fill="#B4B1B3"/>
<path d="M43.332 25.7644L44.5616 26.9418L45.739 25.7155L44.5094 24.5381L43.332 25.7644Z" fill="#D5D505"/>
<path d="M47.8359 26.435L49.0623 27.6124L50.2396 26.386L49.0133 25.2119L47.8359 26.435Z" fill="#75B12F"/>
<path d="M41.3242 27.6342L42.5538 28.8116L43.7312 27.5853L42.5049 26.4111L41.3242 27.6342Z" fill="#D5D505"/>
<path d="M45.4492 27.7781L46.6755 28.9555L47.8529 27.7291L46.6266 26.5518L45.4492 27.7781Z" fill="#29B0BA"/>
<path d="M43.8359 29.1862L44.697 30.0146L45.5286 29.1536L44.6644 28.3252L43.8359 29.1862Z" fill="#75B12F"/>
<path d="M47.0938 29.8408L47.9548 30.666L48.7865 29.805L47.9222 28.9766L47.0938 29.8408Z" fill="#5AAC4C"/>
<path d="M56.8818 22.7893L54.2031 23.2803L54.6936 25.9557L57.3722 25.4647L56.8818 22.7893Z" fill="#2983C6"/>
<path d="M52.8486 24.0029L50.6992 24.3965L51.0922 26.5426L53.2415 26.1491L52.8486 24.0029Z" fill="#213466"/>
<path d="M57.0165 26.9984L54.8672 27.3926L55.2608 29.5387L57.4101 29.1445L57.0165 26.9984Z" fill="#29B0BA"/>
<path d="M53.573 27.3963L51.8984 27.7031L52.2046 29.3745L53.8792 29.0677L53.573 27.3963Z" fill="#D5D505"/>
<path d="M56.8269 30.5692L55.1523 30.876L55.4585 32.5473L57.1331 32.2405L56.8269 30.5692Z" fill="#B4B1B3"/>
<path d="M51.0613 28.079L49.3867 28.3857L49.6929 30.0571L51.3675 29.7503L51.0613 28.079Z" fill="#29B0BA"/>
<path d="M54.1043 30.2655L52.4297 30.5723L52.7359 32.2436L54.4105 31.9368L54.1043 30.2655Z" fill="#75B12F"/>
<path d="M51.4742 30.5625L50.2969 30.7783L50.5121 31.9524L51.6894 31.7366L51.4742 30.5625Z" fill="#B4B1B3"/>
<path d="M53.7399 32.9908L52.5625 33.2061L52.7771 34.3803L53.9546 34.1651L53.7399 32.9908Z" fill="#5AAC4C"/>
<path d="M62.1787 32.041L61.0078 34.4969L63.467 35.6645L64.6378 33.2119L62.1787 32.041Z" fill="#28316F"/>
<path d="M58.6854 30.9062L57.7461 32.8762L59.7193 33.8155L60.6586 31.8456L58.6854 30.9062Z" fill="#29B0BA"/>
<path d="M60.2987 35.7578L59.3594 37.7277L61.3358 38.6638L62.2751 36.6971L60.2987 35.7578Z" fill="#75B12F"/>
<path d="M57.7149 34.2803L56.9844 35.8164L58.5205 36.5437L59.2544 35.0108L57.7149 34.2803Z" fill="#D5D505"/>
<path d="M58.4955 38.7588L57.7617 40.2917L59.2979 41.0222L60.0317 39.4861L58.4955 38.7588Z" fill="#D5D505"/>
<path d="M55.2813 33.3672L54.5508 34.9033L56.0869 35.6306L56.8208 34.0978L55.2813 33.3672Z" fill="#2983C6"/>
<path d="M56.4604 36.917L55.7266 38.4531L57.266 39.1804L57.9965 37.6476L56.4604 36.917Z" fill="#B4B1B3"/>
<path d="M54.6169 35.8369L54.1016 36.9165L55.1844 37.4285L55.6964 36.349L54.6169 35.8369Z" fill="#75B12F"/>
<path d="M55.0286 39.1242L54.5156 40.2021L55.5965 40.7165L56.1094 39.6386L55.0286 39.1242Z" fill="#29B0BA"/>
<path d="M63.5046 43.8018L61.1172 45.1063L62.4283 47.4905L64.8157 46.1859L63.5046 43.8018Z" fill="#2983C6"/>
<path d="M61.3357 40.8389L59.418 41.8891L60.4714 43.8003L62.3859 42.7501L61.3357 40.8389Z" fill="#29B0BA"/>
<path d="M59.8051 45.7207L57.8906 46.7709L58.9408 48.6821L60.8586 47.6319L59.8051 45.7207Z" fill="#29B0BA"/>
<path d="M58.5719 43.0098L57.0781 43.8284L57.8967 45.3156L59.3905 44.5003L58.5719 43.0098Z" fill="#28316F"/>
<path d="M56.5803 47.0967L55.0898 47.9153L55.9085 49.4025L57.399 48.5872L56.5803 47.0967Z" fill="#5AAC4C"/>
<path d="M57.135 40.8506L55.6445 41.666L56.4599 43.1564L57.9537 42.3378L57.135 40.8506Z" fill="#213466"/>
<path d="M56.0094 44.418L54.5156 45.2333L55.3342 46.7238L56.828 45.9052L56.0094 44.418Z" fill="#D5D505"/>
<path d="M55.1518 42.4619L54.1016 43.0359L54.6788 44.0829L55.7258 43.5088L55.1518 42.4619Z" fill="#B4B1B3"/>
<path d="M53.5502 45.3711L52.5 45.9451L53.0773 46.992L54.1275 46.418L53.5502 45.3711Z" fill="#29B0BA"/>
<path d="M54.9819 53.7593L54.6484 56.459L57.3513 56.7929L57.6848 54.0932L54.9819 53.7593Z" fill="#75B12F"/>
<path d="M55.4949 50.1784L55.2266 52.3438L57.3951 52.6125L57.6635 50.4472L55.4949 50.1784Z" fill="#213466"/>
<path d="M51.3934 53.2399L51.125 55.4053L53.2936 55.6741L53.5619 53.5087L51.3934 53.2399Z" fill="#29B0BA"/>
<path d="M52.4546 50.3918L52.2461 52.0781L53.9356 52.287L54.1441 50.6007L52.4546 50.3918Z" fill="#75B12F"/>
<path d="M48.4468 52.5422L48.2383 54.2285L49.9278 54.4374L50.1363 52.7511L48.4468 52.5422Z" fill="#B4B1B3"/>
<path d="M52.5606 47.7932L52.3516 49.4795L54.0411 49.6889L54.2501 48.0026L52.5606 47.7932Z" fill="#B4B1B3"/>
<path d="M49.5606 50.0295L49.3516 51.7158L51.0411 51.9252L51.2501 50.2389L49.5606 50.0295Z" fill="#75B12F"/>
<path d="M50.5021 48.0039L50.3555 49.1885L51.5433 49.3355L51.6899 48.1508L50.5021 48.0039Z" fill="#B4B1B3"/>
<path d="M47.498 49.4326L47.3516 50.6172L48.5394 50.7641L48.6859 49.5794L47.498 49.4326Z" fill="#B4B1B3"/>
<path d="M46.9221 59.07L44.9261 57.2207L43.0703 59.2135L45.0663 61.0627L46.9221 59.07Z" fill="#D5D505"/>
<path d="M46.5549 20.983L44.5589 19.1338L42.7031 21.1265L44.7024 22.9758L46.5549 20.983Z" fill="#75B12F"/>
<path d="M49.0495 56.0875L47.4482 54.6035L45.9609 56.2016L47.5623 57.6856L49.0495 56.0875Z" fill="#29B0BA"/>
<path d="M43.9356 56.1734L42.331 54.6895L40.8438 56.2876L42.4484 57.7715L43.9356 56.1734Z" fill="#75B12F"/>
<path d="M46.1146 54.1549L44.8688 52.9971L43.7109 54.243L44.9568 55.3975L46.1146 54.1549Z" fill="#2983C6"/>
<path d="M41.6068 53.554L40.3609 52.3994L39.2031 53.642L40.4523 54.7999L41.6068 53.554Z" fill="#D5D505"/>
<path d="M47.7201 52.1077L46.4742 50.9531L45.3164 52.1957L46.5623 53.3536L47.7201 52.1077Z" fill="#D5D505"/>
<path d="M43.974 52.1721L42.7281 51.0176L41.5703 52.2602L42.8162 53.418L43.974 52.1721Z" fill="#B4B1B3"/>
<path d="M45.5638 50.7343L44.6865 49.9189L43.8711 50.7963L44.7484 51.6084L45.5638 50.7343Z" fill="#213466"/>
<path d="M42.2943 50.1373L41.4169 49.3252L40.6016 50.1993L41.4789 51.0114L42.2943 50.1373Z" fill="#B4B1B3"/>
<path d="M34.7483 54.1475L32.0781 54.6826L32.6126 57.3496L35.2828 56.8145L34.7483 54.1475Z" fill="#2983C6"/>
<path d="M38.334 53.4917L36.1914 53.9209L36.6199 56.0603L38.7625 55.6311L38.334 53.4917Z" fill="#29B0BA"/>
<path d="M34.1387 50.577L31.9961 51.0068L32.4253 53.1462L34.5678 52.7164L34.1387 50.577Z" fill="#75B12F"/>
<path d="M37.181 50.6852L35.5117 51.0195L35.8454 52.6856L37.5147 52.3512L37.181 50.6852Z" fill="#D5D505"/>
<path d="M39.681 49.9596L38.0117 50.2939L38.3454 51.96L40.0147 51.6257L39.681 49.9596Z" fill="#28316F"/>
<path d="M36.6068 47.8248L34.9375 48.1592L35.2712 49.8253L36.9405 49.4909L36.6068 47.8248Z" fill="#2983C6"/>
<path d="M38.8378 48.0923L37.6641 48.3271L37.8983 49.4977L39.072 49.2628L38.8378 48.0923Z" fill="#75B12F"/>
<path d="M36.5408 45.6972L35.3672 45.9326L35.602 47.103L36.7756 46.8676L36.5408 45.6972Z" fill="#B4B1B3"/>
<path d="M27.174 48.1856L28.3058 45.7102L25.8238 44.585L24.6953 47.0572L27.174 48.1856Z" fill="#29B0BA"/>
<path d="M30.6848 49.2617L31.5882 47.2788L29.602 46.3721L28.6953 48.3583L30.6848 49.2617Z" fill="#D5D505"/>
<path d="M28.9895 44.4365L29.8962 42.4503L27.9067 41.5469L27 43.5331L28.9895 44.4365Z" fill="#2983C6"/>
<path d="M30.748 43.616L30.043 45.1621L31.5921 45.8685L32.2971 44.3223L30.748 43.616Z" fill="#29B0BA"/>
<path d="M33.6742 49.7367L34.3787 48.1908L32.8295 47.4863L32.125 49.0323L33.6742 49.7367Z" fill="#B4B1B3"/>
<path d="M29.9085 39.1562L29.2031 40.7021L30.752 41.4088L31.4574 39.8629L29.9085 39.1562Z" fill="#28316F"/>
<path d="M33.2132 44.4951L32.5078 46.041L34.0567 46.7477L34.7621 45.2018L33.2132 44.4951Z" fill="#5AAC4C"/>
<path d="M31.9637 40.972L31.2578 42.5176L32.8064 43.2248L33.5122 41.6792L31.9637 40.972Z" fill="#D5D505"/>
<path d="M34.6753 44.2634L35.1743 43.1774L34.0849 42.6816L33.5859 43.771L34.6753 44.2634Z" fill="#213466"/>
<path d="M34.2065 40.9845L34.7023 39.8952L33.6129 39.3994L33.1172 40.4887L34.2065 40.9845Z" fill="#75B12F"/>
<path d="M25.651 36.4505L28.0189 35.1035L26.6686 32.7422L24.3008 34.0892L25.651 36.4505Z" fill="#29B0BA"/>
<path d="M27.8641 39.3729L29.7655 38.2933L28.6794 36.3984L26.7812 37.478L27.8641 39.3729Z" fill="#75B12F"/>
<path d="M29.3211 34.4705L31.2193 33.391L30.1365 31.4961L28.2383 32.5756L29.3211 34.4705Z" fill="#213466"/>
<path d="M30.5993 37.1574L32.0767 36.316L31.2353 34.8418L29.7578 35.6833L30.5993 37.1574Z" fill="#2983C6"/>
<path d="M32.5244 33.0425L34.0019 32.2011L33.1604 30.7236L31.6797 31.5651L32.5244 33.0425Z" fill="#75B12F"/>
<path d="M32.0752 39.2932L33.5526 38.4517L32.7112 36.9775L31.2305 37.819L32.0752 39.2932Z" fill="#29B0BA"/>
<path d="M33.1338 35.7095L34.6112 34.8681L33.7698 33.3906L32.2891 34.2353L33.1338 35.7095Z" fill="#D5D505"/>
<path d="M34.0311 37.6529L35.0715 37.0625L34.4779 36.0254L33.4375 36.6157L34.0311 37.6529Z" fill="#B4B1B3"/>
<path d="M35.5819 34.7176L36.6223 34.1241L36.0287 33.0869L34.9883 33.6772L35.5819 34.7176Z" fill="#75B12F"/>
<path d="M31.586 23.3462L31.2969 26.0508L34.0047 26.3403L34.2938 23.6357L31.586 23.3462Z" fill="#75B12F"/>
<path d="M31.6111 27.5434L31.3789 29.7129L33.5516 29.9454L33.7838 27.7759L31.6111 27.5434Z" fill="#B4B1B3"/>
<path d="M35.6658 24.4165L35.4336 26.5859L37.6063 26.8184L37.8385 24.649L35.6658 24.4165Z" fill="#29B0BA"/>
<path d="M35.0716 27.8212L34.8906 29.5107L36.5834 29.6921L36.7644 28.0025L35.0716 27.8212Z" fill="#D5D505"/>
<path d="M39.0553 25.5925L38.875 27.2822L40.568 27.4629L40.7482 25.7732L39.0553 25.5925Z" fill="#2983C6"/>
<path d="M35.0208 30.412L34.8398 32.1016L36.5326 32.2829L36.7136 30.5933L35.0208 30.412Z" fill="#29B0BA"/>
<path d="M37.9817 28.1288L37.8008 29.8184L39.4936 29.9997L39.6745 28.3101L37.9817 28.1288Z" fill="#75B12F"/>
<path d="M37.5176 30.7301L37.3906 31.917L38.5808 32.0443L38.7078 30.8575L37.5176 30.7301Z" fill="#213466"/>
<path d="M40.4935 29.2505L40.3672 30.4375L41.5574 30.5641L41.6837 29.3771L40.4935 29.2505Z" fill="#B4B1B3"/>
<path d="M53.2252 41.7679C53.023 41.6537 52.6545 41.4613 52.1457 41.3015C51.4119 41.0666 50.3877 40.8905 49.1745 41.083C48.7668 41.1482 48.3363 41.2558 47.8895 41.4156C47.8471 41.4319 47.8047 41.445 47.7623 41.4613C47.534 41.5461 47.3089 41.6504 47.0806 41.7646C46.8849 41.8624 46.6925 41.9701 46.5001 42.0875C46.0598 42.3517 45.626 42.6517 45.2053 42.9779C44.7259 40.0784 44.9607 37.3877 45.0716 36.0668C45.0716 36.0603 45.0813 36.057 45.0879 36.0603C46.1152 36.7061 45.8282 38.5097 45.6097 39.0282C45.6064 39.038 45.6195 39.0445 45.6293 39.038C46.9078 37.528 46.2848 35.8581 46.0207 35.4374C46.0141 35.4276 46.0272 35.4178 46.037 35.4243C46.2229 35.5743 46.3729 35.7342 46.5001 35.8972C46.8947 36.4028 47.0415 36.9474 47.0806 37.4301C47.1002 37.6845 47.0937 37.9193 47.0806 38.1215C47.0774 38.177 47.0741 38.2259 47.0676 38.2748C47.0676 38.2814 47.0741 38.2846 47.0806 38.2814C47.0839 38.2814 47.0871 38.2814 47.0871 38.2781C47.4329 37.5997 47.5992 36.5756 47.0806 35.5809C46.9404 35.3102 46.7512 35.0427 46.5001 34.7851C46.4283 34.7101 46.3501 34.6383 46.2685 34.5633C46.262 34.5568 46.2685 34.5437 46.2783 34.547C46.3566 34.5665 46.4283 34.5894 46.5001 34.6122C46.7186 34.6872 46.911 34.7916 47.0806 34.9188C47.4687 35.2058 47.7329 35.5972 47.8895 36.0081C48.0199 36.3473 48.0786 36.6963 48.0786 37.0061C48.0786 37.0192 48.0949 37.0192 48.0982 37.0094C48.3396 36.1255 48.1928 35.4569 47.8895 34.971C47.6742 34.622 47.3774 34.3676 47.0806 34.1882C46.8784 34.0675 46.6762 33.9827 46.5001 33.9306C46.3957 33.898 46.3044 33.8784 46.2229 33.8686C46.2098 33.8686 46.2131 33.849 46.2261 33.849C46.3207 33.8392 46.412 33.836 46.5001 33.8327C46.7153 33.8295 46.9078 33.849 47.0806 33.8784C47.4231 33.9436 47.6905 34.061 47.8895 34.198C48.2156 34.4165 48.3787 34.6742 48.4341 34.7785C48.4374 34.7883 48.4537 34.7818 48.4537 34.772C48.408 34.3056 48.1928 33.9403 47.8927 33.6794C47.6612 33.4772 47.3774 33.337 47.0839 33.2522C46.8915 33.2 46.6958 33.1706 46.5033 33.1674C46.2424 33.1641 45.9913 33.2065 45.7793 33.2978C45.7695 33.3011 45.763 33.2913 45.7663 33.2815C45.9554 33.0108 46.2229 32.8478 46.5033 32.7597C46.699 32.701 46.898 32.6782 47.0839 32.6912C47.2633 32.701 47.4263 32.7401 47.5601 32.8021C47.5698 32.8054 47.5764 32.7956 47.5698 32.7858C47.4231 32.6195 47.2567 32.489 47.0839 32.3912C46.898 32.2868 46.7023 32.2248 46.5033 32.202C45.9848 32.1433 45.4564 32.3651 45.1042 32.8967C45.1009 32.9032 45.0911 32.9032 45.0879 32.8967C45.0194 32.776 44.9542 32.6423 44.8954 32.502C44.7552 32.1759 44.6411 31.8106 44.5791 31.4453C44.5758 31.4323 44.5628 31.4323 44.5628 31.4453C44.5008 31.8106 44.3834 32.1792 44.2432 32.5053C44.1812 32.6455 44.1192 32.776 44.0507 32.8934C44.0475 32.8999 44.0377 32.8999 44.0344 32.8934C43.4213 31.9639 42.27 31.9835 41.5688 32.7858C41.5622 32.7923 41.5688 32.8054 41.5785 32.8021C42.0449 32.5803 42.9288 32.6455 43.3723 33.2815C43.3789 33.2913 43.3691 33.3011 43.3593 33.2978C42.6777 33.0108 41.6209 33.1967 41.0567 33.8686C40.8545 34.1067 40.7175 34.41 40.6816 34.772C40.6816 34.7818 40.6947 34.7883 40.7012 34.7785C40.7436 34.697 40.8545 34.5209 41.0567 34.3415C41.3861 34.0512 41.9601 33.7577 42.9092 33.8458C42.9223 33.849 42.9223 33.8653 42.9125 33.8653C42.4265 33.924 41.4252 34.3578 41.0567 35.3493C40.8936 35.7863 40.8512 36.3343 41.0339 37.0061C41.0371 37.0159 41.0534 37.0159 41.0534 37.0029C41.0534 36.9866 41.0534 36.9735 41.0567 36.9572C41.0665 36.057 41.5818 34.8503 42.857 34.5437C42.8668 34.5405 42.8733 34.5535 42.8668 34.56C41.4416 35.8124 41.5818 37.3584 42.0482 38.2716C42.0547 38.2814 42.0678 38.2781 42.0678 38.2683C42.0058 37.5769 41.9569 36.3473 43.0984 35.4178C43.1082 35.4113 43.1212 35.4211 43.1147 35.4308C42.8505 35.8548 42.2276 37.5214 43.5061 39.0315C43.5126 39.0413 43.5289 39.0348 43.5256 39.0217C43.3104 38.5064 43.0234 36.6995 44.0475 36.0538C44.054 36.0505 44.0638 36.0538 44.0638 36.0603C44.1747 37.3812 44.4095 40.0719 43.9301 42.9713C43.1049 42.3386 42.2341 41.7842 41.3731 41.458C41.2654 41.4189 41.1611 41.383 41.06 41.3471C40.1696 41.0536 39.3542 40.9721 38.6432 41.0047C37.5017 41.0536 36.6276 41.3961 36.1482 41.6341C36.0504 41.6831 35.9688 41.7287 35.9069 41.7646C35.8808 41.7809 35.9003 41.8168 35.9264 41.807C36.0014 41.7842 36.0732 41.7613 36.1482 41.7418C37.0255 41.4939 37.8572 41.4287 38.6432 41.4972C39.501 41.5722 40.3066 41.807 41.06 42.1462C42.1167 42.6224 43.0723 43.3007 43.9366 44.0183C42.7168 45.0815 41.6862 46.1154 41.06 46.4774C41.0274 46.4937 40.998 46.5133 40.9686 46.5296C40.8186 46.3241 40.5577 46.2067 40.274 46.2687C40.0261 46.3241 39.8239 46.5231 39.7684 46.7677C39.7195 46.9862 39.775 47.2243 39.8989 47.3482C40.2316 47.6809 40.6164 47.7037 41.06 47.5178C41.9047 47.1623 42.9549 46.0469 44.2432 44.8663C44.3508 44.7684 44.4584 44.6673 44.5693 44.5695C44.6802 44.6673 44.7878 44.7651 44.8954 44.863C45.4792 45.3979 46.0141 45.9197 46.5033 46.3633C46.7056 46.5459 46.898 46.7155 47.0839 46.8655C47.3709 47.1004 47.6416 47.2928 47.8927 47.4265C48.3852 47.6874 48.8125 47.72 49.1777 47.3971C49.1973 47.3808 49.2169 47.3645 49.2365 47.345C49.3212 47.2602 49.4191 46.9829 49.3669 46.7644C49.3376 46.6372 49.2691 46.5231 49.1745 46.435C49.0897 46.3535 48.9788 46.2915 48.8614 46.2654C48.5776 46.2035 48.3167 46.3209 48.1667 46.5263C48.0819 46.4839 47.9906 46.4252 47.8895 46.3567C47.6579 46.1969 47.3872 45.9719 47.0806 45.7044C46.898 45.5446 46.7056 45.3685 46.5001 45.1826C46.1022 44.8206 45.6652 44.4227 45.202 44.015C45.613 43.6726 46.0467 43.3399 46.5001 43.0333C46.6893 42.9061 46.8817 42.7822 47.0806 42.6648C47.3448 42.5082 47.6122 42.3647 47.8895 42.231C48.3037 42.032 48.7309 41.8657 49.1745 41.7385C50.0942 41.4743 51.0824 41.3863 52.1457 41.5559C52.4914 41.6113 52.8436 41.6928 53.2057 41.8037C53.2318 41.82 53.2513 41.7842 53.2252 41.7679Z" fill="#757A81"/>
<path d="M7.13045 71.3896H6.32812V72.192H7.13045V71.3896Z" fill="#51656A"/>
<path d="M60.3461 70.4607V65.1641H59.5633V69.6779H56.6117V65.1641H55.829V69.6779H52.7208V65.1641H51.4912C51.002 65.1641 50.5584 65.2293 50.1605 65.363C49.7626 65.4967 49.4234 65.6826 49.143 65.9175C48.8625 66.1556 48.6472 66.436 48.4939 66.7622C48.3406 67.0883 48.2656 67.4373 48.2656 67.8156C48.2656 68.2788 48.3537 68.6734 48.5298 69.0061C48.7059 69.3387 48.9407 69.6094 49.2343 69.8247C49.5278 70.0399 49.8703 70.1998 50.2616 70.3009C50.653 70.4052 51.064 70.4574 51.4945 70.4574L60.3461 70.4607ZM50.3432 69.554C50.0855 69.4692 49.8605 69.3485 49.6681 69.1887C49.4756 69.0289 49.3256 68.8332 49.2147 68.6049C49.1038 68.3733 49.0484 68.1124 49.0484 67.8189C49.0484 67.5384 49.1103 67.284 49.231 67.0524C49.3517 66.8209 49.5115 66.6252 49.7105 66.4589C49.9094 66.2925 50.1344 66.1653 50.3888 66.0773C50.6432 65.9892 50.9042 65.9468 51.1716 65.9468H51.9446V69.6812H51.1716C50.8781 69.6812 50.6008 69.6388 50.3432 69.554Z" fill="#51656A"/>
<path d="M44.4038 63.4629H43.6211V70.462H44.4038V63.4629Z" fill="#51656A"/>
<path d="M52.7242 63.4629H51.9219V64.2652H52.7242V63.4629Z" fill="#51656A"/>
<path d="M60.357 71.3799H59.5547V72.1822H60.357V71.3799Z" fill="#51656A"/>
<path d="M8.49763 71.3896H7.69531V72.192H8.49763V71.3896Z" fill="#51656A"/>
<path d="M40.5677 69.6828H39.2892C38.8326 69.6828 38.4738 69.6176 38.2129 69.4871C37.952 69.3567 37.7465 69.161 37.5965 68.9033C37.6422 68.7011 37.665 68.4565 37.665 68.1728V65.6549H36.8822V68.2967C36.8822 68.7468 36.7616 69.1056 36.5202 69.3763C36.2789 69.647 35.9136 69.7807 35.4244 69.7807C35.1961 69.7807 34.9873 69.7448 34.7982 69.673C34.609 69.6013 34.4459 69.5035 34.3089 69.3795C34.172 69.2556 34.0643 69.1121 33.986 68.9457C33.9078 68.7794 33.8654 68.6033 33.8589 68.4141V65.6549H33.0761V68.3554C33.0761 68.5968 33.0402 68.799 32.9685 68.9653C32.8967 69.1316 32.7989 69.2686 32.6749 69.3763C32.551 69.4839 32.4108 69.5622 32.2542 69.6111C32.0977 69.66 31.9313 69.6828 31.7552 69.6828H30.2419V65.6549H29.4591V69.6828H25.3627L26.7293 66.4148C26.5206 66.2322 26.2988 66.0626 26.064 65.9028C25.8291 65.743 25.5878 65.6027 25.3399 65.4821C25.092 65.3614 24.8409 65.2668 24.5865 65.1983C24.3321 65.1298 24.081 65.0972 23.8331 65.0972C23.5787 65.0972 23.3243 65.1331 23.0699 65.1983C22.8155 65.2668 22.5644 65.3581 22.3133 65.4755C22.0621 65.593 21.8208 65.7332 21.5892 65.8963C21.3577 66.0593 21.1424 66.2289 20.9402 66.4116L22.3165 69.6796H19.6095V65.1657H18.3604C17.8777 65.1657 17.4374 65.2342 17.0395 65.3712C16.6416 65.5082 16.3024 65.6941 16.0186 65.9322C15.7349 66.1702 15.5164 66.454 15.3598 66.7801C15.2033 67.1095 15.125 67.465 15.125 67.8499C15.125 68.313 15.2098 68.7077 15.3827 69.0338C15.5555 69.3632 15.7903 69.6339 16.0871 69.8426C16.3839 70.0546 16.7264 70.2112 17.1178 70.309C17.5091 70.4101 17.9233 70.4591 18.3604 70.4591H18.83V70.6841C18.83 71.095 18.7126 71.3853 18.4778 71.5614C18.243 71.7376 17.9136 71.8256 17.4896 71.8256C17.2482 71.8256 17.033 71.8028 16.8405 71.7571C16.6481 71.7115 16.4296 71.6332 16.1817 71.5223L15.9371 72.2724C16.2372 72.3833 16.5013 72.4649 16.7329 72.5203C16.9645 72.5758 17.196 72.6051 17.4309 72.6051C18.194 72.6051 18.7452 72.4257 19.0909 72.0637C19.4367 71.7017 19.6095 71.2157 19.6095 70.6058V70.4591H31.7552C32.1335 70.4591 32.4695 70.3775 32.7663 70.2144C33.0631 70.0514 33.3011 69.8329 33.4838 69.5622C33.6729 69.8753 33.9306 70.1199 34.2567 70.2927C34.5829 70.4688 34.971 70.5569 35.4211 70.5569C35.8907 70.5569 36.2886 70.4754 36.618 70.3123C36.9475 70.1492 37.1986 69.9013 37.3747 69.5622C37.4399 69.673 37.5182 69.7807 37.6128 69.8883C37.7074 69.9959 37.8281 70.0905 37.9781 70.1753C38.1281 70.2601 38.3108 70.3286 38.5195 70.3808C38.6793 70.4199 38.8717 70.4395 39.0805 70.4493V70.4591H41.3374V63.46H40.5546V69.6828H40.5677ZM18.8333 69.6828H18.0407C17.7472 69.6828 17.4733 69.6437 17.2156 69.5622C16.9579 69.4806 16.7329 69.3632 16.5372 69.2067C16.3415 69.0501 16.1882 68.8577 16.0773 68.6326C15.9665 68.4043 15.911 68.1434 15.911 67.8532C15.911 67.5727 15.9697 67.3183 16.0904 67.0835C16.2111 66.8486 16.3709 66.6497 16.5698 66.4833C16.7688 66.317 16.9938 66.1898 17.2482 66.0985C17.5026 66.0072 17.7668 65.9615 18.0407 65.9615H18.8333V69.6828ZM23.1449 69.6828L21.9252 66.6888C22.2252 66.4344 22.5318 66.2485 22.8481 66.1344C23.1645 66.017 23.4939 65.9582 23.8396 65.9582C24.1919 65.9582 24.5408 66.0267 24.8866 66.167C25.2323 66.3072 25.5258 66.4801 25.7672 66.6888L24.5474 69.6828H23.1449Z" fill="#51656A"/>
<path d="M4.45467 63.4629H3.65234V64.2652H4.45467V63.4629Z" fill="#51656A"/>
<path d="M83.525 63.4629H82.7227V64.2652H83.525V63.4629Z" fill="#51656A"/>
<path d="M76.5796 63.4629H75.7969V70.462H76.5796V63.4629Z" fill="#51656A"/>
<path d="M51.3531 63.4629H50.5508V64.2652H51.3531V63.4629Z" fill="#51656A"/>
<path d="M13.8829 67.3939C13.8829 67.0873 13.8437 66.8036 13.7589 66.5361C13.6774 66.2687 13.5535 66.0437 13.3839 65.8545C13.1751 65.6262 12.9436 65.4566 12.6859 65.3424C12.4283 65.2283 12.1152 65.1729 11.7434 65.1729H11.1661V65.9523H11.851C12.0402 65.9523 12.2195 65.9947 12.3891 66.073C12.5587 66.1546 12.699 66.2589 12.8099 66.3894C12.9207 66.5264 12.9958 66.6764 13.0382 66.8395C13.0806 67.0025 13.1034 67.1982 13.1034 67.4233V69.6867H9.4375V70.4662H13.8829V67.3939Z" fill="#51656A"/>
<path d="M117.931 63.4629H117.148V70.462H117.931V63.4629Z" fill="#51656A"/>
<path d="M84.8961 63.4629H84.0938V64.2652H84.8961V63.4629Z" fill="#51656A"/>
<path d="M114.872 63.4629H114.089V69.6825H111.402C111.565 69.3237 111.646 68.9421 111.646 68.5312C111.646 68.13 111.571 67.7517 111.428 67.406C111.281 67.057 111.082 66.757 110.828 66.5058C110.573 66.2514 110.273 66.0525 109.924 65.9057C109.575 65.759 109.2 65.6872 108.796 65.6872C108.405 65.6872 108.039 65.7622 107.7 65.9123C107.361 66.0623 107.067 66.2645 106.816 66.5222C106.565 66.7798 106.369 67.0799 106.226 67.4256C106.082 67.7713 106.011 68.1398 106.011 68.5377C106.011 68.7465 106.033 68.9454 106.076 69.1378C106.118 69.3303 106.174 69.5129 106.245 69.689H103.822C103.985 69.3303 104.067 68.9487 104.067 68.5377C104.067 68.1366 103.992 67.7582 103.848 67.4125C103.702 67.0635 103.503 66.7635 103.248 66.5124C102.994 66.258 102.694 66.059 102.345 65.9123C101.996 65.7655 101.621 65.6937 101.216 65.6937C100.825 65.6937 100.463 65.7687 100.124 65.9188C99.7845 66.0688 99.491 66.271 99.2398 66.5287C98.9887 66.7863 98.793 67.0864 98.6495 67.4321C98.506 67.7778 98.4343 68.1464 98.4343 68.5443C98.4343 68.753 98.4571 68.9519 98.4995 69.1444C98.5419 69.3368 98.5973 69.5194 98.6691 69.6955H96.1871V63.4759H95.4044V69.6955H92.9126V68.5019C92.9126 68.2018 92.8735 67.9181 92.7952 67.6473C92.7169 67.3766 92.593 67.1484 92.4234 66.9592C92.2212 66.7309 91.9929 66.5613 91.7385 66.4504C91.4841 66.3395 91.1612 66.2841 90.7698 66.2841H87.3094L88.7803 63.4727H87.9291L86.4288 66.2743C86.4549 66.4439 86.494 66.5906 86.5527 66.7146C86.6082 66.8385 86.6832 66.9559 86.7811 67.0668H90.7666C91.0144 67.0668 91.2264 67.1027 91.4058 67.181C91.5852 67.256 91.7287 67.3571 91.8396 67.4875C91.9505 67.618 92.0255 67.768 92.0646 67.9376C92.1038 68.1072 92.1233 68.2964 92.1233 68.5019V69.6955H84.8927V65.1817H83.6598C83.1706 65.1817 82.727 65.2469 82.3324 65.3806C81.9345 65.5144 81.5953 65.7003 81.3148 65.9351C81.0343 66.1732 80.8191 66.4537 80.6658 66.7798C80.5125 67.1059 80.4375 67.4549 80.4375 67.8333C80.4375 68.2964 80.5256 68.691 80.7017 69.0237C80.8778 69.3564 81.1126 69.6271 81.4062 69.8423C81.6997 70.0576 82.0421 70.2174 82.4335 70.3185C82.8249 70.4229 83.2358 70.475 83.6631 70.475H99.1713C99.4257 70.749 99.7258 70.9643 100.075 71.1241C100.424 71.2839 100.802 71.3622 101.213 71.3622C101.63 71.3622 102.019 71.2839 102.381 71.1273C102.743 70.9708 103.052 70.7523 103.313 70.475H106.754C107.009 70.749 107.309 70.9643 107.658 71.1241C108.007 71.2839 108.385 71.3622 108.796 71.3622C109.213 71.3622 109.602 71.2839 109.964 71.1273C110.326 70.9708 110.635 70.7523 110.896 70.475H114.872V63.4629ZM84.1099 69.6825H83.3369C83.0434 69.6825 82.7695 69.6401 82.5118 69.5553C82.2541 69.4705 82.0291 69.3498 81.8367 69.19C81.6442 69.0302 81.4942 68.8345 81.3833 68.6062C81.2724 68.3747 81.217 68.1137 81.217 67.8202C81.217 67.5397 81.2757 67.2853 81.3964 67.0538C81.517 66.8222 81.6769 66.6265 81.8758 66.4602C82.0748 66.2938 82.2998 66.1666 82.5542 66.0786C82.8086 65.9905 83.0695 65.9481 83.3369 65.9481H84.1099V69.6825ZM103.121 69.3368C103.013 69.5879 102.867 69.8032 102.681 69.9858C102.495 70.1685 102.276 70.3087 102.025 70.4098C101.774 70.5109 101.503 70.5598 101.21 70.5598C100.923 70.5598 100.659 70.5044 100.414 70.4C100.169 70.2924 99.9574 70.1456 99.778 69.9597C99.5986 69.7738 99.4584 69.5586 99.3573 69.3107C99.2561 69.0628 99.2072 68.7986 99.2072 68.5214C99.2072 68.2409 99.2594 67.9768 99.3573 67.7256C99.4584 67.4745 99.5986 67.2592 99.7747 67.0733C99.9508 66.8874 100.16 66.7407 100.404 66.6298C100.649 66.5189 100.916 66.4634 101.21 66.4634C101.51 66.4634 101.784 66.5156 102.035 66.62C102.286 66.7244 102.505 66.8679 102.69 67.0505C102.876 67.2331 103.02 67.4484 103.124 67.6995C103.229 67.9507 103.281 68.2246 103.281 68.5247C103.284 68.815 103.229 69.0857 103.121 69.3368ZM110.704 69.3368C110.596 69.5879 110.449 69.8032 110.264 69.9858C110.078 70.1685 109.859 70.3087 109.608 70.4098C109.357 70.5109 109.086 70.5598 108.793 70.5598C108.506 70.5598 108.241 70.5044 107.997 70.4C107.752 70.2924 107.54 70.1456 107.361 69.9597C107.181 69.7738 107.041 69.5586 106.94 69.3107C106.839 69.0628 106.787 68.7986 106.787 68.5214C106.787 68.2409 106.839 67.9768 106.94 67.7256C107.041 67.4745 107.178 67.2592 107.354 67.0733C107.53 66.8874 107.739 66.7407 107.984 66.6298C108.228 66.5189 108.496 66.4634 108.789 66.4634C109.089 66.4634 109.363 66.5156 109.615 66.62C109.866 66.7244 110.084 66.8679 110.27 67.0505C110.456 67.2331 110.6 67.4484 110.704 67.6995C110.808 67.9507 110.86 68.2246 110.86 68.5247C110.867 68.815 110.812 69.0857 110.704 69.3368Z" fill="#51656A"/>
<path d="M1.99602 70.3041C2.38739 70.4085 2.79834 70.4607 3.22559 70.4607H8.34608V65.1641H7.56333V69.6779H4.45516V65.1641H3.22233C2.73311 65.1641 2.29281 65.2293 1.89491 65.363C1.49701 65.4967 1.15782 65.6826 0.877335 65.9175C0.596849 66.1556 0.38159 66.436 0.228301 66.7622C0.0750127 67.0883 0 67.4373 0 67.8156C0 68.2788 0.0880587 68.6734 0.264178 69.0061C0.440297 69.3387 0.675123 69.6094 0.968655 69.8247C1.26219 70.0432 1.60464 70.203 1.99602 70.3041ZM0.782752 67.8189C0.782752 67.5384 0.844719 67.284 0.965393 67.0524C1.08607 66.8209 1.24588 66.6252 1.44483 66.4589C1.64378 66.2925 1.86882 66.1653 2.12321 66.0773C2.37761 65.9892 2.63853 65.9468 2.90597 65.9468H3.67893V69.6812H2.90597C2.61243 69.6812 2.33847 69.6388 2.08081 69.554C1.82316 69.4692 1.59812 69.3485 1.40569 69.1887C1.21326 69.0289 1.06324 68.8332 0.952347 68.6049C0.838196 68.3733 0.782752 68.1124 0.782752 67.8189Z" fill="#51656A"/>
<path d="M57.4976 71.3896H56.6953V72.192H57.4976V71.3896Z" fill="#51656A"/>
<path d="M56.1304 71.3896H55.3281V72.192H56.1304V71.3896Z" fill="#51656A"/>
<path d="M63.3887 71.4535C63.4376 71.2089 63.4637 70.9349 63.4637 70.6283V70.462H73.5188V63.4629H72.7361V69.6825H69.4126L70.7792 66.4145C70.5705 66.2319 70.3487 66.0623 70.1139 65.9025C69.879 65.7427 69.6377 65.6024 69.3898 65.4817C69.1419 65.3611 68.8908 65.2665 68.6364 65.198C68.382 65.1295 68.1309 65.0969 67.883 65.0969C67.6286 65.0969 67.3742 65.1328 67.1198 65.198C66.8654 65.2665 66.6143 65.3578 66.3632 65.4752C66.112 65.5926 65.8707 65.7329 65.6391 65.8959C65.4076 66.059 65.1923 66.2286 64.9901 66.4113L66.3664 69.6792H63.454V65.1654H62.6712V70.6283C62.6712 70.8501 62.6614 71.036 62.6386 71.1893C62.6158 71.3426 62.5766 71.4665 62.5212 71.5611C62.4657 71.6557 62.3907 71.7242 62.2961 71.7666C62.2015 71.809 62.0809 71.8318 61.9308 71.8318C61.8591 71.8318 61.7971 71.8286 61.7449 71.822C61.6928 71.8155 61.621 71.7992 61.5297 71.7731L61.3242 72.5232C61.5395 72.5819 61.7515 72.6113 61.9602 72.6113C62.2407 72.6113 62.4755 72.5656 62.6679 72.4743C62.8604 72.383 63.0136 72.2525 63.1311 72.0797C63.2583 71.9068 63.3398 71.6981 63.3887 71.4535ZM65.9751 66.6885C66.2751 66.4341 66.5817 66.2482 66.8981 66.134C67.2144 66.0166 67.5438 65.9579 67.8895 65.9579C68.2418 65.9579 68.5908 66.0264 68.9365 66.1666C69.2822 66.3069 69.5757 66.4797 69.8171 66.6885L68.5973 69.6825H67.2014L65.9751 66.6885Z" fill="#51656A"/>
<path d="M3.08357 63.4629H2.28125V64.2652H3.08357V63.4629Z" fill="#51656A"/>
<path d="M5.6089 75.5908H4.40542L1.74733 78.3957V75.5908H0.765625V81.1647H1.74733V79.5502L2.61814 78.6566L4.52283 81.1647H5.71327L3.28674 77.988L5.6089 75.5908Z" fill="#51656A"/>
<path d="M7.59108 75.5908H6.60938V81.1647H7.59108V75.5908Z" fill="#51656A"/>
<path d="M13.0023 79.4459L10.0115 75.5908H9.10156V81.1647H10.067V77.1987L13.1458 81.1647H13.9677V75.5908H13.0023V79.4459Z" fill="#51656A"/>
<path d="M18.0269 78.9004H19.4555V79.9441C19.113 80.1985 18.6336 80.3648 18.1085 80.3648C16.967 80.3648 16.2103 79.5201 16.2103 78.3753V78.359C16.2103 77.2925 16.9898 76.3924 18.0204 76.3924C18.7314 76.3924 19.1522 76.6239 19.5827 76.9892L20.2056 76.2488C19.6316 75.7629 19.0315 75.4922 18.0596 75.4922C16.3766 75.4922 15.1797 76.8131 15.1797 78.3753V78.3916C15.1797 80.0158 16.3277 81.2585 18.0759 81.2585C19.0641 81.2585 19.8566 80.8606 20.4046 80.3909V78.0492H18.0269V78.9004Z" fill="#51656A"/>
<path d="M23.8464 75.5908H21.7656V81.1647H23.8464C25.6011 81.1647 26.8144 79.9481 26.8144 78.3761V78.3598C26.8144 76.7943 25.6011 75.5908 23.8464 75.5908ZM25.787 78.3957C25.787 79.485 25.0206 80.2743 23.8497 80.2743H22.7506V76.4845H23.8497C25.0238 76.4845 25.787 77.29 25.787 78.3794V78.3957Z" fill="#51656A"/>
<path d="M30.6599 75.4922C28.9444 75.4922 27.7344 76.8066 27.7344 78.3753V78.3916C27.7344 79.9604 28.9313 81.2585 30.6469 81.2585C32.3624 81.2585 33.5757 79.9441 33.5757 78.3753V78.359C33.5691 76.7903 32.3722 75.4922 30.6599 75.4922ZM32.5418 78.3916C32.5418 79.4744 31.7688 80.3583 30.6599 80.3583C29.551 80.3583 28.7617 79.4581 28.7617 78.3753V78.359C28.7617 77.2762 29.5347 76.3924 30.6436 76.3924C31.7525 76.3924 32.5418 77.2925 32.5418 78.3753V78.3916Z" fill="#51656A"/>
<path d="M37.528 78.2261L35.8288 75.5908H34.7852V81.1647H35.7505V77.1857L37.4987 79.7948H37.528L39.2925 77.1694V81.1647H40.2742V75.5908H39.2273L37.528 78.2261Z" fill="#51656A"/>
<path d="M46.7849 75.4922C45.0694 75.4922 43.8594 76.8066 43.8594 78.3753V78.3916C43.8594 79.9604 45.0563 81.2585 46.7719 81.2585C48.4874 81.2585 49.7007 79.9441 49.7007 78.3753V78.359C49.6974 76.7903 48.5004 75.4922 46.7849 75.4922ZM48.6668 78.3916C48.6668 79.4744 47.8938 80.3583 46.7849 80.3583C45.676 80.3583 44.8867 79.4581 44.8867 78.3753V78.359C44.8867 77.2762 45.6597 76.3924 46.7686 76.3924C47.8775 76.3924 48.6668 77.2925 48.6668 78.3753V78.3916Z" fill="#51656A"/>
<path d="M50.918 81.1647H51.8997V78.8947H54.7143V78.0043H51.8997V76.4845H55.0731V75.5908H50.918V81.1647Z" fill="#51656A"/>
<path d="M60.6989 77.9317C59.6291 77.6773 59.3747 77.4849 59.3747 77.0576V77.0413C59.3747 76.6761 59.7106 76.3793 60.2847 76.3793C60.7967 76.3793 61.299 76.5782 61.8012 76.9533L62.3263 76.2129C61.7588 75.7596 61.1131 75.5117 60.301 75.5117C59.1921 75.5117 58.393 76.1738 58.393 77.1261V77.1425C58.393 78.1698 59.0649 78.5188 60.252 78.8058C61.2892 79.0439 61.511 79.2591 61.511 79.657V79.6766C61.511 80.1006 61.1294 80.3778 60.5227 80.3778C59.8281 80.3778 59.2932 80.1136 58.7583 79.6538L58.168 80.355C58.8398 80.9518 59.6422 81.2454 60.4967 81.2454C61.6708 81.2454 62.4894 80.6257 62.4894 79.582V79.5657C62.4927 78.6395 61.8795 78.2187 60.6989 77.9317Z" fill="#51656A"/>
<path d="M65.5028 75.5518L63.0469 81.1647H64.0514L64.6254 79.8177H67.2672L67.8347 81.1647H68.8718L66.416 75.5518H65.5028ZM64.9842 78.9535L65.9431 76.7226L66.9084 78.9535H64.9842Z" fill="#51656A"/>
<path d="M73.2371 78.8001C73.2371 79.8275 72.7022 80.3526 71.8314 80.3526C70.9541 80.3526 70.4192 79.7948 70.4192 78.761V75.5908H69.4375V78.8001C69.4375 80.4145 70.3638 81.2527 71.8151 81.2527C73.2762 81.2527 74.2156 80.4178 74.2156 78.7544V75.5941H73.2338V78.8001H73.2371Z" fill="#51656A"/>
<path d="M77.741 75.5908H75.6602V81.1647H77.741C79.4956 81.1647 80.7089 79.9481 80.7089 78.3761V78.3598C80.7089 76.7943 79.4956 75.5908 77.741 75.5908ZM79.6783 78.3957C79.6783 79.485 78.9118 80.2743 77.741 80.2743H76.6419V76.4845H77.741C78.9151 76.4845 79.6783 77.29 79.6783 78.3794V78.3957Z" fill="#51656A"/>
<path d="M82.9309 75.5908H81.9492V81.1647H82.9309V75.5908Z" fill="#51656A"/>
<path d="M88.7918 75.5518L86.3359 81.1647H87.3405L87.9145 79.8177H90.5563L91.1238 81.1647H92.1609L89.705 75.5518H88.7918ZM88.2732 78.9535L89.2321 76.7226L90.1975 78.9535H88.2732Z" fill="#51656A"/>
<path d="M97.6565 77.3683V77.352C97.6565 76.8661 97.4902 76.4518 97.1934 76.1485C96.8347 75.7996 96.2835 75.5908 95.5822 75.5908H93.0938V81.1647H94.0755V79.2208H95.2887H95.305L96.6781 81.1647H97.8359L96.3291 79.0545C97.1054 78.8327 97.6565 78.2815 97.6565 77.3683ZM94.0755 78.3533V76.4812H95.504C96.2313 76.4812 96.6618 76.8073 96.6618 77.4042V77.4205C96.6618 77.9847 96.215 78.3533 95.5138 78.3533H94.0755Z" fill="#51656A"/>
<path d="M101.007 75.5518L98.5508 81.1647H99.5553L100.129 79.8177H102.771L103.339 81.1647H104.376L101.92 75.5518H101.007ZM100.488 78.9535L101.447 76.7226L102.412 78.9535H100.488Z" fill="#51656A"/>
<path d="M108.839 78.2681C109.253 78.0529 109.638 77.6941 109.638 77.0255V77.0092C109.638 76.6342 109.511 76.3341 109.263 76.0862C108.943 75.7666 108.441 75.5938 107.802 75.5938H105.297V81.1676H107.88C109.126 81.1676 109.944 80.636 109.944 79.638V79.6216C109.948 78.865 109.494 78.4899 108.839 78.2681ZM106.262 76.458H107.674C108.304 76.458 108.656 76.7287 108.656 77.1658V77.1821C108.656 77.6909 108.232 77.9387 107.603 77.9387H106.262V76.458ZM108.966 79.5336C108.966 80.0359 108.558 80.2968 107.89 80.2968H106.262V78.7671H107.818C108.591 78.7671 108.966 79.0476 108.966 79.5173V79.5336Z" fill="#51656A"/>
<path d="M112.146 75.5908H111.164V81.1647H112.146V75.5908Z" fill="#51656A"/>
<path d="M116.448 75.5518H115.538L113.082 81.1647H114.087L114.661 79.8177H117.302L117.87 81.1647H118.907L116.448 75.5518ZM115.019 78.9535L115.978 76.7226L116.944 78.9535H115.019Z" fill="#51656A"/>
</svg>
