<svg width="140" height="42" viewBox="0 0 140 42" fill="none" xmlns="http://www.w3.org/2000/svg">
<g id="Group">
<path id="Vector" d="M138.396 36.3487C138.396 36.8674 138.294 37.3811 138.095 37.8603C137.896 38.3394 137.605 38.7748 137.238 39.1414C136.871 39.508 136.435 39.7987 135.956 39.9968C135.476 40.1949 134.962 40.2966 134.443 40.2961H5.09444C4.04606 40.2972 3.04017 39.882 2.29798 39.1417C1.55579 38.4015 1.13809 37.3968 1.13672 36.3487V4.86954C1.13808 3.82096 1.55563 2.81579 2.29767 2.07472C3.0397 1.33365 4.04558 0.917264 5.09444 0.916992H134.442C134.962 0.916992 135.476 1.01924 135.955 1.21788C136.435 1.41653 136.871 1.70769 137.238 2.07473C137.605 2.44177 137.896 2.8775 138.094 3.35704C138.293 3.83658 138.395 4.35053 138.395 4.86954L138.396 36.3487Z" fill="white"/>
<path id="Vector_2" d="M134.443 41.2147H5.09399C3.80251 41.2144 2.56388 40.702 1.64989 39.7898C0.735899 38.8776 0.221207 37.6401 0.21875 36.349L0.21875 4.87086C0.220661 3.57908 0.735012 2.3408 1.64897 1.42766C2.56293 0.51452 3.80187 0.00109031 5.09399 0L134.442 0C135.734 0.00163435 136.973 0.515239 137.886 1.42826C138.8 2.34128 139.315 3.57924 139.317 4.87086V36.349C139.319 39.0328 137.129 41.2147 134.443 41.2147Z" fill="#A6A6A6"/>
<path id="Vector_3" d="M138.396 36.3487C138.396 36.8674 138.294 37.3811 138.095 37.8603C137.896 38.3394 137.605 38.7748 137.238 39.1414C136.871 39.508 136.435 39.7987 135.956 39.9968C135.476 40.1949 134.962 40.2966 134.443 40.2961H5.09444C4.04606 40.2972 3.04017 39.882 2.29798 39.1417C1.55579 38.4015 1.13809 37.3968 1.13672 36.3487V4.86954C1.13808 3.82096 1.55563 2.81579 2.29767 2.07472C3.0397 1.33365 4.04558 0.917264 5.09444 0.916992H134.442C134.962 0.916992 135.476 1.01924 135.955 1.21788C136.435 1.41653 136.871 1.70769 137.238 2.07473C137.605 2.44177 137.896 2.8775 138.094 3.35704C138.293 3.83658 138.395 4.35053 138.395 4.86954L138.396 36.3487Z" fill="black"/>
<path id="Vector_4" d="M31.2784 20.3901C31.2485 17.0683 33.9991 15.4522 34.1248 15.377C32.5671 13.1065 30.1527 12.7962 29.3042 12.7715C27.2764 12.5582 25.3094 13.9846 24.2764 13.9846C23.2228 13.9846 21.6321 12.7921 19.9177 12.8272C17.7115 12.8612 15.6476 14.1381 14.5156 16.1211C12.1795 20.1644 13.9218 26.1061 16.1599 29.3743C17.2795 30.9759 18.5878 32.762 20.3001 32.6991C21.9754 32.6311 22.6012 31.6324 24.6228 31.6324C26.6259 31.6324 27.2135 32.6991 28.9599 32.6589C30.7578 32.6311 31.8898 31.0511 32.9702 29.4361C34.264 27.6026 34.7836 25.7948 34.8042 25.702C34.763 25.6876 31.3135 24.3704 31.2784 20.3901ZM27.9795 10.6216C28.8805 9.49506 29.497 7.96248 29.3259 6.40723C28.0218 6.46494 26.3908 7.30905 25.4517 8.41081C24.6207 9.38169 23.8785 10.973 24.0702 12.4695C25.5352 12.5788 27.0393 11.7305 27.9795 10.6216Z" fill="white"/>
<path id="Vector_5" d="M134.443 0H65.1602L92.2972 41.2147H134.443C135.735 41.2136 136.974 40.7005 137.888 39.7878C138.802 38.8751 139.316 37.6373 139.319 36.3459V4.87086C139.316 3.57916 138.802 2.34104 137.888 1.42796C136.974 0.51488 135.735 0.00136243 134.443 0Z" fill="url(#paint0_linear_139_10667)"/>
<g id="Group_2">
<path id="Vector_6" d="M55.5434 32.4697H53.2021L51.9197 28.4409H47.462L46.2403 32.4697H43.9609L48.3784 18.7538H51.1063L55.5434 32.4697ZM51.5331 26.7506L50.3733 23.1691C50.2506 22.8032 50.0197 21.9416 49.6815 20.5853H49.6403C49.5042 21.1686 49.2867 22.0303 48.9888 23.1691L47.8486 26.7506H51.5331ZM66.8815 27.403C66.8815 29.0851 66.4248 30.4146 65.5103 31.3906C64.6918 32.2595 63.6743 32.6934 62.4609 32.6934C61.1506 32.6934 60.2083 32.2265 59.6361 31.2907V36.48H57.4382V25.8303C57.4382 24.7739 57.4104 23.6906 57.3568 22.5796H59.2897L59.4124 24.1472H59.4537C60.1866 22.9661 61.299 22.3755 62.7918 22.3755C63.9588 22.3755 64.933 22.8362 65.7124 23.7587C66.4907 24.6832 66.8815 25.8973 66.8815 27.403ZM64.6423 27.4834C64.6423 26.5208 64.4258 25.7272 63.9908 25.1016C63.5155 24.4513 62.8774 24.1256 62.0774 24.1256C61.5351 24.1256 61.0423 24.307 60.6021 24.6646C60.1609 25.0253 59.8722 25.4963 59.7372 26.0797C59.6769 26.2978 59.6426 26.5224 59.6351 26.7486V28.3987C59.6351 29.117 59.8557 29.7241 60.297 30.2208C60.7382 30.7156 61.3114 30.9639 62.0165 30.9639C62.8444 30.9639 63.4887 30.6434 63.9495 30.0075C64.4114 29.3695 64.6423 28.5285 64.6423 27.4834ZM78.2598 27.403C78.2598 29.0851 77.8031 30.4146 76.8887 31.3906C76.0691 32.2595 75.0526 32.6934 73.8381 32.6934C72.5278 32.6934 71.5856 32.2265 71.0134 31.2907V36.48H68.8155V25.8303C68.8155 24.7739 68.7876 23.6906 68.734 22.5796H70.667L70.7897 24.1472H70.8309C71.5629 22.9661 72.6753 22.3755 74.1691 22.3755C75.335 22.3755 76.3093 22.8362 77.0907 23.7587C77.868 24.6832 78.2598 25.8973 78.2598 27.403ZM76.0196 27.4834C76.0196 26.5208 75.8021 25.7272 75.367 25.1016C74.8917 24.4513 74.2557 24.1256 73.4557 24.1256C72.9134 24.1256 72.4206 24.307 71.9784 24.6646C71.5371 25.0253 71.2495 25.4963 71.1144 26.0797C71.0474 26.3518 71.0114 26.5734 71.0114 26.7486V28.3987C71.0114 29.117 71.233 29.7241 71.6722 30.2208C72.1134 30.7145 72.6866 30.9639 73.3938 30.9639C74.2227 30.9639 74.867 30.6434 75.3268 30.0075C75.7887 29.3695 76.0196 28.5285 76.0196 27.4834ZM90.9814 28.6223C90.9814 29.79 90.5731 30.7393 89.7618 31.472C88.869 32.2718 87.6226 32.6728 86.0247 32.6728C84.5484 32.6728 83.3649 32.3883 82.4721 31.8183L82.9804 29.9869C83.9443 30.5579 85.0031 30.8423 86.1556 30.8423C86.9845 30.8423 87.6288 30.6547 88.0886 30.2827C88.5494 29.9096 88.7824 29.4107 88.7824 28.7882C88.7824 28.2307 88.5896 27.7638 88.2113 27.3835C87.8309 27.0042 87.202 26.6507 86.3185 26.326C83.9165 25.4304 82.7144 24.1204 82.7144 22.3972C82.7144 21.2717 83.1391 20.3503 83.9866 19.6299C84.834 18.9105 85.9577 18.5508 87.3556 18.5508C88.6041 18.5508 89.6443 18.7682 90.47 19.2022L89.9185 20.9934C89.1412 20.5729 88.2639 20.3627 87.2824 20.3627C86.5072 20.3627 85.8989 20.5533 85.4639 20.9326C85.0979 21.2717 84.9123 21.685 84.9123 22.1756C84.9123 22.7167 85.1237 23.166 85.5443 23.5185C85.9092 23.8432 86.5752 24.1967 87.5381 24.576C88.7195 25.0521 89.5876 25.6066 90.1432 26.2436C90.703 26.8805 90.9814 27.6751 90.9814 28.6223ZM98.2669 24.2286H95.8442V29.0304C95.8442 30.2518 96.271 30.8609 97.1267 30.8609C97.5195 30.8609 97.8453 30.8279 98.103 30.7588L98.1638 32.4275C97.7308 32.5893 97.1607 32.6707 96.4546 32.6707C95.5865 32.6707 94.9082 32.4058 94.4185 31.8761C93.9309 31.3463 93.6855 30.4589 93.6855 29.2098V24.2245H92.2422V22.5755H93.6855V20.7646L95.8442 20.1132V22.5755H98.2669V24.2286ZM109.176 27.4432C109.176 28.9634 108.741 30.2116 107.873 31.1876C106.965 32.1925 105.757 32.6934 104.25 32.6934C102.797 32.6934 101.641 32.2121 100.779 31.2505C99.9174 30.2868 99.4865 29.0727 99.4865 27.6081C99.4865 26.0756 99.9319 24.8202 100.819 23.8442C101.709 22.8671 102.907 22.3786 104.413 22.3786C105.865 22.3786 107.031 22.861 107.913 23.8236C108.757 24.7574 109.176 25.9632 109.176 27.4432ZM106.898 27.4937C106.898 26.5878 106.702 25.8107 106.309 25.1603C105.848 24.375 105.189 23.9823 104.334 23.9823C103.453 23.9823 102.778 24.375 102.318 25.1603C101.925 25.8107 101.729 26.6012 101.729 27.535C101.729 28.4419 101.925 29.2211 102.318 29.8694C102.794 30.6547 103.457 31.0474 104.315 31.0474C105.156 31.0474 105.814 30.6465 106.291 29.8498C106.695 29.184 106.898 28.4017 106.898 27.4937ZM116.324 24.5121C116.095 24.4708 115.863 24.4505 115.631 24.4513C114.858 24.4513 114.26 24.7419 113.839 25.3273C113.474 25.8426 113.291 26.494 113.291 27.2804V32.4697H111.093V25.6942C111.095 24.656 111.073 23.6179 111.029 22.5806H112.943L113.024 24.4729H113.084C113.317 23.8226 113.682 23.298 114.183 22.9053C114.642 22.5622 115.199 22.3763 115.772 22.3755C115.975 22.3755 116.159 22.39 116.321 22.4157L116.324 24.5121ZM126.153 27.0567C126.159 27.3908 126.132 27.7246 126.073 28.0534H119.479C119.504 29.0304 119.824 29.7787 120.436 30.294C120.992 30.7537 121.71 30.9846 122.593 30.9846C123.569 30.9846 124.46 30.83 125.261 30.5177L125.605 32.042C124.669 32.4501 123.564 32.6532 122.288 32.6532C120.754 32.6532 119.55 32.2018 118.674 31.301C117.8 30.3991 117.362 29.1871 117.362 27.6689C117.362 26.1786 117.769 24.9367 118.584 23.9462C119.438 22.8888 120.592 22.3601 122.043 22.3601C123.469 22.3601 124.548 22.8888 125.281 23.9462C125.862 24.7842 126.153 25.8231 126.153 27.0567ZM124.058 26.4868C124.073 25.8344 123.929 25.2727 123.631 24.7976C123.25 24.1853 122.665 23.8803 121.88 23.8803C121.162 23.8803 120.576 24.1781 120.131 24.7759C119.765 25.251 119.547 25.822 119.48 26.4847L124.058 26.4868Z" fill="white"/>
</g>
<g id="Group_3">
<path id="Vector_7" d="M46.8265 13.9046C46.2152 13.9046 45.6863 13.8747 45.2461 13.8242V7.19296C45.8618 7.09788 46.4839 7.05102 47.1069 7.05279C49.6275 7.05279 50.7883 8.29267 50.7883 10.3138C50.7883 12.6451 49.4172 13.9046 46.8265 13.9046ZM47.1956 7.90308C46.8554 7.90308 46.5657 7.9237 46.3255 7.97317V13.0141C46.4554 13.0347 46.7048 13.044 47.0554 13.044C48.7069 13.044 49.6471 12.104 49.6471 10.3437C49.6471 8.77398 48.7966 7.90308 47.1956 7.90308ZM54.4058 13.9551C52.9852 13.9551 52.0646 12.8945 52.0646 11.4547C52.0646 9.95408 53.0048 8.88426 54.4863 8.88426C55.8863 8.88426 56.8275 9.8943 56.8275 11.3753C56.8275 12.8945 55.8574 13.9551 54.4058 13.9551ZM54.4471 9.67374C53.6667 9.67374 53.1667 10.4034 53.1667 11.4238C53.1667 12.4245 53.677 13.1542 54.4368 13.1542C55.1966 13.1542 55.7069 12.374 55.7069 11.4032C55.7069 10.4137 55.2069 9.67374 54.4471 9.67374ZM64.9285 8.98424L63.4079 13.8448H62.4172L61.7873 11.734C61.6306 11.2177 61.5002 10.6938 61.3965 10.1643H61.3759C61.2965 10.6941 61.146 11.2249 60.9862 11.734L60.3161 13.8448H59.3151L57.8842 8.98424H58.9945L59.545 11.295C59.6749 11.8453 59.7842 12.3648 59.8749 12.8554H59.8955C59.9749 12.4462 60.1048 11.935 60.2955 11.3053L60.9862 8.98527H61.8666L62.5275 11.2558C62.6873 11.8062 62.8172 12.3462 62.9182 12.8564H62.9471C63.0172 12.3565 63.1275 11.8257 63.2769 11.2558L63.8677 8.98527L64.9285 8.98424ZM70.5264 13.8448H69.446V11.0538C69.446 10.1942 69.1161 9.76341 68.4656 9.76341C67.8254 9.76341 67.3852 10.3138 67.3852 10.9538V13.8448H66.3048V10.3736C66.3048 9.94377 66.2945 9.48307 66.2646 8.9832H67.2151L67.2656 9.73352H67.2955C67.5862 9.21407 68.1759 8.88426 68.8367 8.88426C69.8573 8.88426 70.5274 9.66446 70.5274 10.9342L70.5264 13.8448ZM73.5058 13.8448H72.4243V6.75391H73.5058V13.8448ZM77.4449 13.9551C76.0254 13.9551 75.1037 12.8945 75.1037 11.4547C75.1037 9.95408 76.0439 8.88426 77.5243 8.88426C78.9253 8.88426 79.8655 9.8943 79.8655 11.3753C79.8666 12.8945 78.8954 13.9551 77.4449 13.9551ZM77.4851 9.67374C76.7047 9.67374 76.2047 10.4034 76.2047 11.4238C76.2047 12.4245 76.7161 13.1542 77.4738 13.1542C78.2346 13.1542 78.7439 12.374 78.7439 11.4032C78.7449 10.4137 78.246 9.67374 77.4851 9.67374ZM84.1253 13.8448L84.047 13.2851H84.0181C83.6882 13.7355 83.2068 13.9551 82.5965 13.9551C81.7253 13.9551 81.1068 13.3449 81.1068 12.5245C81.1068 11.3248 82.147 10.7044 83.948 10.7044V10.6147C83.948 9.97469 83.6088 9.65416 82.9387 9.65416C82.4593 9.65416 82.0387 9.77474 81.6686 10.0149L81.449 9.30477C81.8985 9.02443 82.4593 8.88426 83.1181 8.88426C84.3882 8.88426 85.0294 9.55419 85.0294 10.8951V12.6853C85.0294 13.1759 85.0511 13.5562 85.0995 13.8458L84.1253 13.8448ZM83.9769 11.4238C82.7769 11.4238 82.1748 11.7144 82.1748 12.4039C82.1748 12.9141 82.4851 13.1635 82.916 13.1635C83.4655 13.1635 83.9769 12.7441 83.9769 12.1741V11.4238ZM90.2758 13.8448L90.2253 13.0646H90.1954C89.8851 13.6541 89.3634 13.9551 88.6346 13.9551C87.4624 13.9551 86.5944 12.9244 86.5944 11.4743C86.5944 9.95408 87.4944 8.88323 88.7232 8.88323C89.3737 8.88323 89.8346 9.10276 90.0944 9.54388H90.116V6.75391H91.1975V12.5348C91.1975 13.0048 91.2088 13.4449 91.2377 13.8448H90.2758ZM90.116 10.9847C90.116 10.3045 89.6655 9.72424 88.9779 9.72424C88.1768 9.72424 87.6872 10.4344 87.6872 11.4341C87.6872 12.4142 88.1954 13.0852 88.9562 13.0852C89.6356 13.0852 90.116 12.4946 90.116 11.7948V10.9847ZM98.0541 13.9551C96.6345 13.9551 95.7139 12.8945 95.7139 11.4547C95.7139 9.95408 96.6541 8.88426 98.1345 8.88426C99.5356 8.88426 100.476 9.8943 100.476 11.3753C100.477 12.8945 99.5067 13.9551 98.0541 13.9551ZM98.0943 9.67374C97.315 9.67374 96.815 10.4034 96.815 11.4238C96.815 12.4245 97.3253 13.1542 98.084 13.1542C98.8448 13.1542 99.3541 12.374 99.3541 11.4032C99.3562 10.4137 98.8562 9.67374 98.0943 9.67374ZM106.286 13.8448H105.205V11.0538C105.205 10.1942 104.875 9.76341 104.224 9.76341C103.584 9.76341 103.145 10.3138 103.145 10.9538V13.8448H102.063V10.3736C102.063 9.94377 102.053 9.48307 102.023 8.9832H102.974L103.024 9.73352H103.054C103.344 9.21407 103.935 8.88323 104.594 8.88323C105.615 8.88323 106.286 9.66343 106.286 10.9332V13.8448ZM113.555 9.79433H112.366V12.1545C112.366 12.7554 112.575 13.0553 112.995 13.0553C113.186 13.0553 113.346 13.0347 113.475 13.0048L113.505 13.8252C113.295 13.9056 113.015 13.9458 112.666 13.9458C111.815 13.9458 111.306 13.4758 111.306 12.2452V9.79433H110.596V8.98424H111.306V8.09375L112.366 7.77322V8.9832H113.555V9.79433ZM119.275 13.8448H118.195V11.0744C118.195 10.2045 117.866 9.76444 117.215 9.76444C116.655 9.76444 116.133 10.1447 116.133 10.9146V13.8448H115.054V6.75391H116.133V9.67374H116.155C116.495 9.14399 116.988 8.88323 117.617 8.88323C118.646 8.88323 119.275 9.68302 119.275 10.9538V13.8448ZM125.134 11.6742H121.892C121.913 12.5946 122.522 13.1141 123.424 13.1141C123.904 13.1141 124.345 13.0337 124.734 12.8842L124.902 13.6345C124.443 13.8345 123.901 13.9345 123.272 13.9345C121.751 13.9345 120.851 12.9739 120.851 11.4846C120.851 9.99427 121.773 8.87396 123.15 8.87396C124.392 8.87396 125.172 9.79433 125.172 11.1847C125.179 11.3488 125.166 11.5131 125.134 11.6742ZM124.144 10.9043C124.144 10.154 123.765 9.62427 123.075 9.62427C122.454 9.62427 121.963 10.1643 121.893 10.9043H124.144Z" fill="white"/>
</g>
</g>
<defs>
<linearGradient id="paint0_linear_139_10667" x1="102.238" y1="41.3241" x2="102.238" y2="-107.316" gradientUnits="userSpaceOnUse">
<stop stopColor="#1A1A1A" stopOpacity="0.1"/>
<stop offset="0.123" stopColor="#212121" stopOpacity="0.151"/>
<stop offset="0.308" stopColor="#353535" stopOpacity="0.227"/>
<stop offset="0.532" stopColor="#575757" stopOpacity="0.318"/>
<stop offset="0.783" stopColor="#858585" stopOpacity="0.421"/>
<stop offset="1" stopColor="#B3B3B3" stopOpacity="0.51"/>
</linearGradient>
</defs>
</svg>
