<svg width="20" height="20" viewBox="0 0 20 20" fill="none" xmlns="http://www.w3.org/2000/svg">
<g clipPath="url(#clip0_139_10787)">
<path opacity="0.985" fillRule="evenodd" clipRule="evenodd" d="M9.66716 -0.0195312C9.87548 -0.0195312 10.0838 -0.0195312 10.2922 -0.0195312C10.7733 0.116614 11.0793 0.429113 11.2101 0.917969C11.2231 4.21223 11.2362 7.50652 11.2492 10.8008C12.0109 10.0391 12.7726 9.27734 13.5343 8.51562C14.2414 8.02188 14.8859 8.09348 15.4679 8.73047C15.7829 9.29129 15.7439 9.82516 15.3508 10.332C13.8468 11.8359 12.3429 13.3398 10.839 14.8438C10.4073 15.1541 9.93853 15.2192 9.43278 15.0391C9.31821 14.9894 9.21407 14.9243 9.12028 14.8438C7.61638 13.3398 6.11247 11.8359 4.60857 10.332C4.11482 9.62496 4.18642 8.98043 4.82341 8.39844C5.38423 8.08344 5.9181 8.1225 6.42497 8.51562C7.18669 9.27734 7.94841 10.0391 8.71013 10.8008C8.72314 7.50652 8.73618 4.21223 8.74919 0.917969C8.88001 0.429113 9.18599 0.116614 9.66716 -0.0195312Z" fill="#FEFFFF"/>
<path opacity="0.997" fillRule="evenodd" clipRule="evenodd" d="M19.9805 18.418C19.9805 18.6263 19.9805 18.8347 19.9805 19.043C19.8372 19.5247 19.5247 19.8372 19.043 19.9805C13.0013 19.9805 6.95965 19.9805 0.917969 19.9805C0.436199 19.8372 0.123698 19.5247 -0.0195312 19.043C-0.0195312 18.8347 -0.0195312 18.6263 -0.0195312 18.418C0.116614 17.9368 0.429113 17.6308 0.917969 17.5C6.95965 17.474 13.0013 17.474 19.043 17.5C19.5318 17.6308 19.8443 17.9368 19.9805 18.418Z" fill="#FEFFFF"/>
</g>
<defs>
<clipPath id="clip0_139_10787">
<rect width="20" height="20" fill="white"/>
</clipPath>
</defs>
</svg>
