<svg width="140" height="42" viewBox="0 0 140 42" fill="none" xmlns="http://www.w3.org/2000/svg">
<g id="Group 5">
<path id="Vector" d="M134.068 41.2096H5.30671C2.42245 41.2096 0.15625 38.9434 0.15625 36.0591V5.15632C0.15625 2.27206 2.42245 0.00585938 5.30671 0.00585938H134.068C136.953 0.00585938 139.219 2.27206 139.219 5.15632V36.0591C139.219 38.9434 136.953 41.2096 134.068 41.2096Z" fill="black"/>
<path id="Vector_2" d="M134.068 0.829934C136.438 0.829934 138.395 2.78711 138.395 5.15632V36.0591C138.395 38.4283 136.438 40.3855 134.068 40.3855H5.30671C2.9375 40.3855 0.980324 38.4283 0.980324 36.0591V5.15632C0.980324 2.78711 2.9375 0.829934 5.30671 0.829934H134.068ZM134.068 0.00585938H5.30671C2.42245 0.00585938 0.15625 2.37507 0.15625 5.15632V36.0591C0.15625 38.9434 2.42245 41.2096 5.30671 41.2096H134.068C136.953 41.2096 139.219 38.9434 139.219 36.0591V5.15632C139.219 2.37507 136.953 0.00585938 134.068 0.00585938Z" fill="#A6A6A6"/>
<path id="Vector_3" d="M48.9813 10.5136C48.9813 11.3376 48.7753 12.0587 48.2603 12.5737C47.6422 13.1918 46.9212 13.5008 45.9941 13.5008C45.067 13.5008 44.3459 13.1918 43.7279 12.5737C43.1098 11.9557 42.8008 11.2346 42.8008 10.3075C42.8008 9.38046 43.1098 8.6594 43.7279 8.04134C44.3459 7.42329 45.067 7.11426 45.9941 7.11426C46.4061 7.11426 46.8181 7.21727 47.2302 7.42329C47.6422 7.6293 47.9512 7.83532 48.1573 8.14435L47.6422 8.6594C47.2302 8.14435 46.7151 7.93833 45.9941 7.93833C45.376 7.93833 44.758 8.14435 44.3459 8.6594C43.8309 9.07143 43.6249 9.68949 43.6249 10.4106C43.6249 11.1316 43.8309 11.7497 44.3459 12.1617C44.861 12.5737 45.376 12.8828 45.9941 12.8828C46.7151 12.8828 47.2302 12.6768 47.7452 12.1617C48.0543 11.8527 48.2603 11.4406 48.2603 10.9256H45.9941V10.1015H48.9813V10.5136ZM53.7198 7.93833H50.9385V9.89551H53.5137V10.6166H50.9385V12.5737H53.7198V13.3978H50.1144V7.21727H53.7198V7.93833ZM57.1191 13.3978H56.295V7.93833H54.5438V7.21727H58.8702V7.93833H57.1191V13.3978ZM61.8575 13.3978V7.21727H62.6816V13.3978H61.8575ZM66.1839 13.3978H65.3598V7.93833H63.6086V7.21727H67.832V7.93833H66.0809V13.3978H66.1839ZM75.9698 12.5737C75.3517 13.1918 74.6306 13.5008 73.7036 13.5008C72.7765 13.5008 72.0554 13.1918 71.4374 12.5737C70.8193 11.9557 70.5103 11.2346 70.5103 10.3075C70.5103 9.38046 70.8193 8.6594 71.4374 8.04134C72.0554 7.42329 72.7765 7.11426 73.7036 7.11426C74.6306 7.11426 75.3517 7.42329 75.9698 8.04134C76.5878 8.6594 76.8968 9.38046 76.8968 10.3075C76.8968 11.2346 76.5878 11.9557 75.9698 12.5737ZM72.0554 12.0587C72.4674 12.4707 73.0855 12.7798 73.7036 12.7798C74.3216 12.7798 74.9397 12.5737 75.3517 12.0587C75.7637 11.6467 76.0728 11.0286 76.0728 10.3075C76.0728 9.58648 75.8668 8.96842 75.3517 8.55639C74.9397 8.14435 74.3216 7.83532 73.7036 7.83532C73.0855 7.83532 72.4674 8.04134 72.0554 8.55639C71.6434 8.96842 71.3343 9.58648 71.3343 10.3075C71.3343 11.0286 71.5404 11.6467 72.0554 12.0587ZM78.0299 13.3978V7.21727H78.957L81.9443 12.0587V7.21727H82.7684V13.3978H81.9443L78.751 8.35037V13.3978H78.0299Z" fill="white" stroke="white" strokeWidth="1.18519" stroke-miterlimit="10"/>
<path id="Vector_4" d="M70.3047 22.4616C67.8325 22.4616 65.8753 24.3157 65.8753 26.891C65.8753 29.3632 67.8325 31.3203 70.3047 31.3203C72.7769 31.3203 74.7341 29.4662 74.7341 26.891C74.7341 24.2127 72.7769 22.4616 70.3047 22.4616ZM70.3047 29.4662C68.9656 29.4662 67.8325 28.3331 67.8325 26.7879C67.8325 25.2428 68.9656 24.1097 70.3047 24.1097C71.6438 24.1097 72.7769 25.1398 72.7769 26.7879C72.7769 28.3331 71.6438 29.4662 70.3047 29.4662ZM60.7248 22.4616C58.2526 22.4616 56.2954 24.3157 56.2954 26.891C56.2954 29.3632 58.2526 31.3203 60.7248 31.3203C63.1971 31.3203 65.1542 29.4662 65.1542 26.891C65.1542 24.2127 63.1971 22.4616 60.7248 22.4616ZM60.7248 29.4662C59.3857 29.4662 58.2526 28.3331 58.2526 26.7879C58.2526 25.2428 59.3857 24.1097 60.7248 24.1097C62.0639 24.1097 63.1971 25.1398 63.1971 26.7879C63.1971 28.3331 62.0639 29.4662 60.7248 29.4662ZM49.2908 23.8007V25.6548H53.7202C53.6172 26.6849 53.2052 27.509 52.6901 28.0241C52.0721 28.6421 51.042 29.3632 49.2908 29.3632C46.5096 29.3632 44.4494 27.2 44.4494 24.4187C44.4494 21.6375 46.6126 19.4743 49.2908 19.4743C50.7329 19.4743 51.866 20.0923 52.6901 20.8134L54.0292 19.4743C52.8961 18.4442 51.454 17.6201 49.3938 17.6201C45.6855 17.6201 42.4922 20.7104 42.4922 24.4187C42.4922 28.1271 45.6855 31.2173 49.3938 31.2173C51.454 31.2173 52.8961 30.5993 54.1322 29.2602C55.3684 28.0241 55.7804 26.2729 55.7804 24.9338C55.7804 24.5217 55.7804 24.1097 55.6774 23.8007H49.2908ZM96.057 25.2428C95.645 24.2127 94.6149 22.4616 92.3487 22.4616C90.0825 22.4616 88.2283 24.2127 88.2283 26.891C88.2283 29.3632 90.0825 31.3203 92.5547 31.3203C94.5119 31.3203 95.748 30.0842 96.16 29.3632L94.7179 28.3331C94.2028 29.0541 93.5848 29.5692 92.5547 29.5692C91.5246 29.5692 90.9065 29.1572 90.3915 28.2301L96.263 25.7578L96.057 25.2428ZM90.0825 26.6849C90.0825 25.0368 91.4216 24.1097 92.3487 24.1097C93.0697 24.1097 93.7908 24.5217 93.9968 25.0368L90.0825 26.6849ZM85.241 30.9083H87.1982V18.0322H85.241V30.9083ZM82.1508 23.3886C81.6357 22.8736 80.8116 22.3585 79.7815 22.3585C77.6184 22.3585 75.5582 24.3157 75.5582 26.7879C75.5582 29.2602 77.5153 31.1143 79.7815 31.1143C80.8116 31.1143 81.6357 30.5993 82.0477 30.0842H82.1508V30.7023C82.1508 32.3504 81.2237 33.2775 79.7815 33.2775C78.6484 33.2775 77.8244 32.4535 77.6183 31.7324L75.9702 32.4535C76.4852 33.5866 77.7214 35.0287 79.8846 35.0287C82.1508 35.0287 84.0049 33.6896 84.0049 30.4963V22.6676H82.1508V23.3886ZM79.8846 29.4662C78.5454 29.4662 77.4123 28.3331 77.4123 26.7879C77.4123 25.2428 78.5454 24.1097 79.8846 24.1097C81.2237 24.1097 82.2538 25.2428 82.2538 26.7879C82.2538 28.3331 81.2237 29.4662 79.8846 29.4662ZM105.019 18.0322H100.383V30.9083H102.341V26.0669H105.019C107.182 26.0669 109.242 24.5217 109.242 22.0495C109.242 19.5773 107.182 18.0322 105.019 18.0322ZM105.122 24.2127H102.341V19.7833H105.122C106.564 19.7833 107.388 21.0194 107.388 21.9465C107.285 23.0796 106.461 24.2127 105.122 24.2127ZM116.968 22.3585C115.526 22.3585 114.084 22.9766 113.569 24.3157L115.32 25.0368C115.732 24.3157 116.35 24.1097 117.071 24.1097C118.101 24.1097 119.028 24.7278 119.131 25.7578V25.8609C118.822 25.6548 117.998 25.3458 117.174 25.3458C115.32 25.3458 113.466 26.3759 113.466 28.2301C113.466 29.9812 115.011 31.1143 116.659 31.1143C117.998 31.1143 118.616 30.4963 119.131 29.8782H119.234V30.9083H121.088V25.9639C120.882 23.6977 119.131 22.3585 116.968 22.3585ZM116.762 29.4662C116.144 29.4662 115.217 29.1572 115.217 28.3331C115.217 27.303 116.35 26.994 117.277 26.994C118.101 26.994 118.513 27.2 119.028 27.406C118.822 28.6421 117.792 29.4662 116.762 29.4662ZM127.578 22.6676L125.415 28.2301H125.312L123.045 22.6676H120.985L124.385 30.4963L122.427 34.8227H124.385L129.638 22.6676H127.578ZM110.272 30.9083H112.229V18.0322H110.272V30.9083Z" fill="white"/>
<g id="Group">
<path id="Vector_5" d="M10.8691 7.73145C10.56 8.04047 10.457 8.55552 10.457 9.17357V31.9386C10.457 32.5567 10.663 33.0717 10.9721 33.3808L11.0751 33.4838L23.8482 20.7106V20.5046L10.8691 7.73145Z" fill="url(#paint0_linear_139_10654)"/>
<path id="Vector_6" d="M27.9695 25.037L23.7461 20.8137V20.5046L27.9695 16.2812L28.0725 16.3843L33.1199 19.2685C34.5621 20.0926 34.5621 21.4317 33.1199 22.2558L27.9695 25.037Z" fill="url(#paint1_linear_139_10654)"/>
<path id="Vector_7" d="M28.0736 24.9348L23.7473 20.6084L10.8711 33.4846C11.3861 33.9996 12.1072 33.9996 13.0343 33.5876L28.0736 24.9348Z" fill="url(#paint2_linear_139_10654)"/>
<path id="Vector_8" d="M28.0736 16.281L13.0343 7.7312C12.1072 7.21615 11.3861 7.31916 10.8711 7.83421L23.7473 20.6074L28.0736 16.281Z" fill="url(#paint3_linear_139_10654)"/>
<path id="Vector_9" opacity="0.2" d="M27.9706 24.832L13.0343 33.2788C12.2102 33.7938 11.4891 33.6908 10.9741 33.2788L10.8711 33.3818L10.9741 33.4848C11.4891 33.8968 12.2102 33.9999 13.0343 33.4848L27.9706 24.832Z" fill="black"/>
<path id="Vector_10" opacity="0.12" d="M10.8691 33.2785C10.56 32.9695 10.457 32.4545 10.457 31.8364V31.9394C10.457 32.5575 10.663 33.0725 10.9721 33.3816V33.2785H10.8691ZM33.1191 21.9475L27.9686 24.8318L28.0716 24.9348L33.1191 22.0505C33.8401 21.6385 34.1492 21.1234 34.1492 20.6084C34.1492 21.1234 33.7371 21.5355 33.1191 21.9475Z" fill="black"/>
<path id="Vector_11" opacity="0.25" d="M13.0323 7.8346L33.1191 19.2686C33.7371 19.6807 34.1492 20.0927 34.1492 20.6077C34.1492 20.0927 33.8401 19.5777 33.1191 19.1656L13.0323 7.73159C11.5901 6.90752 10.457 7.52557 10.457 9.17372V9.27673C10.457 7.73159 11.5901 7.01053 13.0323 7.8346Z" fill="white"/>
</g>
</g>
<defs>
<linearGradient id="paint0_linear_139_10654" x1="22.6121" y1="8.97786" x2="5.32408" y2="26.2649" gradientUnits="userSpaceOnUse">
<stop stopColor="#00A0FF"/>
<stop offset="0.007" stopColor="#00A1FF"/>
<stop offset="0.26" stopColor="#00BEFF"/>
<stop offset="0.512" stopColor="#00D2FF"/>
<stop offset="0.76" stopColor="#00DFFF"/>
<stop offset="1" stopColor="#00E3FF"/>
</linearGradient>
<linearGradient id="paint1_linear_139_10654" x1="35.0091" y1="20.6087" x2="10.084" y2="20.6087" gradientUnits="userSpaceOnUse">
<stop stopColor="#FFE000"/>
<stop offset="0.409" stopColor="#FFBD00"/>
<stop offset="0.775" stopColor="#FFA500"/>
<stop offset="1" stopColor="#FF9C00"/>
</linearGradient>
<linearGradient id="paint2_linear_139_10654" x1="25.7322" y1="22.9735" x2="2.28939" y2="46.4163" gradientUnits="userSpaceOnUse">
<stop stopColor="#FF3A44"/>
<stop offset="1" stopColor="#C31162"/>
</linearGradient>
<linearGradient id="paint3_linear_139_10654" x1="7.67472" y1="0.186796" x2="18.1435" y2="10.6556" gradientUnits="userSpaceOnUse">
<stop stopColor="#32A071"/>
<stop offset="0.069" stopColor="#2DA771"/>
<stop offset="0.476" stopColor="#15CF74"/>
<stop offset="0.801" stopColor="#06E775"/>
<stop offset="1" stopColor="#00F076"/>
</linearGradient>
</defs>
</svg>
