<svg width="300" height="247" viewBox="0 0 300 247" fill="none" xmlns="http://www.w3.org/2000/svg">
<path d="M145.7 236.027C182.842 236.027 212.953 205.917 212.953 168.774C212.953 131.631 182.842 101.521 145.7 101.521C108.557 101.521 78.4473 131.631 78.4473 168.774C78.4473 205.917 108.557 236.027 145.7 236.027Z" fill="#3F9AB2"/>
<path d="M178.824 140.388C179.672 141.082 167.11 157.985 150.772 178.125L140.856 190.147L139.495 191.791L138.056 190.301C125.212 177.123 116.555 167.361 117.172 166.745C117.788 166.128 127.575 174.837 140.728 187.604L137.954 187.886L147.664 175.736C164.002 155.467 177.951 139.695 178.824 140.388Z" fill="white"/>
<path d="M241.245 141.647C239.241 134.583 230.07 135.276 230.07 135.276L230.302 140.183C235.619 139.258 238.907 145.475 238.907 145.475L241.245 141.647Z" fill="#3F9AB2"/>
<path d="M46.4128 156.494C44.4348 149.43 35.2383 150.098 35.2383 150.098L35.4951 155.03C40.8127 154.105 44.1008 160.322 44.1008 160.322L46.4128 156.494Z" fill="#E0E0E0"/>
<path d="M153.722 58.7503C164.383 61.987 171.011 49.7079 171.011 49.7079L164.537 46.0088C161.352 53.5355 150.717 52.6621 150.717 52.6621L153.722 58.7503Z" fill="#E0E0E0"/>
<path d="M94.6132 71.9795C89.6553 72.519 89.0645 78.7356 89.0645 78.7356L92.3783 79.1209C92.3783 75.4731 96.9251 73.9832 96.9251 73.9832L94.6132 71.9795Z" fill="#3F9AB2"/>
<path d="M298.931 117.5C299.65 112.568 293.793 110.436 293.793 110.436L292.586 113.544C296.131 114.443 296.465 119.221 296.465 119.221L298.931 117.5Z" fill="#E0E0E0"/>
<path d="M123.536 7.06435C124.256 2.13215 118.399 0 118.399 0L117.191 3.13401C120.736 4.03311 121.07 8.78548 121.07 8.78548L123.536 7.06435Z" fill="#3F9AB2"/>
<path d="M1.05293 86.6215C0.179524 94.3281 10.4036 96.229 10.4036 96.229L12.2531 91.0913C6.11358 90.5262 5.24014 83.3848 5.24014 83.3848L1.05293 86.6215Z" fill="#3F9AB2"/>
<path d="M229.062 58.595C234.045 58.8776 235.638 52.8408 235.638 52.8408L232.427 51.916C231.836 55.5124 227.109 56.2573 227.109 56.2573L229.062 58.595Z" fill="#3F9AB2"/>
<path d="M256.271 78.8886C254.935 79.2631 253.543 79.3936 252.161 79.2739C250.779 79.3965 249.386 79.2659 248.051 78.8886C250.763 78.3405 253.558 78.3405 256.271 78.8886Z" fill="#E0E0E0"/>
<path d="M260.634 67.7148C261.148 70.4654 261.148 73.2874 260.634 76.0379C260.086 73.2907 260.086 70.4621 260.634 67.7148Z" fill="#E0E0E0"/>
<path d="M265.262 78.6067C266.597 78.2322 267.99 78.1016 269.372 78.2214C270.754 78.0988 272.147 78.2294 273.482 78.6067C270.769 79.1548 267.974 79.1548 265.262 78.6067Z" fill="#E0E0E0"/>
<path d="M260.915 89.8068C260.367 87.0509 260.367 84.2139 260.915 81.458C261.429 84.2172 261.429 87.0476 260.915 89.8068Z" fill="#E0E0E0"/>
<path d="M267.545 85.1311C267.391 85.2595 266.594 84.5916 265.772 83.6411C264.95 82.6906 264.462 81.7659 264.616 81.6374C264.77 81.509 265.592 82.1512 266.389 83.1274C267.185 84.1035 267.725 84.8485 267.545 85.1311Z" fill="#E0E0E0"/>
<path d="M267.165 72.2881C267.319 72.4679 266.78 73.2643 265.932 74.112C265.084 74.9597 264.288 75.5248 264.134 75.3707C263.98 75.2166 264.519 74.3946 265.367 73.5468C266.214 72.6991 267.011 72.2881 267.165 72.2881Z" fill="#E0E0E0"/>
<path d="M257.758 75.5499C257.604 75.7297 256.834 75.3187 256.037 74.6508C255.241 73.9829 254.727 73.315 254.856 73.1609C254.984 73.0067 255.755 73.392 256.551 74.0343C257.347 74.6765 257.887 75.3958 257.758 75.5499Z" fill="#E0E0E0"/>
<path d="M257.372 81.1504C257.552 81.2788 257.064 82.0752 256.293 82.9229C255.522 83.7706 254.777 84.3101 254.623 84.1559C254.469 84.0018 254.932 83.2054 255.702 82.3834C256.473 81.5614 257.218 80.9962 257.372 81.1504Z" fill="#E0E0E0"/>
<path d="M32.4703 55.9749C29.7576 56.5229 26.9627 56.5229 24.25 55.9749C25.5857 55.6003 26.9781 55.4698 28.3601 55.5896C29.7422 55.4669 31.1351 55.5975 32.4703 55.9749Z" fill="#3F9AB2"/>
<path d="M36.833 44.8008C37.3811 47.5567 37.3811 50.3936 36.833 53.1496C36.2848 50.3936 36.2848 47.5567 36.833 44.8008Z" fill="#3F9AB2"/>
<path d="M41.4805 55.7177C44.1932 55.1696 46.9881 55.1696 49.7008 55.7177C46.9881 56.2657 44.1932 56.2657 41.4805 55.7177Z" fill="#3F9AB2"/>
<path d="M37.1142 66.8924C36.5661 64.1451 36.5661 61.3166 37.1142 58.5693C37.6623 61.3166 37.6623 64.1451 37.1142 66.8924Z" fill="#3F9AB2"/>
<path d="M43.7698 62.0122C43.59 62.1663 42.7936 61.4984 41.9973 60.5223C41.201 59.5461 40.6615 58.6727 40.8413 58.5186C41.0211 58.3644 41.7918 59.058 42.6138 60.0085C43.4359 60.959 43.9239 62.0122 43.7698 62.0122Z" fill="#3F9AB2"/>
<path d="M43.3934 49.4248C43.5476 49.579 42.9824 50.401 42.1604 51.2487C41.3384 52.0964 40.5163 52.6359 40.3622 52.4817C40.208 52.3276 40.7475 51.5313 41.5953 50.6836C42.443 49.8358 43.2393 49.168 43.3934 49.4248Z" fill="#3F9AB2"/>
<path d="M33.9562 52.6611C33.8278 52.8153 33.0571 52.4299 32.2607 51.762C31.4644 51.0941 30.9249 50.4262 31.0791 50.2464C31.2332 50.0666 31.9782 50.4776 32.7745 51.1455C33.5709 51.8134 34.1103 52.4813 33.9562 52.6611Z" fill="#3F9AB2"/>
<path d="M33.5936 58.2364C33.7477 58.3906 33.2597 59.1869 32.5147 60.0346C31.7697 60.8823 30.9991 61.4218 30.8192 61.2677C30.6394 61.1136 31.1532 60.3172 31.8982 59.4952C32.6431 58.6732 33.4138 58.0823 33.5936 58.2364Z" fill="#3F9AB2"/>
<ellipse cx="149.996" cy="241.026" rx="81.5" ry="5" fill="url(#paint0_radial_190_32420)"/>
<defs>
<radialGradient id="paint0_radial_190_32420" cx="0" cy="0" r="1" gradientUnits="userSpaceOnUse" gradientTransform="translate(149.996 241.026) scale(81.5 5)">
<stop stopColor="#0F819F" stopOpacity="0.2"/>
<stop offset="1" stopColor="#0F819F" stopOpacity="0"/>
</radialGradient>
</defs>
</svg>
