<svg width="50" height="50" viewBox="0 0 50 50" fill="none" xmlns="http://www.w3.org/2000/svg">
<g clipPath="url(#clip0_1119_1039)">
<path opacity="0.968" fillRule="evenodd" clipRule="evenodd" d="M49.9531 42.1385C49.9531 43.4405 49.9531 44.7427 49.9531 46.0447C49.8734 46.2053 49.7432 46.3191 49.5625 46.3865C33.1562 46.4517 16.75 46.4517 0.34375 46.3865C0.163063 46.3191 0.032855 46.2053 -0.046875 46.0447C-0.046875 44.7427 -0.046875 43.4405 -0.046875 42.1385C2.63223 38.1656 5.3015 34.178 7.96094 30.1756C11.3381 30.0467 14.7234 29.9816 18.1172 29.9803C15.87 27.1634 14.1936 24.0221 13.0879 20.5564C11.6531 15.914 12.4018 11.6822 15.334 7.86114C18.9194 3.96457 23.2978 2.64621 28.4688 3.90606C33.5584 5.61013 36.5369 9.10948 37.4043 14.4041C37.655 17.5779 37.1016 20.6053 35.7441 23.4861C34.6584 25.8053 33.34 27.9699 31.7891 29.9803C35.1828 29.9816 38.5682 30.0467 41.9453 30.1756C44.6048 34.178 47.274 38.1656 49.9531 42.1385ZM24.8555 5.02911C28.8648 5.1694 31.9735 6.89466 34.1816 10.2049C35.5508 12.4595 36.0716 14.9009 35.7441 17.5291C35.3256 20.0868 34.4792 22.4957 33.2051 24.7557C30.9898 28.6167 28.2393 32.0673 24.9531 35.1072C21.063 31.5273 17.9543 27.3607 15.627 22.6072C14.3145 19.8431 13.8587 16.946 14.2598 13.9158C15.3828 9.27715 18.2637 6.39629 22.9023 5.27325C23.5672 5.18699 24.2183 5.10561 24.8555 5.02911ZM9.03516 31.5916C12.4858 31.5753 15.9363 31.5916 19.3867 31.6404C20.0014 32.418 20.6523 33.1667 21.3398 33.8865C19.6797 33.9191 18.0195 33.9517 16.3594 33.9842C16.2081 34.1027 16.0942 34.2492 16.0176 34.4236C15.6595 35.6607 15.3015 36.8976 14.9434 38.1346C14.8782 38.4275 14.8782 38.7205 14.9434 39.0135C15.0247 39.16 15.1387 39.2739 15.2852 39.3553C21.767 39.4363 28.2448 39.42 34.7188 39.3064C35.0014 38.9676 35.0827 38.577 34.9629 38.1346C34.6048 36.8976 34.2468 35.6607 33.8887 34.4236C33.812 34.2492 33.6981 34.1027 33.5469 33.9842C31.8867 33.9517 30.2266 33.9191 28.5664 33.8865C29.2539 33.1667 29.9049 32.418 30.5195 31.6404C32.375 31.5753 34.2305 31.5753 36.0859 31.6404C36.9398 33.4134 37.8187 35.1712 38.7227 36.9139C40.6679 37.0256 42.621 37.1069 44.582 37.158C44.8885 37.6435 45.2141 38.1154 45.5586 38.574C43.7594 38.5766 41.969 38.6416 40.1875 38.7693C40.0619 38.9668 39.9643 39.1784 39.8945 39.4041C40.1867 40.2 40.5447 40.9649 40.9688 41.699C30.2917 41.7642 19.6146 41.7642 8.9375 41.699C10.1629 39.26 11.3511 36.8023 12.502 34.326C12.6429 33.8658 12.529 33.4915 12.1602 33.2029C10.7918 33.1866 9.42462 33.1378 8.05859 33.0565C8.38664 32.5664 8.71216 32.0781 9.03516 31.5916ZM38.0391 31.5916C38.9836 31.5754 39.9276 31.5916 40.8711 31.6404C41.7365 32.8804 42.5829 34.1336 43.4102 35.4002C42.2058 35.5304 41.0013 35.5304 39.7969 35.4002C39.1831 34.1402 38.5972 32.8707 38.0391 31.5916ZM6.88672 34.7166C8.0604 34.6842 9.23228 34.7167 10.4023 34.8143C9.30243 37.0887 8.21194 39.3674 7.13086 41.6502C5.52677 41.7633 3.91544 41.7795 2.29688 41.699C3.85109 39.3814 5.38104 37.0538 6.88672 34.7166ZM17.4336 35.4979C19.2568 35.4815 21.0797 35.4979 22.9023 35.5467C23.42 35.9666 23.9083 36.4223 24.3672 36.9139C24.7578 37.1092 25.1484 37.1092 25.5391 36.9139C25.9979 36.4223 26.4862 35.9666 27.0039 35.5467C28.8277 35.4653 30.6506 35.4816 32.4727 35.5955C32.6782 36.337 32.9062 37.0694 33.1562 37.7928C27.6875 37.8579 22.2188 37.8579 16.75 37.7928C17.0155 37.0399 17.2435 36.275 17.4336 35.4979ZM42.1406 40.1854C43.6384 40.169 45.1357 40.1854 46.6328 40.2342C46.9583 40.7225 47.2839 41.2107 47.6094 41.699C46.0144 41.7642 44.4192 41.7642 42.8242 41.699C42.5291 41.2229 42.3012 40.7183 42.1406 40.1854ZM1.51562 43.3104C17.1406 43.3104 32.7656 43.3104 48.3906 43.3104C48.3906 43.8312 48.3906 44.3521 48.3906 44.8729C32.7656 44.8729 17.1406 44.8729 1.51562 44.8729C1.51562 44.3521 1.51562 43.8312 1.51562 43.3104Z" fill="#0F819F"/>
<path opacity="0.936" fillRule="evenodd" clipRule="evenodd" d="M24.5586 9.71692C25.0349 9.64977 25.458 9.7637 25.8281 10.0587C27.5362 11.3197 29.2615 12.5567 31.0039 13.7697C31.137 13.9596 31.2185 14.1712 31.2481 14.4044C31.3409 16.3626 31.3084 18.3157 31.1504 20.2638C31.0039 20.4754 30.8249 20.6544 30.6133 20.8009C29.0011 21.9162 27.406 23.0556 25.8281 24.2189C25.3799 24.5801 24.8916 24.6451 24.3633 24.4142C22.4617 23.0653 20.59 21.6819 18.7481 20.2638C18.7156 20.1336 18.6829 20.0033 18.6504 19.8732C18.5853 18.0502 18.5853 16.2274 18.6504 14.4044C18.6856 14.1986 18.7507 14.0032 18.8457 13.8185C20.7652 12.4612 22.6695 11.094 24.5586 9.71692ZM24.8516 11.5724C23.5675 12.4917 22.298 13.4358 21.043 14.4044C22.3069 15.395 23.6089 16.3391 24.9492 17.2364C26.2896 16.3391 27.5916 15.395 28.8555 14.4044C27.6671 13.4935 26.4627 12.5984 25.2422 11.7189C25.1206 11.6416 24.9905 11.5928 24.8516 11.5724ZM20.2617 16.0646C20.2454 17.1718 20.2617 18.2786 20.3106 19.3849C21.5501 20.3153 22.8034 21.2267 24.0703 22.1193C24.1842 21.0139 24.2004 19.9072 24.1192 18.7989C22.8705 17.8257 21.5847 16.9142 20.2617 16.0646ZM29.4414 16.0646C28.2386 16.9894 27.0179 17.9008 25.7793 18.7989C25.6981 19.9072 25.7143 21.0139 25.8281 22.1193C27.095 21.2267 28.3484 20.3153 29.5879 19.3849C29.6042 18.8315 29.6204 18.2781 29.6367 17.7247C29.6364 17.1347 29.5712 16.5814 29.4414 16.0646Z" fill="#808282"/>
</g>
<defs>
<clipPath id="clip0_1119_1039">
<rect width="50" height="50" fill="white"/>
</clipPath>
</defs>
</svg>
