<svg width="50" height="50" viewBox="0 0 50 50" fill="none" xmlns="http://www.w3.org/2000/svg">
<path opacity="0.916" fillRule="evenodd" clipRule="evenodd" d="M23.485 1.41597C23.8482 1.36738 24.1738 1.44876 24.4616 1.66011C26.5631 3.51752 28.679 5.35672 30.8093 7.17768C30.8906 6.00717 30.9394 4.83529 30.9557 3.66206C31.0011 3.52233 31.0826 3.4084 31.1999 3.32026C33.8041 3.25515 36.4082 3.25515 39.0124 3.32026C39.0937 3.40164 39.1752 3.48303 39.2565 3.5644C39.2728 7.24322 39.3217 10.9216 39.403 14.5996C41.1264 16.0788 42.8354 17.5761 44.53 19.0917C45.0007 20.0564 44.7565 20.7563 43.7975 21.1914C42.5284 21.2402 41.2589 21.2565 39.9889 21.2402C39.9726 26.3184 39.9889 31.3965 40.0378 36.4746C42.2187 38.6555 44.3998 40.8366 46.5807 43.0175C47.1912 44.0816 47.1586 45.1233 46.4831 46.1425C45.8483 46.7773 45.2136 47.4121 44.5788 48.0468C43.5308 48.6292 42.4891 48.6292 41.4538 48.0468C39.2077 45.8007 36.9616 43.5546 34.7155 41.3085C26.2519 41.276 17.7885 41.2434 9.32488 41.2109C8.53572 41.0206 7.99861 40.5486 7.71355 39.7949C7.66472 33.6101 7.64844 27.4251 7.66472 21.2402C6.29041 21.2838 4.92323 21.235 3.56316 21.0937C2.85085 20.5597 2.70437 19.8924 3.12371 19.0917C9.92693 13.2096 16.714 7.3177 23.485 1.41597ZM23.778 2.88081C26.2319 4.95994 28.6733 7.05955 31.1022 9.17964C31.4819 9.39668 31.8237 9.34785 32.1276 9.03315C32.1764 7.53611 32.1927 6.03872 32.1764 4.54097C34.1296 4.54097 36.0827 4.54097 38.0358 4.54097C38.0195 8.05674 38.0358 11.5724 38.0846 15.0878C39.8863 16.6936 41.6929 18.3049 43.5046 19.9218C42.0397 19.9543 40.5749 19.987 39.11 20.0195C38.916 20.1483 38.802 20.3273 38.7682 20.5566C38.7519 25.4397 38.7031 30.3225 38.6218 35.205C37.9892 34.934 37.3382 34.8527 36.6686 34.9609C35.6879 34.0128 34.7439 33.0363 33.8366 32.0312C36.2713 27.9354 36.4178 23.7525 34.2761 19.4824C32.1338 15.945 28.9925 13.943 24.8522 13.4765C19.7564 13.2812 15.899 15.3483 13.28 19.6777C11.1966 24.0069 11.4244 28.2061 13.9635 32.2753C16.7914 36.0081 20.5511 37.6844 25.2428 37.3046C27.1917 37.0786 28.9657 36.4112 30.5651 35.3027C31.5092 36.2467 32.4531 37.1907 33.3971 38.1347C33.4297 38.623 33.4623 39.1113 33.4948 39.5996C33.525 39.7232 33.5738 39.8372 33.6413 39.9414C25.601 40.0065 17.5605 40.0065 9.52019 39.9414C9.27045 39.8745 9.09142 39.728 8.98308 39.5019C8.95053 33.1868 8.91797 26.8717 8.88542 20.5566C8.85165 20.3273 8.73772 20.1483 8.54363 20.0195C7.07878 19.987 5.61394 19.9543 4.1491 19.9218C10.682 14.2182 17.225 8.53788 23.778 2.88081ZM22.8991 14.6972C27.3446 14.5513 30.7463 16.3417 33.1042 20.0683C35.2665 24.3108 34.941 28.3473 32.1276 32.1777C29.1551 35.5555 25.4604 36.7437 21.0436 35.7421C16.5753 34.3003 13.9548 31.2568 13.1823 26.6113C12.8996 22.0495 14.6737 18.5501 18.5046 16.1132C19.8961 15.3726 21.3609 14.9005 22.8991 14.6972ZM32.9577 33.1542C33.8345 33.966 34.6809 34.8124 35.4968 35.6933C35.0751 36.1639 34.6356 36.6196 34.1784 37.0605C33.3306 36.2291 32.5006 35.3827 31.6882 34.5214C32.1135 34.0637 32.5366 33.608 32.9577 33.1542ZM37.1569 36.1816C37.637 36.1611 38.0601 36.3076 38.4264 36.621C40.8544 39.0164 43.2469 41.4415 45.6042 43.8964C45.808 44.3671 45.7755 44.8229 45.5065 45.2636C44.9043 45.8659 44.3021 46.468 43.6999 47.0703C43.1079 47.3074 42.5546 47.2422 42.0397 46.875C39.6118 44.4796 37.2192 42.0545 34.862 39.5996C34.6503 39.0959 34.6828 38.6077 34.9596 38.1347C35.6261 37.3855 36.3586 36.7344 37.1569 36.1816Z" fill="#0F819F"/>
<path opacity="0.908" fillRule="evenodd" clipRule="evenodd" d="M23.2918 16.4551C27.3316 16.4472 30.245 18.2375 32.032 21.8262C33.5125 25.8813 32.6824 29.3806 29.5418 32.3242C26.4244 34.6119 23.1041 34.9374 19.5808 33.3008C15.5821 30.7797 14.1661 27.2153 15.3328 22.6074C16.7468 18.9471 19.3999 16.8963 23.2918 16.4551ZM23.2918 17.7246C21.2333 17.9646 19.4917 18.8435 18.0672 20.3614C15.886 23.1311 15.593 26.0933 17.1882 29.2481C19.4463 32.5815 22.5224 33.7045 26.4168 32.6172C30.5011 30.7473 32.0799 27.606 31.1531 23.1934C29.7831 19.5963 27.1627 17.7734 23.2918 17.7246Z" fill="#808282"/>
<path opacity="0.888" fillRule="evenodd" clipRule="evenodd" d="M28.3699 21.7286C29.1483 21.7227 29.3924 22.0808 29.1024 22.8028C27.0353 24.8699 24.9683 26.9369 22.9012 29.004C22.5951 29.0811 22.3022 29.0486 22.0223 28.9063C20.7986 27.7153 19.6106 26.4946 18.4578 25.2442C18.3639 24.5328 18.6732 24.2561 19.3856 24.4141C20.4123 25.4572 21.454 26.4826 22.5106 27.4903C24.4684 25.565 26.4215 23.6444 28.3699 21.7286Z" fill="#808282"/>
</svg>
