<svg width="50" height="50" viewBox="0 0 50 50" fill="none" xmlns="http://www.w3.org/2000/svg">
<path opacity="0.945" fillRule="evenodd" clipRule="evenodd" d="M27.2963 4.05303C29.9996 3.92892 32.4085 4.6939 34.5229 6.34795C37.8152 9.51766 38.3523 13.1147 36.1342 17.139C33.8347 21.4158 31.1492 25.4197 28.0776 29.1507C25.006 25.4197 22.3204 21.4158 20.0209 17.139C17.6055 12.4949 18.5007 8.6375 22.7065 5.5667C24.1401 4.73617 25.67 4.23161 27.2963 4.05303ZM27.9799 6.20147C30.5228 6.26044 32.5899 7.26956 34.1811 9.22881C35.4243 10.9757 35.6196 12.8312 34.767 14.7952C32.9429 18.6485 30.713 22.2292 28.0776 25.5374C25.4387 22.2271 23.2089 18.6463 21.3881 14.7952C20.336 11.1203 21.5567 8.46735 25.0502 6.83624C26.0098 6.47853 26.9864 6.26694 27.9799 6.20147Z" fill="#808282"/>
<path opacity="0.946" fillRule="evenodd" clipRule="evenodd" d="M27.2954 8.25176C30.9239 8.16978 32.9422 9.92754 33.3501 13.5252C33.1376 16.2602 31.7053 17.9691 29.0532 18.6522C25.953 18.9662 23.9185 17.6479 22.9497 14.6971C22.5297 11.2693 23.9783 9.12092 27.2954 8.25176ZM27.686 10.4002C26.3838 10.6762 25.5212 11.4574 25.0982 12.744C24.8469 14.667 25.6444 15.9202 27.4907 16.5037C29.2922 16.6857 30.4804 15.9206 31.0552 14.2088C31.2287 11.7943 30.1057 10.5248 27.686 10.4002Z" fill="#808282"/>
<path opacity="0.944" fillRule="evenodd" clipRule="evenodd" d="M20.6532 20.5566C21.1744 21.092 21.6627 21.6617 22.1181 22.2656C21.1433 23.0464 20.1016 23.73 18.9931 24.3164C18.3936 24.5705 17.7751 24.7658 17.1376 24.9023C15.0101 25.1242 12.8942 25.4172 10.79 25.7812C10.4162 25.9518 10.0582 26.1471 9.71574 26.3672C8.76764 27.4127 7.85618 28.4869 6.98137 29.5898C11.2946 34.0332 15.6076 38.4766 19.9208 42.9199C21.2804 41.939 22.6314 40.9462 23.9736 39.9414C25.1388 39.2126 26.4083 38.7895 27.7821 38.6719C29.6701 38.6394 31.5582 38.6067 33.4462 38.5742C34.4942 38.384 35.3568 37.8794 36.0341 37.0605C36.7841 35.7083 37.7118 34.4876 38.8173 33.3984C39.354 33.016 39.9074 32.658 40.4775 32.3242C41.6033 31.9058 42.7101 31.4501 43.7978 30.957C40.5822 28.1202 37.3758 25.2719 34.1786 22.4121C34.1378 22.1887 34.2029 21.9934 34.3739 21.8262C34.732 21.403 35.0901 20.9798 35.4482 20.5566C38.852 23.5611 42.2374 26.5885 45.6044 29.6387C46.3026 30.8152 46.1561 31.8732 45.165 32.8125C44.1017 33.2627 43.0275 33.6859 41.9423 34.082C40.8205 34.5695 39.8928 35.302 39.1591 36.2793C38.5158 37.451 37.7184 38.5089 36.7665 39.4531C35.9284 40.1019 34.9844 40.525 33.9345 40.7227C32.1115 40.7552 30.2887 40.7878 28.4657 40.8203C27.3516 40.8554 26.3099 41.1483 25.3407 41.6992C23.8759 42.7734 22.4111 43.8477 20.9462 44.9219C20.181 45.2637 19.4323 45.2311 18.7001 44.8242C14.091 40.1176 9.51746 35.3813 4.97941 30.6152C4.63336 29.8808 4.66591 29.1646 5.07707 28.4668C6.06164 27.1562 7.11959 25.903 8.2509 24.707C9.08436 24.0463 10.0283 23.6231 11.0829 23.4375C13.2121 23.2299 15.328 22.9369 17.4306 22.5586C18.6063 22.0368 19.6805 21.3695 20.6532 20.5566Z" fill="#0F819F"/>
</svg>
