<svg width="50" height="50" viewBox="0 0 50 50" fill="none" xmlns="http://www.w3.org/2000/svg">
<path opacity="0.987" fillRule="evenodd" clipRule="evenodd" d="M6.58984 6.20091C9.33094 5.87067 11.4957 6.81468 13.084 9.03294C13.5977 9.84173 13.9069 10.7206 14.0117 11.6697C25.47 11.6697 36.9284 11.6697 48.3867 11.6697C48.3867 22.3467 48.3867 33.0239 48.3867 43.7009C34.4869 43.7172 20.5872 43.7009 6.6875 43.6521C3.42637 42.8923 1.66855 40.8415 1.41406 37.4997C1.49531 28.7663 1.54414 20.0261 1.56055 11.279C2.213 8.55957 3.88943 6.86686 6.58984 6.20091ZM6.88281 7.86107C9.68685 7.65562 11.4935 8.8926 12.3027 11.572C12.4627 18.7639 12.4953 25.9579 12.4004 33.154C10.4396 31.2511 8.14476 30.714 5.51562 31.5427C4.61181 31.9214 3.81429 32.4585 3.12305 33.154C3.02816 25.9579 3.06071 18.7639 3.2207 11.572C3.74305 9.6337 4.96375 8.39673 6.88281 7.86107ZM14.0117 13.2322C24.9492 13.2322 35.8867 13.2322 46.8242 13.2322C46.8242 22.8676 46.8242 32.503 46.8242 42.1384C33.5084 42.1858 20.1946 42.1369 6.88281 41.9919C4.18972 41.1859 2.96901 39.3792 3.2207 36.572C4.04201 33.8318 5.8812 32.6111 8.73828 32.9099C11.0176 33.577 12.2221 35.0907 12.3516 37.4509C12.905 37.4509 13.4583 37.4509 14.0117 37.4509C14.0117 29.378 14.0117 21.3051 14.0117 13.2322Z" fill="#0F819F"/>
<path fillRule="evenodd" clipRule="evenodd" d="M23.3906 14.7949C26.5156 14.7949 29.6406 14.7949 32.7656 14.7949C32.7656 15.8366 32.7656 16.8782 32.7656 17.9199C33.5469 17.9199 34.3281 17.9199 35.1094 17.9199C35.1094 23.3887 35.1094 28.8574 35.1094 34.3262C36.1511 34.3262 37.1927 34.3262 38.2344 34.3262C38.2344 34.847 38.2344 35.3679 38.2344 35.8887C36.6719 35.8887 35.1094 35.8887 33.5469 35.8887C33.5469 30.4199 33.5469 24.9512 33.5469 19.4824C29.9011 19.4824 26.2552 19.4824 22.6094 19.4824C22.6094 24.9512 22.6094 30.4199 22.6094 35.8887C21.0469 35.8887 19.4844 35.8887 17.9219 35.8887C17.9219 35.3679 17.9219 34.847 17.9219 34.3262C18.9636 34.3262 20.0052 34.3262 21.0469 34.3262C21.0469 28.8574 21.0469 23.3887 21.0469 17.9199C21.8281 17.9199 22.6094 17.9199 23.3906 17.9199C23.3906 16.8782 23.3906 15.8366 23.3906 14.7949ZM24.9531 16.3574C24.9531 16.8782 24.9531 17.3991 24.9531 17.9199C27.0364 17.9199 29.1198 17.9199 31.2031 17.9199C31.2031 17.3991 31.2031 16.8782 31.2031 16.3574C29.1198 16.3574 27.0364 16.3574 24.9531 16.3574Z" fill="#808282"/>
<path fillRule="evenodd" clipRule="evenodd" d="M40.5781 14.7949C41.3594 14.7949 42.1406 14.7949 42.9219 14.7949C42.9219 21.8262 42.9219 28.8574 42.9219 35.8887C42.1406 35.8887 41.3594 35.8887 40.5781 35.8887C40.5781 35.3679 40.5781 34.847 40.5781 34.3262C40.8386 34.3262 41.0989 34.3262 41.3594 34.3262C41.3594 28.3366 41.3594 22.347 41.3594 16.3574C41.0989 16.3574 40.8386 16.3574 40.5781 16.3574C40.5781 15.8366 40.5781 15.3157 40.5781 14.7949Z" fill="#808282"/>
<path fillRule="evenodd" clipRule="evenodd" d="M24.1719 21.0449C24.6927 21.0449 25.2136 21.0449 25.7344 21.0449C25.7344 21.5657 25.7344 22.0866 25.7344 22.6074C25.2136 22.6074 24.6927 22.6074 24.1719 22.6074C24.1719 22.0866 24.1719 21.5657 24.1719 21.0449Z" fill="#0F819F"/>
<path fillRule="evenodd" clipRule="evenodd" d="M27.2969 21.0449C27.8177 21.0449 28.3386 21.0449 28.8594 21.0449C28.8594 21.5657 28.8594 22.0866 28.8594 22.6074C28.3386 22.6074 27.8177 22.6074 27.2969 22.6074C27.2969 22.0866 27.2969 21.5657 27.2969 21.0449Z" fill="#0F819F"/>
<path fillRule="evenodd" clipRule="evenodd" d="M30.4219 21.0449C30.9427 21.0449 31.4636 21.0449 31.9844 21.0449C31.9844 21.5657 31.9844 22.0866 31.9844 22.6074C31.4636 22.6074 30.9427 22.6074 30.4219 22.6074C30.4219 22.0866 30.4219 21.5657 30.4219 21.0449Z" fill="#0F819F"/>
<path fillRule="evenodd" clipRule="evenodd" d="M24.1719 24.1699C24.6927 24.1699 25.2136 24.1699 25.7344 24.1699C25.7344 24.6907 25.7344 25.2116 25.7344 25.7324C25.2136 25.7324 24.6927 25.7324 24.1719 25.7324C24.1719 25.2116 24.1719 24.6907 24.1719 24.1699Z" fill="#0F819F"/>
<path fillRule="evenodd" clipRule="evenodd" d="M27.2969 24.1699C27.8177 24.1699 28.3386 24.1699 28.8594 24.1699C28.8594 24.6907 28.8594 25.2116 28.8594 25.7324C28.3386 25.7324 27.8177 25.7324 27.2969 25.7324C27.2969 25.2116 27.2969 24.6907 27.2969 24.1699Z" fill="#0F819F"/>
<path fillRule="evenodd" clipRule="evenodd" d="M30.4219 24.1699C30.9427 24.1699 31.4636 24.1699 31.9844 24.1699C31.9844 24.6907 31.9844 25.2116 31.9844 25.7324C31.4636 25.7324 30.9427 25.7324 30.4219 25.7324C30.4219 25.2116 30.4219 24.6907 30.4219 24.1699Z" fill="#0F819F"/>
<path fillRule="evenodd" clipRule="evenodd" d="M24.1719 27.2949C24.6927 27.2949 25.2136 27.2949 25.7344 27.2949C25.7344 27.8157 25.7344 28.3366 25.7344 28.8574C25.2136 28.8574 24.6927 28.8574 24.1719 28.8574C24.1719 28.3366 24.1719 27.8157 24.1719 27.2949Z" fill="#0F819F"/>
<path fillRule="evenodd" clipRule="evenodd" d="M27.2969 27.2949C27.8177 27.2949 28.3386 27.2949 28.8594 27.2949C28.8594 27.8157 28.8594 28.3366 28.8594 28.8574C28.3386 28.8574 27.8177 28.8574 27.2969 28.8574C27.2969 28.3366 27.2969 27.8157 27.2969 27.2949Z" fill="#0F819F"/>
<path fillRule="evenodd" clipRule="evenodd" d="M30.4219 27.2949C30.9427 27.2949 31.4636 27.2949 31.9844 27.2949C31.9844 27.8157 31.9844 28.3366 31.9844 28.8574C31.4636 28.8574 30.9427 28.8574 30.4219 28.8574C30.4219 28.3366 30.4219 27.8157 30.4219 27.2949Z" fill="#0F819F"/>
<path fillRule="evenodd" clipRule="evenodd" d="M24.9531 30.4199C27.0364 30.4199 29.1198 30.4199 31.2031 30.4199C31.2031 32.2429 31.2031 34.0657 31.2031 35.8887C30.6823 35.8887 30.1614 35.8887 29.6406 35.8887C29.6406 34.5866 29.6406 33.2845 29.6406 31.9824C28.5989 31.9824 27.5573 31.9824 26.5156 31.9824C26.5156 33.2845 26.5156 34.5866 26.5156 35.8887C25.9948 35.8887 25.4739 35.8887 24.9531 35.8887C24.9531 34.0657 24.9531 32.2429 24.9531 30.4199Z" fill="#808282"/>
<path fillRule="evenodd" clipRule="evenodd" d="M21.0469 38.2324C21.5677 38.2324 22.0886 38.2324 22.6094 38.2324C22.6094 38.4929 22.6094 38.7532 22.6094 39.0137C26.2552 39.0137 29.9011 39.0137 33.5469 39.0137C33.5469 38.7532 33.5469 38.4929 33.5469 38.2324C34.0677 38.2324 34.5886 38.2324 35.1094 38.2324C35.1094 39.0137 35.1094 39.7949 35.1094 40.5762C30.4219 40.5762 25.7344 40.5762 21.0469 40.5762C21.0469 39.7949 21.0469 39.0137 21.0469 38.2324Z" fill="#808282"/>
</svg>
