<svg width="50" height="50" viewBox="0 0 50 50" fill="none" xmlns="http://www.w3.org/2000/svg">
<path opacity="0.916" fillRule="evenodd" clipRule="evenodd" d="M5.32415 3.76001C14.0157 3.74373 22.7071 3.76001 31.3984 3.80884C32.706 4.10727 33.5361 4.90479 33.8886 6.20142C33.9537 7.30818 33.9537 8.41496 33.8886 9.52173C33.5382 9.90191 33.1802 9.90191 32.8144 9.52173C32.8053 8.44189 32.7402 7.36767 32.6191 6.29907C32.2745 5.56349 31.7049 5.12403 30.9101 4.98071C22.5442 4.91561 14.1783 4.91561 5.81243 4.98071C4.92793 5.18156 4.35827 5.71867 4.10345 6.59204C4.05462 18.0503 4.03834 29.5086 4.05462 40.967C7.11451 40.967 10.1744 40.967 13.2343 40.967C13.218 37.8745 13.2343 34.782 13.2831 31.6897C13.4285 29.3643 14.5841 27.7856 16.7499 26.9534C18.9892 26.322 20.8935 26.8591 22.4628 28.5647C23.0068 29.2947 23.3649 30.1085 23.537 31.0061C23.5859 34.3262 23.6022 37.6465 23.5859 40.967C26.6783 40.967 29.7707 40.967 32.8632 40.967C32.8469 37.2234 32.8632 33.4799 32.912 29.7366C33.3149 29.3371 33.6729 29.3696 33.9863 29.8342C34.0026 33.5782 34.0514 37.3216 34.1327 41.0647C35.8452 41.8217 36.3824 43.0913 35.7441 44.8733C35.3502 45.5348 34.7806 45.9743 34.0351 46.1917C23.651 46.2568 13.2668 46.2568 2.88274 46.1917C1.22334 45.6567 0.588576 44.5336 0.978445 42.8225C1.30396 41.9761 1.8899 41.3902 2.73626 41.0647C2.76881 29.6064 2.80137 18.148 2.83391 6.6897C3.05449 5.1841 3.88457 4.20754 5.32415 3.76001ZM18.1171 27.8811C20.6878 27.9942 22.1038 29.3289 22.3652 31.885C22.414 34.9122 22.4303 37.9395 22.414 40.967C19.7773 40.967 17.1406 40.967 14.5038 40.967C14.4583 37.5777 14.5072 34.1922 14.6503 30.8108C15.2324 29.1371 16.388 28.1605 18.1171 27.8811ZM3.07805 42.2366C13.2994 42.2203 23.5208 42.2366 33.7421 42.2854C34.7361 42.6941 35.0127 43.3939 34.5722 44.385C34.3893 44.6007 34.1777 44.7797 33.9374 44.9221C23.6184 44.9873 13.2994 44.9873 2.9804 44.9221C2.07587 44.4415 1.86428 43.7416 2.34563 42.8225C2.55209 42.5666 2.79623 42.3712 3.07805 42.2366Z" fill="#0F819F"/>
<path opacity="0.917" fillRule="evenodd" clipRule="evenodd" d="M7.56641 7.17797C8.64112 7.16171 9.71533 7.17799 10.7891 7.2268C11.0007 7.30817 11.1472 7.45466 11.2285 7.66625C11.2937 9.68448 11.2937 11.7027 11.2285 13.7209C11.2178 13.9502 11.1038 14.0967 10.8867 14.1604C9.7474 14.2255 8.60808 14.2255 7.46875 14.1604C7.32903 14.115 7.21509 14.0335 7.12696 13.9163C7.06185 11.8003 7.06185 9.68448 7.12696 7.56859C7.21549 7.36263 7.36198 7.23242 7.56641 7.17797ZM8.25 8.4475C8.83594 8.4475 9.42188 8.4475 10.0078 8.4475C10.0078 9.94486 10.0078 11.4423 10.0078 12.9397C9.42188 12.9397 8.83594 12.9397 8.25 12.9397C8.25 11.4423 8.25 9.94486 8.25 8.4475Z" fill="#0F819F"/>
<path opacity="0.917" fillRule="evenodd" clipRule="evenodd" d="M13.7188 7.17797C14.7935 7.16171 15.8677 7.17799 16.9414 7.2268C17.12 7.25351 17.2665 7.33488 17.3809 7.47094C17.446 9.61938 17.446 11.7678 17.3809 13.9163C17.2995 13.9976 17.2181 14.079 17.1367 14.1604C15.9649 14.2255 14.793 14.2255 13.6211 14.1604C13.4493 14.062 13.3354 13.9155 13.2793 13.7209C13.2142 11.7353 13.2142 9.74958 13.2793 7.76391C13.3378 7.49494 13.4843 7.29963 13.7188 7.17797ZM14.5 8.4475C15.086 8.4475 15.6719 8.4475 16.2578 8.4475C16.2578 9.94486 16.2578 11.4423 16.2578 12.9397C15.6719 12.9397 15.086 12.9397 14.5 12.9397C14.5 11.4423 14.5 9.94486 14.5 8.4475Z" fill="#0F819F"/>
<path opacity="0.898" fillRule="evenodd" clipRule="evenodd" d="M19.9688 7.17797C21.0435 7.16171 22.1177 7.17799 23.1914 7.2268C23.386 7.28288 23.5324 7.39682 23.6309 7.56859C23.696 9.65192 23.696 11.7353 23.6309 13.8186C23.5821 13.9976 23.4681 14.1116 23.2891 14.1604C22.1497 14.2255 21.0105 14.2255 19.8711 14.1604C19.6921 14.1116 19.5781 13.9976 19.5293 13.8186C19.4642 11.7353 19.4642 9.65192 19.5293 7.56859C19.6179 7.36263 19.7644 7.23242 19.9688 7.17797ZM20.75 8.4475C21.3034 8.4475 21.8568 8.4475 22.4102 8.4475C22.4102 9.94486 22.4102 11.4423 22.4102 12.9397C21.8568 12.9397 21.3034 12.9397 20.75 12.9397C20.75 11.4423 20.75 9.94486 20.75 8.4475Z" fill="#0F819F"/>
<path opacity="0.89" fillRule="evenodd" clipRule="evenodd" d="M26.1211 7.17797C27.1958 7.16171 28.27 7.17799 29.3438 7.2268C29.4835 7.27223 29.5974 7.35361 29.6856 7.47094C29.8431 8.40513 29.8757 9.34914 29.7832 10.303C29.5827 10.6733 29.2736 10.7871 28.8555 10.6448C28.7382 10.5566 28.6568 10.4427 28.6114 10.303C28.5625 9.68533 28.5463 9.06685 28.5625 8.4475C28.0091 8.4475 27.4558 8.4475 26.9024 8.4475C26.9187 9.71745 26.9024 10.987 26.8535 12.2561C26.6091 12.9106 26.2185 13.0082 25.6817 12.5491C25.6165 10.8889 25.6165 9.22875 25.6817 7.56859C25.7702 7.36263 25.9167 7.23242 26.1211 7.17797Z" fill="#0F819F"/>
<path opacity="0.907" fillRule="evenodd" clipRule="evenodd" d="M32.3735 10.6937C36.6458 10.4624 39.7219 12.2527 41.602 16.0648C42.6535 18.7992 42.507 21.4685 41.1626 24.0726C43.646 25.2893 45.9409 26.7867 48.0473 28.5648C49.3133 30.2419 49.3785 31.9672 48.2426 33.7405C46.8657 35.2443 45.2217 35.6187 43.311 34.8636C42.2531 34.1963 41.3904 33.3336 40.7231 32.2757C39.6384 30.7254 38.6782 29.0978 37.8423 27.3929C35.4547 28.5743 32.9807 28.786 30.4204 28.0277C26.2945 26.3057 24.3251 23.197 24.5122 18.7015C25.2828 14.2037 27.9032 11.5345 32.3735 10.6937ZM33.2524 11.8655C36.6912 12.0027 39.1163 13.6304 40.5278 16.7484C41.6769 20.2005 40.912 23.1464 38.2329 25.5862C35.0106 27.8603 31.788 27.8603 28.5649 25.5862C25.4659 22.6879 24.8962 19.3513 26.8559 15.5765C28.3973 13.3166 30.5296 12.0797 33.2524 11.8655ZM40.3813 25.1468C42.9287 26.2653 45.2236 27.7627 47.2661 29.639C48.0768 31.0013 47.9303 32.2545 46.8266 33.3987C45.0442 34.4157 43.5631 34.0739 42.3833 32.3734C41.0306 30.5955 39.8751 28.6912 38.9165 26.6605C39.4902 26.2333 39.9785 25.7287 40.3813 25.1468Z" fill="#808282"/>
<path opacity="0.929" fillRule="evenodd" clipRule="evenodd" d="M32.372 13.2328C36.3359 12.9838 38.7936 14.7742 39.745 18.6038C39.9107 23.0237 37.7947 25.4976 33.3974 26.0257C30.1058 25.7616 28.0224 24.0363 27.1474 20.8499C26.7056 18.0072 27.6658 15.7774 30.0282 14.1605C30.7793 13.7426 31.5606 13.4333 32.372 13.2328ZM32.5673 14.5023C29.9497 15.1745 28.5174 16.8673 28.2704 19.5804C28.585 22.6782 30.294 24.4035 33.3974 24.7562C36.8374 24.3113 38.5301 22.3581 38.4755 18.8968C37.7222 15.8179 35.7527 14.3531 32.5673 14.5023Z" fill="#808282"/>
<path opacity="0.917" fillRule="evenodd" clipRule="evenodd" d="M7.46875 15.3811C8.60854 15.3648 9.74786 15.3811 10.8867 15.4299C11.0585 15.5284 11.1725 15.6749 11.2285 15.8694C11.2937 17.8877 11.2937 19.9058 11.2285 21.9241C11.1472 22.1357 11.0007 22.2822 10.7891 22.3635C9.6823 22.4287 8.57552 22.4287 7.46875 22.3635C7.32903 22.3181 7.21509 22.2367 7.12696 22.1194C7.06185 19.971 7.06185 17.8225 7.12696 15.6741C7.23878 15.5631 7.35271 15.4655 7.46875 15.3811ZM8.25 16.6506C8.83594 16.6506 9.42188 16.6506 10.0078 16.6506C10.0078 18.148 10.0078 19.6455 10.0078 21.1428C9.42188 21.1428 8.83594 21.1428 8.25 21.1428C8.25 19.6455 8.25 18.148 8.25 16.6506Z" fill="#0F819F"/>
<path opacity="0.917" fillRule="evenodd" clipRule="evenodd" d="M13.6217 15.3811C14.7615 15.3648 15.9008 15.3811 17.0397 15.4299C17.1794 15.4754 17.2933 15.5568 17.3815 15.6741C17.4466 17.8225 17.4466 19.971 17.3815 22.1194C17.3327 22.1682 17.2838 22.2171 17.235 22.2659C16.0725 22.4246 14.9006 22.4571 13.7194 22.3635C13.5796 22.3181 13.4658 22.2367 13.3776 22.1194C13.217 20.0448 13.1845 17.9614 13.2799 15.8694C13.3773 15.6914 13.4913 15.5286 13.6217 15.3811ZM14.5006 16.6506C15.0866 16.6506 15.6725 16.6506 16.2584 16.6506C16.2584 18.148 16.2584 19.6455 16.2584 21.1428C15.6725 21.1428 15.0866 21.1428 14.5006 21.1428C14.5006 19.6455 14.5006 18.148 14.5006 16.6506Z" fill="#0F819F"/>
<path opacity="0.897" fillRule="evenodd" clipRule="evenodd" d="M19.8718 15.3811C21.0115 15.3648 22.1509 15.3811 23.2897 15.4299C23.3792 15.4665 23.4606 15.5153 23.5339 15.5764C23.6458 16.6741 23.6946 17.7809 23.6804 18.8967C23.6641 19.9384 23.6478 20.98 23.6315 22.0217C23.595 22.1112 23.5462 22.1926 23.485 22.2659C22.8603 22.376 22.2256 22.4249 21.5807 22.4124C21.0111 22.3961 20.4414 22.3798 19.8718 22.3635C19.7823 22.327 19.7009 22.2782 19.6276 22.2171C19.4671 20.0773 19.4345 17.9289 19.53 15.7717C19.5974 15.5911 19.7112 15.4608 19.8718 15.3811ZM20.7507 16.6506C21.3041 16.6506 21.8574 16.6506 22.4108 16.6506C22.4108 18.148 22.4108 19.6455 22.4108 21.1428C21.8574 21.1428 21.3041 21.1428 20.7507 21.1428C20.7507 19.6455 20.7507 18.148 20.7507 16.6506Z" fill="#0F819F"/>
<path opacity="0.93" fillRule="evenodd" clipRule="evenodd" d="M7.37179 23.5842C8.54411 23.5679 9.71599 23.5842 10.8874 23.6331C10.9769 23.6696 11.0583 23.7184 11.1316 23.7796C11.2921 25.8868 11.3246 28.0027 11.2292 30.1272C11.1838 30.267 11.1024 30.3808 10.9851 30.469C9.72445 30.5493 8.47119 30.533 7.22531 30.4202C7.06468 28.2478 7.03213 26.0669 7.12765 23.8772C7.2297 23.792 7.31108 23.6943 7.37179 23.5842ZM8.2507 24.8538C8.83663 24.8538 9.42257 24.8538 10.0085 24.8538C10.0085 26.3511 10.0085 27.8486 10.0085 29.346C9.42257 29.346 8.83663 29.346 8.2507 29.346C8.2507 27.8486 8.2507 26.3511 8.2507 24.8538Z" fill="#0F819F"/>
<path opacity="0.889" fillRule="evenodd" clipRule="evenodd" d="M25.9258 26.6113C26.2689 26.5504 26.5456 26.648 26.7559 26.9043C26.8927 27.6772 26.9415 28.4585 26.9024 29.248C27.4558 29.248 28.0091 29.248 28.5625 29.248C28.5642 28.3819 28.9385 28.154 29.6856 28.5644C29.8374 29.0412 29.8699 29.5295 29.7832 30.0293C29.7019 30.2409 29.5554 30.3874 29.3438 30.4687C28.1625 30.5623 26.9906 30.5298 25.8281 30.3711C25.767 30.2978 25.7182 30.2164 25.6817 30.1269C25.6165 29.0527 25.6165 27.9785 25.6817 26.9043C25.7837 26.819 25.8651 26.7214 25.9258 26.6113Z" fill="#0F819F"/>
<path opacity="0.929" fillRule="evenodd" clipRule="evenodd" d="M7.37179 31.6897C8.54411 31.6734 9.71599 31.6897 10.8874 31.7385C10.9769 31.7751 11.0583 31.8239 11.1316 31.885C11.2921 33.9922 11.3246 36.1082 11.2292 38.2327C11.1838 38.3724 11.1024 38.4863 10.9851 38.5745C9.72445 38.6547 8.47119 38.6384 7.22531 38.5256C7.06468 36.3533 7.03213 34.1723 7.12765 31.9827C7.2297 31.8974 7.31108 31.7998 7.37179 31.6897ZM8.2507 32.9592C8.2507 34.4566 8.2507 35.9541 8.2507 37.4514C8.83663 37.4514 9.42257 37.4514 10.0085 37.4514C10.0085 35.9541 10.0085 34.4566 10.0085 32.9592C9.42257 32.9592 8.83663 32.9592 8.2507 32.9592Z" fill="#0F819F"/>
<path opacity="0.911" fillRule="evenodd" clipRule="evenodd" d="M25.927 31.6897C27.0994 31.6734 28.2712 31.6897 29.4426 31.7385C29.5321 31.7751 29.6135 31.8239 29.6868 31.885C29.8473 33.9922 29.8798 36.1082 29.7844 38.2327C29.739 38.3724 29.6576 38.4863 29.5403 38.5745C28.3359 38.6396 27.1314 38.6396 25.927 38.5745C25.8481 38.5444 25.783 38.4956 25.7317 38.428C25.6189 36.2838 25.6026 34.1353 25.6829 31.9827C25.7849 31.8974 25.8663 31.7998 25.927 31.6897ZM26.9036 32.9592C26.9036 34.4566 26.9036 35.9541 26.9036 37.4514C27.457 37.4514 28.0103 37.4514 28.5637 37.4514C28.5637 35.9541 28.5637 34.4566 28.5637 32.9592C28.0103 32.9592 27.457 32.9592 26.9036 32.9592Z" fill="#0F819F"/>
</svg>
