<svg width="70" height="70" viewBox="0 0 70 70" fill="none" xmlns="http://www.w3.org/2000/svg">
<path opacity="0.987" fill-rule="evenodd" clip-rule="evenodd" d="M30.8281 3.76016C31.4799 3.71789 32.1179 3.78625 32.7422 3.96524C37.5115 6.05367 42.2966 8.10445 47.0977 10.1176C47.6136 10.2956 48.0466 10.5918 48.3965 11.0063C48.621 13.7283 48.6665 16.4627 48.5332 19.2094C47.9198 20.1731 47.0766 20.4239 46.0039 19.9613C45.7472 19.7504 45.5421 19.4998 45.3887 19.2094C45.3203 17.1591 45.2975 15.1084 45.3203 13.057C41.3269 11.452 37.3621 9.76579 33.4258 7.99844C33.2891 26.273 33.2435 44.5477 33.2891 62.8227C34.3828 62.8227 35.4766 62.8227 36.5703 62.8227C36.5475 50.3811 36.5703 37.9397 36.6387 25.4984C36.9273 24.8909 37.4058 24.5491 38.0742 24.4731C43.3972 23.434 48.7293 22.4541 54.0703 21.5336C54.0703 36.3904 54.0703 51.2471 54.0703 66.1039C37.6184 66.1267 21.1666 66.1039 4.71485 66.0356C4.32748 65.8305 4.03125 65.5342 3.82618 65.1469C3.73502 46.8266 3.73502 28.5063 3.82618 10.1859C4.26139 9.43224 4.92219 9.04487 5.8086 9.02383C14.1792 7.32711 22.519 5.57255 30.8281 3.76016ZM29.8711 7.45157C30.0078 25.8856 30.0533 44.3427 30.0078 62.8227C22.3516 62.8227 14.6953 62.8227 7.03907 62.8227C7.03907 45.9607 7.03907 29.0987 7.03907 12.2367C14.684 10.7261 22.2947 9.13106 29.8711 7.45157ZM48.6016 29.0531C49.7832 28.891 50.4897 29.3923 50.7207 30.557C50.8119 31.6508 50.8119 32.7445 50.7207 33.8383C50.4171 35.1863 49.6196 35.6193 48.3281 35.1371C47.8832 34.8169 47.6325 34.3839 47.5762 33.8383C47.485 32.7445 47.485 31.6508 47.5762 30.557C47.6806 29.8847 48.0224 29.3834 48.6016 29.0531ZM42.3125 30.1469C43.2187 29.9734 43.8794 30.2923 44.2949 31.1039C44.3861 32.5623 44.3861 34.0205 44.2949 35.4789C43.5597 36.5821 42.671 36.7188 41.6289 35.8891C41.4523 35.5928 41.3384 35.2738 41.2871 34.932C41.1697 33.6033 41.2152 32.2817 41.4238 30.9672C41.6281 30.5825 41.9242 30.309 42.3125 30.1469ZM48.6016 39.4438C49.7832 39.2816 50.4897 39.783 50.7207 40.9477C50.8119 42.0414 50.8119 43.1352 50.7207 44.2289C50.4171 45.577 49.6196 46.0099 48.3281 45.5277C47.8832 45.2075 47.6325 44.7746 47.5762 44.2289C47.485 43.1352 47.485 42.0414 47.5762 40.9477C47.6806 40.2753 48.0224 39.7741 48.6016 39.4438ZM42.3125 39.9906C43.2187 39.8171 43.8794 40.1361 44.2949 40.9477C44.3861 42.406 44.3861 43.8643 44.2949 45.3227C43.5597 46.4258 42.671 46.5626 41.6289 45.7328C41.4523 45.4366 41.3384 45.1176 41.2871 44.7758C41.1697 43.447 41.2152 42.1255 41.4238 40.8109C41.6281 40.4262 41.9242 40.1528 42.3125 39.9906ZM42.3125 49.8344C43.2187 49.6609 43.8794 49.9799 44.2949 50.7914C44.3861 52.2498 44.3861 53.708 44.2949 55.1664C43.5597 56.2696 42.671 56.4063 41.6289 55.5766C41.4523 55.2803 41.3384 54.9613 41.2871 54.6195C41.1697 53.2908 41.2152 51.9692 41.4238 50.6547C41.6281 50.27 41.9242 49.9965 42.3125 49.8344ZM48.6016 49.8344C49.7832 49.6722 50.4897 50.1736 50.7207 51.3383C50.8119 52.432 50.8119 53.5258 50.7207 54.6195C50.4171 55.9676 49.6196 56.4006 48.3281 55.9184C47.8832 55.5982 47.6325 55.1652 47.5762 54.6195C47.485 53.5258 47.485 52.432 47.5762 51.3383C47.6806 50.6659 48.0224 50.1647 48.6016 49.8344Z" fill="#0F819F"/>
<path opacity="0.968" fill-rule="evenodd" clip-rule="evenodd" d="M24.4024 13.6037C25.4075 13.3656 26.1595 13.6846 26.6582 14.5607C26.7494 16.1101 26.7494 17.6597 26.6582 19.2091C26.1585 20.1074 25.4066 20.4036 24.4024 20.0978C24.0151 19.8927 23.7188 19.5965 23.5137 19.2091C23.4225 17.6597 23.4225 16.1101 23.5137 14.5607C23.7453 14.1699 24.0416 13.851 24.4024 13.6037Z" fill="#A8B2B5"/>
<path opacity="0.968" fill-rule="evenodd" clip-rule="evenodd" d="M17.293 14.6974C18.2982 14.4594 19.0501 14.7783 19.5489 15.6544C19.6401 17.2038 19.6401 18.7534 19.5489 20.3029C19.0492 21.2011 18.2972 21.4974 17.293 21.1915C16.9057 20.9864 16.6094 20.6902 16.4043 20.3029C16.3131 18.7534 16.3131 17.2038 16.4043 15.6544C16.6359 15.2637 16.9322 14.9447 17.293 14.6974Z" fill="#A8B2B5"/>
<path opacity="0.968" fill-rule="evenodd" clip-rule="evenodd" d="M10.1836 15.7911C11.1887 15.5531 11.9407 15.8721 12.4395 16.7482C12.5306 18.2976 12.5306 19.8472 12.4395 21.3966C11.9397 22.2948 11.1878 22.5911 10.1836 22.2853C9.79623 22.0802 9.5 21.7839 9.29493 21.3966C9.20377 19.8472 9.20377 18.2976 9.29493 16.7482C9.52654 16.3574 9.82276 16.0385 10.1836 15.7911Z" fill="#A8B2B5"/>
<path opacity="0.998" fill-rule="evenodd" clip-rule="evenodd" d="M57.3516 21.8066C60.0367 23.1492 62.7256 24.4936 65.418 25.8398C65.6747 26.0508 65.8798 26.3014 66.0332 26.5918C66.1244 39.4434 66.1244 52.2949 66.0332 65.1465C65.8281 65.5338 65.5319 65.8301 65.1445 66.0352C62.5473 66.1035 59.9496 66.1263 57.3516 66.1035C57.3516 51.3379 57.3516 36.5723 57.3516 21.8066Z" fill="#A8B2B5"/>
<path opacity="0.959" fill-rule="evenodd" clip-rule="evenodd" d="M24.6758 24.814C25.5437 24.7298 26.2046 25.0489 26.6582 25.771C26.7494 27.3661 26.7494 28.9611 26.6582 30.5562C25.9653 31.5635 25.0767 31.7686 23.9922 31.1714C23.7804 31.0054 23.621 30.8003 23.5137 30.5562C23.4225 28.9611 23.4225 27.3661 23.5137 25.771C23.8168 25.3366 24.2041 25.0175 24.6758 24.814Z" fill="#A8B2B5"/>
<path opacity="0.968" fill-rule="evenodd" clip-rule="evenodd" d="M17.293 25.6349C18.2982 25.3969 19.0501 25.7158 19.5489 26.5919C19.6401 28.1413 19.6401 29.6909 19.5489 31.2404C19.0492 32.1386 18.2972 32.4349 17.293 32.129C16.9057 31.9239 16.6094 31.6277 16.4043 31.2404C16.3131 29.6909 16.3131 28.1413 16.4043 26.5919C16.6359 26.2012 16.9322 25.8822 17.293 25.6349Z" fill="#A8B2B5"/>
<path opacity="0.959" fill-rule="evenodd" clip-rule="evenodd" d="M10.3203 26.3185C11.2453 26.1776 11.9516 26.4965 12.4395 27.2756C12.5306 28.8707 12.5306 30.4656 12.4395 32.0607C11.3913 33.3367 10.3431 33.3367 9.29493 32.0607C9.20377 30.4656 9.20377 28.8707 9.29493 27.2756C9.53314 26.8318 9.87494 26.5128 10.3203 26.3185Z" fill="#A8B2B5"/>
<path opacity="0.959" fill-rule="evenodd" clip-rule="evenodd" d="M24.5391 36.1623C25.464 36.0213 26.1704 36.3403 26.6582 37.1193C26.7494 38.7144 26.7494 40.3094 26.6582 41.9045C25.61 43.1805 24.5619 43.1805 23.5137 41.9045C23.4225 40.3094 23.4225 38.7144 23.5137 37.1193C23.7519 36.6755 24.0937 36.3566 24.5391 36.1623Z" fill="#A8B2B5"/>
<path opacity="0.968" fill-rule="evenodd" clip-rule="evenodd" d="M17.293 36.5724C18.2982 36.3344 19.0501 36.6533 19.5489 37.5294C19.6401 39.0788 19.6401 40.6284 19.5489 42.1779C19.0492 43.0761 18.2972 43.3724 17.293 43.0665C16.9057 42.8614 16.6094 42.5652 16.4043 42.1779C16.3131 40.6284 16.3131 39.0788 16.4043 37.5294C16.6359 37.1387 16.9322 36.8197 17.293 36.5724Z" fill="#A8B2B5"/>
<path opacity="0.959" fill-rule="evenodd" clip-rule="evenodd" d="M10.457 36.8452C11.325 36.761 11.9858 37.0801 12.4395 37.8023C12.5306 39.3974 12.5306 40.9923 12.4395 42.5874C11.7466 43.5948 10.8579 43.7998 9.77344 43.2026C9.56169 43.0367 9.40218 42.8316 9.29493 42.5874C9.20377 40.9923 9.20377 39.3974 9.29493 37.8023C9.59803 37.3679 9.9854 37.0488 10.457 36.8452Z" fill="#A8B2B5"/>
<path opacity="0.968" fill-rule="evenodd" clip-rule="evenodd" d="M10.1836 47.5099C11.1887 47.2719 11.9407 47.5908 12.4395 48.4669C12.5306 50.0163 12.5306 51.5659 12.4395 53.1154C11.9397 54.0136 11.1878 54.3099 10.1836 54.004C9.79623 53.7989 9.5 53.5027 9.29493 53.1154C9.20377 51.5659 9.20377 50.0163 9.29493 48.4669C9.52654 48.0762 9.82276 47.7572 10.1836 47.5099Z" fill="#A8B2B5"/>
<path opacity="0.968" fill-rule="evenodd" clip-rule="evenodd" d="M17.293 47.5099C18.2982 47.2719 19.0501 47.5908 19.5489 48.4669C19.6401 50.0163 19.6401 51.5659 19.5489 53.1154C19.0492 54.0136 18.2972 54.3099 17.293 54.004C16.9057 53.7989 16.6094 53.5027 16.4043 53.1154C16.3131 51.5659 16.3131 50.0163 16.4043 48.4669C16.6359 48.0762 16.9322 47.7572 17.293 47.5099Z" fill="#A8B2B5"/>
<path opacity="0.968" fill-rule="evenodd" clip-rule="evenodd" d="M24.4024 47.5099C25.4075 47.2719 26.1595 47.5908 26.6582 48.4669C26.7494 50.0163 26.7494 51.5659 26.6582 53.1154C26.1585 54.0136 25.4066 54.3099 24.4024 54.004C24.0151 53.7989 23.7188 53.5027 23.5137 53.1154C23.4225 51.5659 23.4225 50.0163 23.5137 48.4669C23.7453 48.0762 24.0416 47.7572 24.4024 47.5099Z" fill="#A8B2B5"/>
</svg>
