<svg width="70" height="70" viewBox="0 0 70 70" fill="none" xmlns="http://www.w3.org/2000/svg">
<g clip-path="url(#clip0_1840_596)">
<path opacity="0.983" fill-rule="evenodd" clip-rule="evenodd" d="M34.1094 -0.0683594C34.6562 -0.0683594 35.2031 -0.0683594 35.75 -0.0683594C46.7452 7.96023 57.7739 15.9582 68.8359 23.9258C69.2786 24.254 69.6433 24.6415 69.9297 25.0879C69.9297 25.5892 69.9297 26.0904 69.9297 26.5918C68.1254 29.1282 66.2569 31.6347 64.3242 34.1113C63.5311 34.5916 62.7108 34.6371 61.8633 34.248C61.7266 42.0405 61.681 49.8334 61.7266 57.627C64.0512 57.6041 66.3754 57.627 68.6992 57.6953C69.2714 57.9261 69.6815 58.3134 69.9297 58.8574C69.9297 59.4043 69.9297 59.9512 69.9297 60.498C69.6815 61.042 69.2714 61.4294 68.6992 61.6602C62.6836 61.7057 56.668 61.7513 50.6523 61.7969C51.5957 63.5696 52.4844 65.3697 53.3184 67.1973C53.6473 68.4983 53.2143 69.4098 52.0195 69.9316C40.5807 69.9316 29.142 69.9316 17.7031 69.9316C16.5083 69.4098 16.0754 68.4983 16.4043 67.1973C17.2383 65.3697 18.127 63.5696 19.0703 61.7969C13.1003 61.7513 7.13021 61.7057 1.16016 61.6602C0.587962 61.4294 0.177806 61.042 -0.0703125 60.498C-0.0703125 59.9512 -0.0703125 59.4043 -0.0703125 58.8574C0.177806 58.3134 0.587962 57.9261 1.16016 57.6953C3.48392 57.627 5.80814 57.6041 8.13281 57.627C8.1556 49.8338 8.13281 42.0409 8.06445 34.248C7.43433 34.5229 6.77351 34.5912 6.08203 34.4531C5.88156 34.3663 5.69926 34.2523 5.53516 34.1113C3.6591 31.6446 1.79061 29.1837 -0.0703125 26.7285C-0.0703125 26.1816 -0.0703125 25.6348 -0.0703125 25.0879C0.216163 24.6415 0.580746 24.254 1.02344 23.9258C3.40679 22.267 5.75378 20.558 8.06445 18.7988C8.11002 14.3326 8.1556 9.86654 8.20117 5.40039C8.40625 4.83072 8.79362 4.44336 9.36328 4.23828C12.6445 4.14713 15.9258 4.14713 19.207 4.23828C19.7767 4.44336 20.1641 4.83072 20.3691 5.40039C20.3921 6.86085 20.4605 8.31919 20.5742 9.77539C25.0917 6.4864 29.6034 3.20515 34.1094 -0.0683594ZM34.6562 4.7168C34.844 4.69537 35.0263 4.71816 35.2031 4.78516C45.0682 12.0191 54.9575 19.2196 64.8711 26.3867C64.1231 27.4492 63.3256 28.4746 62.4785 29.4629C53.6052 23.0096 44.6956 16.6067 35.75 10.2539C34.7096 10.0051 33.7981 10.2329 33.0156 10.9375C24.4827 17.1294 15.9378 23.3045 7.38086 29.4629C6.53378 28.4746 5.73626 27.4492 4.98828 26.3867C14.9354 19.2273 24.8247 12.004 34.6562 4.7168ZM12.2344 8.27148C13.6016 8.27148 14.9688 8.27148 16.3359 8.27148C16.3588 9.82163 16.3359 11.3711 16.2676 12.9199C14.9459 13.877 13.6244 14.834 12.3027 15.791C12.2344 13.2849 12.2116 10.7784 12.2344 8.27148ZM34.6562 14.9707C34.844 14.9492 35.0263 14.9721 35.2031 15.0391C42.6423 20.4561 50.0934 25.8565 57.5566 31.2402C57.625 40.0356 57.6478 48.8313 57.625 57.627C54.8451 57.627 52.0651 57.627 49.2852 57.627C49.308 51.1554 49.2852 44.6841 49.2168 38.2129C49.0117 37.6432 48.6244 37.2559 48.0547 37.0508C39.2592 36.9596 30.4635 36.9596 21.668 37.0508C21.0983 37.2559 20.7109 37.6432 20.5059 38.2129C20.4375 44.6841 20.4147 51.1554 20.4375 57.627C17.7031 57.627 14.9688 57.627 12.2344 57.627C12.2116 48.8313 12.2344 40.0356 12.3027 31.2402C19.7994 25.8643 27.2506 20.4411 34.6562 14.9707ZM34.2461 24.8145C36.1809 24.63 37.0241 25.496 36.7754 27.4121C35.9735 28.7446 34.9025 28.9953 33.5625 28.1641C32.661 26.7988 32.8889 25.6823 34.2461 24.8145ZM24.5391 41.084C27.319 41.084 30.099 41.084 32.8789 41.084C32.8789 46.5983 32.8789 52.1127 32.8789 57.627C30.099 57.627 27.319 57.627 24.5391 57.627C24.5391 52.1127 24.5391 46.5983 24.5391 41.084ZM36.9805 41.084C39.7148 41.084 42.4492 41.084 45.1836 41.084C45.1836 46.5983 45.1836 52.1127 45.1836 57.627C42.4492 57.627 39.7148 57.627 36.9805 57.627C36.9805 52.1127 36.9805 46.5983 36.9805 41.084ZM23.8555 61.7285C31.1929 61.7057 38.53 61.7285 45.8672 61.7969C46.5508 63.1185 47.2344 64.4401 47.918 65.7617C39.2135 65.8529 30.5092 65.8529 21.8047 65.7617C22.5076 64.4243 23.1912 63.08 23.8555 61.7285Z" fill="#0F819F"/>
<g opacity="0.983">
<path d="M34.2451 24.8145C36.18 24.63 37.0231 25.496 36.7744 27.4121C35.9726 28.7445 34.9015 28.9953 33.5615 28.1641C32.66 26.7988 32.888 25.6823 34.2451 24.8145Z" fill="#A8B2B5"/>
<path d="M34.2451 24.8145C36.18 24.63 37.0231 25.496 36.7744 27.4121C35.9726 28.7445 34.9015 28.9953 33.5615 28.1641C32.66 26.7988 32.888 25.6823 34.2451 24.8145Z" stroke="black"/>
</g>
<path opacity="0.961" fill-rule="evenodd" clip-rule="evenodd" d="M33.5634 20.5764C37.3415 20.1962 39.8252 21.7913 41.0146 25.3615C41.4613 29.1422 39.889 31.626 36.2978 32.8127C32.5171 33.2594 30.0334 31.6871 28.8466 28.0959C28.4165 24.3033 29.9888 21.7969 33.5634 20.5764ZM34.247 24.8147C32.8898 25.6825 32.6619 26.799 33.5634 28.1643C34.9034 28.9955 35.9745 28.7448 36.7763 27.4123C37.025 25.4962 36.1819 24.6302 34.247 24.8147Z" fill="#A8B2B5"/>
<mask id="mask0_1840_596" style="mask-type:alpha" maskUnits="userSpaceOnUse" x="-1" y="-1" width="71" height="71">
<path opacity="0.983" fill-rule="evenodd" clip-rule="evenodd" d="M34.1094 -0.0683594C34.6562 -0.0683594 35.2031 -0.0683594 35.75 -0.0683594C46.7452 7.96023 57.7739 15.9582 68.8359 23.9258C69.2786 24.254 69.6433 24.6415 69.9297 25.0879C69.9297 25.5892 69.9297 26.0904 69.9297 26.5918C68.1254 29.1282 66.2569 31.6347 64.3242 34.1113C63.5311 34.5916 62.7108 34.6371 61.8633 34.248C61.7266 42.0405 61.681 49.8334 61.7266 57.627C64.0512 57.6041 66.3754 57.627 68.6992 57.6953C69.2714 57.9261 69.6815 58.3134 69.9297 58.8574C69.9297 59.4043 69.9297 59.9512 69.9297 60.498C69.6815 61.042 69.2714 61.4294 68.6992 61.6602C62.6836 61.7057 56.668 61.7513 50.6523 61.7969C51.5957 63.5696 52.4844 65.3697 53.3184 67.1973C53.6473 68.4983 53.2143 69.4098 52.0195 69.9316C40.5807 69.9316 29.142 69.9316 17.7031 69.9316C16.5083 69.4098 16.0754 68.4983 16.4043 67.1973C17.2383 65.3697 18.127 63.5696 19.0703 61.7969C13.1003 61.7513 7.13021 61.7057 1.16016 61.6602C0.587962 61.4294 0.177806 61.042 -0.0703125 60.498C-0.0703125 59.9512 -0.0703125 59.4043 -0.0703125 58.8574C0.177806 58.3134 0.587962 57.9261 1.16016 57.6953C3.48392 57.627 5.80814 57.6041 8.13281 57.627C8.1556 49.8338 8.13281 42.0409 8.06445 34.248C7.43433 34.5229 6.77351 34.5912 6.08203 34.4531C5.88156 34.3663 5.69926 34.2523 5.53516 34.1113C3.6591 31.6446 1.79061 29.1837 -0.0703125 26.7285C-0.0703125 26.1816 -0.0703125 25.6348 -0.0703125 25.0879C0.216163 24.6415 0.580746 24.254 1.02344 23.9258C3.40679 22.267 5.75378 20.558 8.06445 18.7988C8.11002 14.3326 8.1556 9.86654 8.20117 5.40039C8.40625 4.83072 8.79362 4.44336 9.36328 4.23828C12.6445 4.14713 15.9258 4.14713 19.207 4.23828C19.7767 4.44336 20.1641 4.83072 20.3691 5.40039C20.3921 6.86085 20.4605 8.31919 20.5742 9.77539C25.0917 6.4864 29.6034 3.20515 34.1094 -0.0683594ZM34.6562 4.7168C34.844 4.69537 35.0263 4.71816 35.2031 4.78516C45.0682 12.0191 54.9575 19.2196 64.8711 26.3867C64.1231 27.4492 63.3256 28.4746 62.4785 29.4629C53.6052 23.0096 44.6956 16.6067 35.75 10.2539C34.7096 10.0051 33.7981 10.2329 33.0156 10.9375C24.4827 17.1294 15.9378 23.3045 7.38086 29.4629C6.53378 28.4746 5.73626 27.4492 4.98828 26.3867C14.9354 19.2273 24.8247 12.004 34.6562 4.7168ZM12.2344 8.27148C13.6016 8.27148 14.9688 8.27148 16.3359 8.27148C16.3588 9.82163 16.3359 11.3711 16.2676 12.9199C14.9459 13.877 13.6244 14.834 12.3027 15.791C12.2344 13.2849 12.2116 10.7784 12.2344 8.27148ZM34.6562 14.9707C34.844 14.9492 35.0263 14.9721 35.2031 15.0391C42.6423 20.4561 50.0934 25.8565 57.5566 31.2402C57.625 40.0356 57.6478 48.8313 57.625 57.627C54.8451 57.627 52.0651 57.627 49.2852 57.627C49.308 51.1554 49.2852 44.6841 49.2168 38.2129C49.0117 37.6432 48.6244 37.2559 48.0547 37.0508C39.2592 36.9596 30.4635 36.9596 21.668 37.0508C21.0983 37.2559 20.7109 37.6432 20.5059 38.2129C20.4375 44.6841 20.4147 51.1554 20.4375 57.627C17.7031 57.627 14.9688 57.627 12.2344 57.627C12.2116 48.8313 12.2344 40.0356 12.3027 31.2402C19.7994 25.8643 27.2506 20.4411 34.6562 14.9707ZM34.2461 24.8145C36.1809 24.63 37.0241 25.496 36.7754 27.4121C35.9735 28.7446 34.9025 28.9953 33.5625 28.1641C32.661 26.7988 32.8889 25.6823 34.2461 24.8145ZM24.5391 41.084C27.319 41.084 30.099 41.084 32.8789 41.084C32.8789 46.5983 32.8789 52.1127 32.8789 57.627C30.099 57.627 27.319 57.627 24.5391 57.627C24.5391 52.1127 24.5391 46.5983 24.5391 41.084ZM36.9805 41.084C39.7148 41.084 42.4492 41.084 45.1836 41.084C45.1836 46.5983 45.1836 52.1127 45.1836 57.627C42.4492 57.627 39.7148 57.627 36.9805 57.627C36.9805 52.1127 36.9805 46.5983 36.9805 41.084ZM23.8555 61.7285C31.1929 61.7057 38.53 61.7285 45.8672 61.7969C46.5508 63.1185 47.2344 64.4401 47.918 65.7617C39.2135 65.8529 30.5092 65.8529 21.8047 65.7617C22.5076 64.4243 23.1912 63.08 23.8555 61.7285Z" fill="#0F819F"/>
</mask>
<g mask="url(#mask0_1840_596)">
<rect x="16.2695" y="35.5469" width="37.1875" height="34.3164" fill="#A8B2B5"/>
</g>
</g>
<defs>
<clipPath id="clip0_1840_596">
<rect width="70" height="70" fill="white"/>
</clipPath>
</defs>
</svg>
