<svg width="70" height="70" viewBox="0 0 70 70" fill="none" xmlns="http://www.w3.org/2000/svg">
<path opacity="0.951" fill-rule="evenodd" clip-rule="evenodd" d="M37.1188 0.888427C47.4184 0.865642 57.7178 0.888427 68.0172 0.956787C68.2614 1.06404 68.4665 1.22355 68.6325 1.4353C68.7236 3.39493 68.7236 5.35458 68.6325 7.31421C68.5689 7.50983 68.4549 7.66934 68.2907 7.79272C67.7581 7.96584 67.2113 8.0342 66.65 7.9978C66.6729 28.1411 66.65 48.2843 66.5817 68.4275C66.4678 68.5414 66.3538 68.6554 66.2399 68.7693C56.1338 68.9284 46.0166 68.9968 35.8883 68.9744C25.7178 68.9965 15.5551 68.9282 5.40003 68.7693C5.23578 68.6458 5.12183 68.4864 5.05823 68.2908C4.98987 58.8116 4.96708 49.3325 4.98987 39.8533C3.89518 39.876 2.80143 39.8533 1.70862 39.7849C1.51301 39.7213 1.3535 39.6073 1.23011 39.4431C1.00658 37.3139 0.96101 35.1719 1.09339 33.0173C1.20732 32.7211 1.4124 32.516 1.70862 32.4021C3.30302 32.3337 4.89808 32.3109 6.49378 32.3337C6.471 28.961 6.49378 25.5886 6.56214 22.2166C6.75296 21.6298 7.09475 21.1512 7.58753 20.781C9.56988 19.6305 11.5295 18.4456 13.4664 17.2263C15.0558 16.5157 16.3546 16.8575 17.3629 18.2517C17.4959 18.5104 17.5871 18.7838 17.6364 19.072C17.7047 23.4467 17.7276 27.8217 17.7047 32.197C19.801 32.197 21.8975 32.197 23.9938 32.197C23.9709 28.8243 23.9938 25.4519 24.0621 22.0798C24.2969 21.3895 24.7299 20.8655 25.361 20.5076C27.2519 19.4483 29.1205 18.3545 30.9664 17.2263C32.5558 16.5157 33.8546 16.8575 34.8629 18.2517C34.9959 18.5104 35.0871 18.7838 35.1364 19.072C35.2047 23.4012 35.2276 27.7307 35.2047 32.0603C36.2529 32.0603 37.301 32.0603 38.3493 32.0603C38.3493 24.0394 38.3493 16.0187 38.3493 7.9978C37.788 8.0342 37.2411 7.96584 36.7086 7.79272C36.5444 7.66934 36.4304 7.50983 36.3668 7.31421C36.2756 5.40015 36.2756 3.48608 36.3668 1.57202C36.5517 1.26454 36.8023 1.03668 37.1188 0.888427ZM38.486 3.21265C47.8284 3.21265 57.1709 3.21265 66.5133 3.21265C66.5133 4.03296 66.5133 4.85327 66.5133 5.67358C57.1709 5.67358 47.8284 5.67358 38.486 5.67358C38.486 4.85327 38.486 4.03296 38.486 3.21265ZM40.6735 7.9978C48.6487 7.9978 56.624 7.9978 64.5993 7.9978C64.4967 27.5484 64.4512 47.0992 64.4625 66.6501C62.7307 66.6501 60.999 66.6501 59.2672 66.6501C59.2901 63.7331 59.2672 60.8165 59.1989 57.9001C58.648 55.2073 57.0758 53.4073 54.4821 52.4998C50.9162 51.7654 48.2501 52.9731 46.484 56.1228C46.1951 56.7769 46.0129 57.4605 45.9371 58.1736C45.8688 60.9987 45.846 63.8243 45.8688 66.6501C44.137 66.6501 42.4053 66.6501 40.6735 66.6501C40.6735 47.0994 40.6735 27.5486 40.6735 7.9978ZM14.8336 18.9353C15.2044 19.0101 15.4095 19.2379 15.4489 19.6189C15.5172 23.7659 15.54 27.9129 15.5172 32.0603C13.2386 32.0603 10.9599 32.0603 8.68128 32.0603C8.6585 28.961 8.68128 25.862 8.74964 22.7634C10.7519 21.4327 12.7798 20.1566 14.8336 18.9353ZM32.3336 18.9353C32.7044 19.0101 32.9095 19.2379 32.9489 19.6189C33.0172 23.7659 33.0401 27.9129 33.0172 32.0603C30.7385 32.0603 28.46 32.0603 26.1813 32.0603C26.1584 28.961 26.1813 25.862 26.2496 22.7634C28.2519 21.4327 30.2798 20.1566 32.3336 18.9353ZM3.34925 34.5212C15.0159 34.5212 26.6826 34.5212 38.3493 34.5212C38.3493 35.5238 38.3493 36.5265 38.3493 37.5291C26.6826 37.5291 15.0159 37.5291 3.34925 37.5291C3.34925 36.5265 3.34925 35.5238 3.34925 34.5212ZM7.17737 39.7166C17.568 39.7166 27.9586 39.7166 38.3493 39.7166C38.3493 48.6945 38.3493 57.6722 38.3493 66.6501C27.9586 66.6501 17.568 66.6501 7.17737 66.6501C7.17737 57.6722 7.17737 48.6945 7.17737 39.7166Z" fill="#0F819F"/>
<path opacity="0.913" fill-rule="evenodd" clip-rule="evenodd" d="M13.3306 1.16239C14.7694 0.982147 15.2934 1.57459 14.9028 2.93974C14.5382 3.30433 14.1737 3.6689 13.8091 4.03349C13.7179 4.26136 13.7179 4.48921 13.8091 4.71708C14.4853 5.39328 15.1689 6.07687 15.8598 6.76786C16.8966 8.97992 16.5091 10.9168 14.6977 12.5784C13.171 13.0569 12.647 12.5328 13.1255 11.0061C14.7325 9.61987 14.6641 8.36661 12.9204 7.24638C10.8148 5.06492 10.9515 3.03693 13.3306 1.16239Z" fill="#A8B2B5"/>
<path opacity="0.92" fill-rule="evenodd" clip-rule="evenodd" d="M31.6487 1.16163C32.8396 1.00854 33.3637 1.50985 33.2209 2.66553C32.7379 3.19456 32.3049 3.76423 31.9221 4.37452C32.1392 5.09288 32.5949 5.59418 33.2893 5.87842C34.5151 6.95824 34.9479 8.30265 34.5881 9.91162C34.2776 10.9652 33.708 11.8539 32.8791 12.5776C31.927 13.0494 31.3346 12.776 31.1018 11.7573C31.1347 11.4861 31.2259 11.2355 31.3752 11.0054C32.2493 10.3508 32.5911 9.48491 32.4006 8.40772C31.7244 7.73152 31.0408 7.04793 30.3498 6.35694C29.1765 4.20643 29.6095 2.47466 31.6487 1.16163Z" fill="#A8B2B5"/>
<path opacity="0.923" fill-rule="evenodd" clip-rule="evenodd" d="M8.54493 3.89648C9.61596 4.17095 9.91219 4.80897 9.43361 5.81055C8.90021 6.11591 8.51283 6.54886 8.2715 7.10938C8.32103 7.27681 8.38939 7.43632 8.47657 7.58789C9.17186 8.27382 9.85545 8.95742 10.5274 9.63867C11.4828 11.9233 11.0043 13.8601 9.09181 15.4492C7.77563 15.7739 7.25155 15.2499 7.51954 13.877C8.14786 13.2353 8.58081 12.4834 8.81837 11.6211C8.73127 11.3142 8.61734 11.0179 8.47657 10.7324C7.70183 10.14 7.01824 9.45638 6.42579 8.68164C5.64974 6.40709 6.35612 4.81204 8.54493 3.89648Z" fill="#A8B2B5"/>
<path opacity="0.914" fill-rule="evenodd" clip-rule="evenodd" d="M26.7277 3.89648C27.7168 4.00218 28.0586 4.54906 27.7531 5.53711C27.3884 5.9017 27.0239 6.26627 26.6593 6.63086C26.5681 6.9043 26.5681 7.17773 26.6593 7.45117C27.3958 8.07244 28.0794 8.75603 28.7101 9.50195C29.7278 11.749 29.295 13.6858 27.4113 15.3125C25.9173 15.6401 25.4388 15.0704 25.9757 13.6035C27.0073 12.8361 27.2807 11.8791 26.796 10.7324C26.0212 10.14 25.3377 9.45638 24.7453 8.68164C23.9737 6.48811 24.6346 4.89305 26.7277 3.89648Z" fill="#A8B2B5"/>
<path opacity="0.978" fill-rule="evenodd" clip-rule="evenodd" d="M43.6797 11.0056C45.8221 10.9828 47.9641 11.0056 50.1055 11.074C51.0087 11.3846 51.5784 11.9998 51.8145 12.9197C51.9057 15.4261 51.9057 17.9327 51.8145 20.4392C51.6182 21.3101 51.0941 21.8798 50.2422 22.1482C48.0092 22.2394 45.776 22.2394 43.543 22.1482C42.7455 21.8976 42.2213 21.3734 41.9707 20.5759C41.8795 17.9327 41.8795 15.2894 41.9707 12.6462C42.2726 11.8037 42.8423 11.2568 43.6797 11.0056Z" fill="#A8B2B5"/>
<path opacity="0.978" fill-rule="evenodd" clip-rule="evenodd" d="M54.8907 11.0056C57.033 10.9828 59.175 11.0056 61.3164 11.074C62.1596 11.3702 62.7292 11.9398 63.0254 12.783C63.1166 15.3351 63.1166 17.8871 63.0254 20.4392C62.8864 21.1518 62.4989 21.6758 61.8633 22.0115C59.5026 22.2335 57.1328 22.2792 54.7539 22.1482C53.9008 21.8873 53.3768 21.3176 53.1817 20.4392C53.0905 17.8871 53.0905 15.3351 53.1817 12.783C53.5034 11.9374 54.0731 11.3449 54.8907 11.0056Z" fill="#A8B2B5"/>
<path opacity="0.965" fill-rule="evenodd" clip-rule="evenodd" d="M43.9532 24.5408C45.9133 24.518 47.873 24.5408 49.8321 24.6092C50.8875 24.7986 51.5483 25.4139 51.8145 26.4549C51.9057 28.9613 51.9057 31.4679 51.8145 33.9744C51.5483 35.0154 50.8875 35.6306 49.8321 35.8201C47.8725 35.9113 45.9127 35.9113 43.9532 35.8201C42.7704 35.5287 42.1096 34.7768 41.9707 33.5642C41.8795 31.3312 41.8795 29.098 41.9707 26.865C42.0775 25.5975 42.7383 24.8227 43.9532 24.5408Z" fill="#A8B2B5"/>
<path opacity="0.971" fill-rule="evenodd" clip-rule="evenodd" d="M55.0285 24.5408C57.0798 24.518 59.1306 24.5408 61.1808 24.6092C61.9483 24.7844 62.518 25.2174 62.8898 25.908C63.1127 28.6335 63.1583 31.3678 63.0266 34.1111C62.705 35.0705 62.0442 35.6402 61.0441 35.8201C59.0845 35.9113 57.1248 35.9113 55.1652 35.8201C54.323 35.7067 53.7078 35.2738 53.3195 34.5213C53.0967 31.7958 53.051 29.0614 53.1828 26.3181C53.5133 25.4178 54.1285 24.8254 55.0285 24.5408Z" fill="#A8B2B5"/>
<path opacity="0.978" fill-rule="evenodd" clip-rule="evenodd" d="M43.543 38.0759C45.7766 38.0531 48.0096 38.0759 50.2422 38.1443C51.0941 38.4127 51.6182 38.9824 51.8145 39.8533C51.9057 42.3598 51.9057 44.8664 51.8145 47.3728C51.5784 48.2927 51.0087 48.9079 50.1055 49.2185C47.918 49.3097 45.7305 49.3097 43.543 49.2185C42.7418 48.9644 42.2178 48.4402 41.9707 47.6463C41.8795 45.0031 41.8795 42.3598 41.9707 39.7166C42.2468 38.9168 42.7708 38.3699 43.543 38.0759Z" fill="#A8B2B5"/>
<path opacity="0.978" fill-rule="evenodd" clip-rule="evenodd" d="M54.7539 38.0759C56.9875 38.0531 59.2205 38.0759 61.4532 38.1443C62.3051 38.4127 62.8291 38.9824 63.0254 39.8533C63.1166 42.4054 63.1166 44.9574 63.0254 47.5095C62.8291 48.3804 62.3051 48.9501 61.4532 49.2185C59.2201 49.3097 56.987 49.3097 54.7539 49.2185C53.902 48.9501 53.378 48.3804 53.1817 47.5095C53.0905 44.9574 53.0905 42.4054 53.1817 39.8533C53.2919 39.4505 53.4741 39.086 53.7285 38.7595C54.0675 38.5115 54.4093 38.2836 54.7539 38.0759Z" fill="#A8B2B5"/>
<path opacity="0.979" fill-rule="evenodd" clip-rule="evenodd" d="M9.5 44.365C11.8702 44.3422 14.24 44.365 16.6094 44.4334C16.8212 44.5993 16.9806 44.8044 17.0879 45.0486C17.1791 50.4718 17.1791 55.8949 17.0879 61.3181C16.974 61.6144 16.7689 61.8195 16.4727 61.9334C14.194 62.0246 11.9154 62.0246 9.63672 61.9334C9.32026 61.7817 9.11518 61.531 9.02149 61.1814C8.93034 55.8039 8.93034 50.4262 9.02149 45.0486C9.15784 44.7994 9.31733 44.5715 9.5 44.365Z" fill="#0F819F"/>
<path opacity="0.98" fill-rule="evenodd" clip-rule="evenodd" d="M19.3438 44.365C21.6684 44.3422 23.9926 44.365 26.3164 44.4334C26.5215 44.5473 26.6811 44.7068 26.795 44.9119C27.0204 50.2814 27.0659 55.6589 26.9317 61.0447C26.8762 61.454 26.6711 61.7503 26.3164 61.9334C23.9922 62.0246 21.668 62.0246 19.3438 61.9334C19.1842 61.7738 19.0248 61.6144 18.8653 61.4549C18.7741 55.9406 18.7741 50.4262 18.8653 44.9119C18.9596 44.659 19.119 44.4766 19.3438 44.365Z" fill="#0F819F"/>
<path opacity="0.979" fill-rule="evenodd" clip-rule="evenodd" d="M29.0508 44.365C31.3754 44.3422 33.6997 44.365 36.0235 44.4334C36.3197 44.5473 36.5248 44.7523 36.6387 45.0486C36.7299 50.4718 36.7299 55.8949 36.6387 61.3181C36.5248 61.6144 36.3197 61.8195 36.0235 61.9334C33.6993 62.0246 31.375 62.0246 29.0508 61.9334C28.839 61.7674 28.6796 61.5623 28.5723 61.3181C28.4811 55.8494 28.4811 50.3806 28.5723 44.9119C28.6666 44.659 28.826 44.4766 29.0508 44.365Z" fill="#0F819F"/>
</svg>
