<svg width="70" height="70" viewBox="0 0 70 70" fill="none" xmlns="http://www.w3.org/2000/svg">
<path opacity="0.977" fill-rule="evenodd" clip-rule="evenodd" d="M34.1112 4.30645C34.8775 4.22553 35.6068 4.33947 36.2987 4.64825C45.5226 14.647 54.7968 24.6048 64.121 34.5213C64.629 35.0747 65.0849 35.6673 65.4882 36.2986C65.6751 38.9365 64.513 39.8252 62.0018 38.9647C61.0719 37.8978 60.092 36.8725 59.0624 35.8885C59.0169 45.3221 58.9712 54.7557 58.9257 64.1893C58.3141 65.4173 57.3343 65.8503 55.9862 65.4881C55.371 65.2375 54.938 64.8045 54.6874 64.1893C54.6419 53.115 54.5962 42.0408 54.5507 30.9666C48.0415 23.9167 41.5017 16.8984 34.9315 9.91192C28.3614 16.8984 21.8216 23.9167 15.3124 30.9666C15.2669 42.0408 15.2212 53.115 15.1757 64.1893C14.7919 65.1445 14.0856 65.6002 13.0565 65.5565C12.0275 65.6002 11.3211 65.1445 10.9374 64.1893C10.8918 54.7557 10.8462 45.3221 10.8007 35.8885C9.77099 36.8725 8.79117 37.8978 7.86122 38.9647C5.35008 39.8252 4.18797 38.9365 4.37489 36.2986C4.77827 35.6673 5.23401 35.0747 5.74208 34.5213C14.679 24.9921 23.5657 15.4218 32.4022 5.81036C32.9173 5.22568 33.487 4.72439 34.1112 4.30645Z" fill="#0F819F"/>
<path opacity="0.967" fill-rule="evenodd" clip-rule="evenodd" d="M24.1326 30.1466C27.5041 29.9106 30.4207 30.936 32.8826 33.2227C33.5434 33.9747 34.2043 34.7266 34.865 35.4786C36.8583 32.7845 39.4788 31.03 42.7264 30.2149C45.3398 29.719 47.5499 30.4255 49.3572 32.3341C50.8133 34.6695 51.0412 37.1304 50.0408 39.7169C48.24 43.7506 45.255 46.5077 41.0857 47.9884C39.7924 48.3799 38.4709 48.5395 37.1209 48.4669C37.0755 49.8371 37.121 51.2043 37.2576 52.5684C41.9305 53.8476 44.7789 56.8554 45.8025 61.5919C45.8937 62.4577 45.8937 63.3237 45.8025 64.1895C45.191 65.4175 44.2111 65.8505 42.8631 65.4884C42.2479 65.2377 41.8149 64.8048 41.5643 64.1895C41.4878 60.5453 39.7333 58.1527 36.3006 57.0118C32.5874 56.6003 30.0581 58.127 28.7127 61.5919C28.5562 62.4537 28.4194 63.3197 28.3025 64.1895C27.691 65.4175 26.7111 65.8505 25.3631 65.4884C24.7479 65.2377 24.3149 64.8048 24.0643 64.1895C23.8783 59.0689 26.0887 55.4001 30.6951 53.1837C31.3296 52.9645 31.9677 52.7594 32.6092 52.5684C32.7458 51.2043 32.7913 49.8371 32.7459 48.4669C30.1436 48.5806 27.7282 47.9199 25.4998 46.4844C23.1247 45.021 21.3246 43.0386 20.0994 40.5372C19.0992 38.3063 18.9625 36.0278 19.6893 33.7012C20.5912 31.7721 22.0723 30.5873 24.1326 30.1466ZM44.0936 34.5216C40.8537 35.3892 38.575 37.3944 37.2576 40.5372C37.5308 41.673 37.6218 42.8123 37.5311 43.9551C39.7151 43.7971 41.6292 42.9996 43.2732 41.5626C45.0714 40.0856 46.0056 38.1944 46.076 35.8887C45.7885 34.9119 45.1277 34.4562 44.0936 34.5216ZM24.6795 34.6583C23.7605 35.3319 23.4643 36.2434 23.7908 37.3926C24.4043 39.233 25.4753 40.7596 27.0037 41.9727C28.5223 43.1854 30.2541 43.8462 32.199 43.9551C32.1769 42.8293 32.2681 41.7128 32.4725 40.6055C31.7178 38.5731 30.4418 36.9325 28.6443 35.6837C27.4396 34.8793 26.1179 34.5376 24.6795 34.6583Z" fill="#A8B2B5"/>
</svg>
