<svg width="404" height="404" viewBox="0 0 404 404" fill="none" xmlns="http://www.w3.org/2000/svg">
<path opacity="0.987" fill-rule="evenodd" clip-rule="evenodd" d="M177.934 21.6988C181.695 21.4548 185.378 21.8494 188.98 22.8824C216.506 34.9357 244.123 46.7716 271.832 58.3902C274.81 59.4175 277.309 61.1272 279.328 63.5191C280.624 79.2294 280.887 95.0106 280.117 110.863C276.577 116.425 271.711 117.872 265.52 115.203C264.038 113.985 262.854 112.539 261.969 110.863C261.574 99.0301 261.442 87.1942 261.574 75.3551C238.527 66.0916 215.644 56.3599 192.926 46.1598C192.137 151.63 191.874 257.101 192.137 362.574C198.449 362.574 204.762 362.574 211.074 362.574C210.942 290.768 211.074 218.964 211.469 147.16C213.134 143.653 215.896 141.681 219.754 141.242C250.475 135.245 281.249 129.59 312.074 124.277C312.074 210.022 312.074 295.766 312.074 381.511C217.123 381.643 122.173 381.511 27.2227 381.117C24.987 379.933 23.2774 378.223 22.0938 375.988C21.5677 270.254 21.5677 164.519 22.0938 58.7848C24.6056 54.4348 28.4194 52.1992 33.5352 52.0777C81.8455 42.2852 129.978 32.1589 177.934 21.6988ZM172.41 43.0035C173.199 149.394 173.462 255.918 173.199 362.574C129.012 362.574 84.8242 362.574 40.6367 362.574C40.6367 265.256 40.6367 167.938 40.6367 70.6207C84.7587 61.9023 128.683 52.6966 172.41 43.0035ZM280.512 167.675C287.332 166.74 291.409 169.633 292.742 176.355C293.269 182.668 293.269 188.98 292.742 195.293C290.99 203.073 286.387 205.572 278.934 202.789C276.366 200.941 274.919 198.442 274.594 195.293C274.067 188.98 274.067 182.668 274.594 176.355C275.197 172.474 277.169 169.582 280.512 167.675ZM244.215 173.988C249.445 172.987 253.258 174.827 255.656 179.511C256.183 187.928 256.183 196.344 255.656 204.761C251.413 211.128 246.284 211.917 240.27 207.128C239.25 205.419 238.593 203.578 238.297 201.605C237.619 193.936 237.882 186.309 239.086 178.722C240.265 176.502 241.974 174.924 244.215 173.988ZM280.512 227.644C287.332 226.708 291.409 229.602 292.742 236.324C293.269 242.636 293.269 248.949 292.742 255.261C290.99 263.041 286.387 265.54 278.934 262.757C276.366 260.909 274.919 258.41 274.594 255.261C274.067 248.949 274.067 242.636 274.594 236.324C275.197 232.443 277.169 229.551 280.512 227.644ZM244.215 230.8C249.445 229.799 253.258 231.64 255.656 236.324C256.183 244.741 256.183 253.157 255.656 261.574C251.413 267.941 246.284 268.73 240.27 263.941C239.25 262.231 238.593 260.39 238.297 258.418C237.619 250.749 237.882 243.122 239.086 235.535C240.265 233.314 241.974 231.736 244.215 230.8ZM244.215 287.613C249.445 286.612 253.258 288.452 255.656 293.136C256.183 301.553 256.183 309.969 255.656 318.386C251.413 324.753 246.284 325.542 240.27 320.754C239.25 319.044 238.593 317.203 238.297 315.23C237.619 307.561 237.882 299.934 239.086 292.347C240.265 290.127 241.974 288.549 244.215 287.613ZM280.512 287.613C287.332 286.677 291.409 289.571 292.742 296.293C293.269 302.605 293.269 308.918 292.742 315.23C290.99 323.01 286.387 325.509 278.934 322.726C276.366 320.878 274.919 318.379 274.594 315.23C274.067 308.918 274.067 302.605 274.594 296.293C275.197 292.412 277.169 289.519 280.512 287.613Z" fill="#FEFFFF"/>
<path opacity="0.968" fill-rule="evenodd" clip-rule="evenodd" d="M140.848 78.5117C146.649 77.1376 150.989 78.9789 153.867 84.0352C154.394 92.9776 154.394 101.921 153.867 110.863C150.983 116.047 146.644 117.757 140.848 115.992C138.612 114.809 136.903 113.099 135.719 110.863C135.193 101.921 135.193 92.9776 135.719 84.0352C137.056 81.78 138.766 79.9392 140.848 78.5117Z" fill="#FEFFFF"/>
<path opacity="0.968" fill-rule="evenodd" clip-rule="evenodd" d="M99.8166 84.8241C105.618 83.4503 109.958 85.2912 112.836 90.3475C113.362 99.29 113.362 108.233 112.836 117.176C109.952 122.36 105.612 124.07 99.8166 122.305C97.5812 121.121 95.8713 119.411 94.6877 117.176C94.1614 108.233 94.1614 99.29 94.6877 90.3475C96.0244 88.0924 97.7343 86.2515 99.8166 84.8241Z" fill="#FEFFFF"/>
<path opacity="0.968" fill-rule="evenodd" clip-rule="evenodd" d="M58.7852 91.1366C64.5863 89.7628 68.9261 91.6037 71.8047 96.66C72.3308 105.602 72.3308 114.546 71.8047 123.488C68.9206 128.672 64.5808 130.382 58.7852 128.617C56.5495 127.433 54.8399 125.724 53.6563 123.488C53.1302 114.546 53.1302 105.602 53.6563 96.66C54.993 94.4049 56.7026 92.564 58.7852 91.1366Z" fill="#FEFFFF"/>
<path opacity="0.998" fill-rule="evenodd" clip-rule="evenodd" d="M331.012 125.855C346.509 133.604 362.027 141.363 377.566 149.133C379.048 150.35 380.232 151.797 381.117 153.473C381.643 227.645 381.643 301.816 381.117 375.988C379.934 378.224 378.224 379.934 375.988 381.117C360.998 381.512 346.006 381.643 331.012 381.512C331.012 296.293 331.012 211.074 331.012 125.855Z" fill="#FEFFFF"/>
<path opacity="0.959" fill-rule="evenodd" clip-rule="evenodd" d="M142.426 143.215C147.435 142.729 151.249 144.57 153.867 148.738C154.394 157.944 154.394 167.149 153.867 176.355C149.868 182.169 144.74 183.353 138.481 179.906C137.258 178.948 136.338 177.765 135.719 176.355C135.193 167.149 135.193 157.944 135.719 148.738C137.468 146.231 139.704 144.39 142.426 143.215Z" fill="#FEFFFF"/>
<path opacity="0.968" fill-rule="evenodd" clip-rule="evenodd" d="M99.8166 147.949C105.618 146.575 109.958 148.416 112.836 153.473C113.362 162.415 113.362 171.358 112.836 180.301C109.952 185.485 105.612 187.195 99.8166 185.43C97.5812 184.246 95.8713 182.536 94.6877 180.301C94.1614 171.358 94.1614 162.415 94.6877 153.473C96.0244 151.217 97.7343 149.376 99.8166 147.949Z" fill="#FEFFFF"/>
<path opacity="0.959" fill-rule="evenodd" clip-rule="evenodd" d="M59.5742 151.895C64.9126 151.081 68.9893 152.922 71.8047 157.418C72.3308 166.624 72.3308 175.83 71.8047 185.036C65.7552 192.4 59.7058 192.4 53.6563 185.036C53.1302 175.83 53.1302 166.624 53.6563 157.418C55.0311 154.857 57.0038 153.016 59.5742 151.895Z" fill="#FEFFFF"/>
<path opacity="0.959" fill-rule="evenodd" clip-rule="evenodd" d="M141.637 208.708C146.975 207.894 151.052 209.735 153.867 214.231C154.394 223.437 154.394 232.642 153.867 241.848C147.818 249.212 141.769 249.212 135.719 241.848C135.193 232.642 135.193 223.437 135.719 214.231C137.093 211.67 139.066 209.829 141.637 208.708Z" fill="#FEFFFF"/>
<path opacity="0.968" fill-rule="evenodd" clip-rule="evenodd" d="M99.8166 211.074C105.618 209.7 109.958 211.541 112.836 216.598C113.362 225.54 113.362 234.483 112.836 243.426C109.952 248.61 105.612 250.32 99.8166 248.555C97.5812 247.371 95.8713 245.661 94.6877 243.426C94.1614 234.483 94.1614 225.54 94.6877 216.598C96.0244 214.342 97.7343 212.501 99.8166 211.074Z" fill="#FEFFFF"/>
<path opacity="0.959" fill-rule="evenodd" clip-rule="evenodd" d="M60.3633 212.652C65.3724 212.166 69.1862 214.008 71.8047 218.176C72.3308 227.382 72.3308 236.587 71.8047 245.793C67.8059 251.607 62.677 252.79 56.418 249.344C55.1959 248.386 54.2753 247.202 53.6563 245.793C53.1302 236.587 53.1302 227.382 53.6563 218.176C55.4056 215.669 57.6413 213.827 60.3633 212.652Z" fill="#FEFFFF"/>
<path opacity="0.968" fill-rule="evenodd" clip-rule="evenodd" d="M58.7852 274.199C64.5863 272.825 68.9261 274.666 71.8047 279.723C72.3308 288.665 72.3308 297.608 71.8047 306.551C68.9206 311.735 64.5808 313.445 58.7852 311.68C56.5495 310.496 54.8399 308.786 53.6563 306.551C53.1302 297.608 53.1302 288.665 53.6563 279.723C54.993 277.467 56.7026 275.626 58.7852 274.199Z" fill="#FEFFFF"/>
<path opacity="0.968" fill-rule="evenodd" clip-rule="evenodd" d="M99.8166 274.199C105.618 272.825 109.958 274.666 112.836 279.723C113.362 288.665 113.362 297.608 112.836 306.551C109.952 311.735 105.612 313.445 99.8166 311.68C97.5812 310.496 95.8713 308.786 94.6877 306.551C94.1614 297.608 94.1614 288.665 94.6877 279.723C96.0244 277.467 97.7343 275.626 99.8166 274.199Z" fill="#FEFFFF"/>
<path opacity="0.968" fill-rule="evenodd" clip-rule="evenodd" d="M140.848 274.199C146.649 272.825 150.989 274.666 153.867 279.723C154.394 288.665 154.394 297.608 153.867 306.551C150.983 311.735 146.644 313.445 140.848 311.68C138.612 310.496 136.903 308.786 135.719 306.551C135.193 297.608 135.193 288.665 135.719 279.723C137.056 277.467 138.766 275.626 140.848 274.199Z" fill="#FEFFFF"/>
</svg>
