<svg width="70" height="70" viewBox="0 0 70 70" fill="none" xmlns="http://www.w3.org/2000/svg">
<g clip-path="url(#clip0_1744_4581)">
<path opacity="0.99" fill-rule="evenodd" clip-rule="evenodd" d="M19.3438 -0.0683594C21.6224 -0.0683594 23.901 -0.0683594 26.1797 -0.0683594C30.9281 0.298962 35.3943 1.64336 39.5781 3.96484C41.4633 5.16645 43.0356 6.69313 44.2949 8.54492C45.8115 11.574 45.6292 14.4907 43.7481 17.2949C42.3233 19.039 40.6143 20.4291 38.6211 21.4648C35.1206 23.1718 31.4291 24.22 27.5469 24.6094C20.4262 25.4671 13.5902 24.4646 7.03906 21.6016C4.25786 20.2781 2.09315 18.2957 0.544922 15.6543C0.293904 15.0601 0.0888249 14.4677 -0.0703125 13.877C-0.0703125 12.9655 -0.0703125 12.054 -0.0703125 11.1426C0.609077 8.62762 2.02184 6.59962 4.16797 5.05859C7.52271 2.76721 11.2141 1.26331 15.2422 0.546875C16.6259 0.317442 17.9931 0.112363 19.3438 -0.0683594Z" fill="#0F819F"/>
<path opacity="0.973" fill-rule="evenodd" clip-rule="evenodd" d="M-0.0703125 21.3965C3.16571 24.2684 6.90269 26.2508 11.1406 27.3438C16.9126 28.7902 22.7459 29.2004 28.6406 28.5742C26.2189 31.0207 24.3049 33.8234 22.8984 36.9824C16.849 37.3043 11.1525 36.051 5.80859 33.2227C3.54681 31.9681 1.79226 30.2136 0.544922 27.959C0.293904 27.3648 0.0888248 26.7724 -0.0703125 26.1816C-0.0703125 24.5865 -0.0703125 22.9916 -0.0703125 21.3965Z" fill="#0F819F"/>
<path opacity="0.988" fill-rule="evenodd" clip-rule="evenodd" d="M69.9304 44.9121C69.9304 46.5527 69.9304 48.1933 69.9304 49.834C68.638 58.3948 64.0806 64.5243 56.2585 68.2226C54.1699 69.0644 52.0279 69.634 49.8328 69.9316C48.1921 69.9316 46.5515 69.9316 44.9109 69.9316C36.0176 68.6184 29.7969 63.8333 26.2488 55.5762C23.2437 46.7292 24.7931 38.7995 30.8972 31.7871C37.984 24.9916 46.2099 23.1459 55.575 26.25C63.8324 29.7992 68.6175 36.0199 69.9304 44.9121ZM45.321 33.0176C46.6882 33.0176 48.0554 33.0176 49.4226 33.0176C49.4226 34.567 49.4226 36.1166 49.4226 37.666C51.1308 38.2572 52.3384 39.3965 53.0457 41.084C53.3139 41.7889 53.4278 42.518 53.3875 43.2715C52.0658 43.2715 50.7443 43.2715 49.4226 43.2715C49.4234 41.9051 48.7398 41.2215 47.3718 41.2207C46.0046 41.2207 45.321 41.9043 45.321 43.2715C45.2628 44.0895 45.5819 44.7047 46.2781 45.1172C47.2225 45.3489 48.1796 45.5313 49.1492 45.6641C52.3452 46.9279 53.7353 49.2748 53.3191 52.7051C52.8068 54.8799 51.508 56.3382 49.4226 57.0801C49.4226 58.6295 49.4226 60.1791 49.4226 61.7285C48.0554 61.7285 46.6882 61.7285 45.321 61.7285C45.321 60.1791 45.321 58.6295 45.321 57.0801C43.4554 56.4219 42.2021 55.1459 41.5613 53.2519C41.3979 52.6707 41.3295 52.0782 41.3562 51.4746C42.6779 51.4746 43.9994 51.4746 45.321 51.4746C45.3202 52.841 46.0038 53.5246 47.3718 53.5254C48.739 53.5254 49.4226 52.8418 49.4226 51.4746C49.4809 50.6566 49.1618 50.0414 48.4656 49.6289C47.5211 49.3972 46.5641 49.2148 45.5945 49.082C42.3984 47.8182 41.0084 45.4713 41.4246 42.041C41.9368 39.8662 43.2357 38.4078 45.321 37.666C45.321 36.1166 45.321 34.567 45.321 33.0176Z" fill="#A8B2B5"/>
<path opacity="0.972" fill-rule="evenodd" clip-rule="evenodd" d="M-0.0703125 33.7012C3.19631 36.6111 6.97885 38.5935 11.2773 39.6484C14.6393 40.529 18.0572 41.0076 21.5312 41.084C20.9209 43.8292 20.693 46.6091 20.8477 49.4238C15.755 49.2445 10.9243 48.0367 6.35547 45.8008C3.98336 44.5681 2.09207 42.8136 0.681641 40.5371C0.366138 39.8608 0.115486 39.1772 -0.0703125 38.4863C-0.0703125 36.8912 -0.0703125 35.2963 -0.0703125 33.7012Z" fill="#0F819F"/>
<path opacity="0.974" fill-rule="evenodd" clip-rule="evenodd" d="M-0.0703125 46.0059C3.19631 48.9158 6.97885 50.8982 11.2773 51.9531C14.6394 52.8339 18.0574 53.3124 21.5312 53.3887C22.2184 56.3123 23.3577 59.0466 24.9492 61.5918C18.1896 62.204 11.8094 60.9507 5.80859 57.832C3.54681 56.5775 1.79226 54.823 0.544922 52.5684C0.293904 51.9742 0.0888248 51.3818 -0.0703125 50.791C-0.0703125 49.1959 -0.0703125 47.601 -0.0703125 46.0059Z" fill="#0F819F"/>
</g>
<defs>
<clipPath id="clip0_1744_4581">
<rect width="70" height="70" fill="white"/>
</clipPath>
</defs>
</svg>