<svg width="29" height="33" viewBox="0 0 29 33" fill="none" xmlns="http://www.w3.org/2000/svg">
<g clip-path="url(#clip0_1840_584)">
<path d="M17.9252 28.8482C17.4256 29.9811 17.0953 31.2105 16.9688 32.4998L27.5424 30.2014C28.0421 29.0688 28.3721 27.8391 28.4989 26.5498L17.9252 28.8482Z" fill="#808282"/>
<path d="M27.5435 23.3158C28.0432 22.1832 28.3735 20.9535 28.5 19.6642L20.2634 21.4555V18.012L27.5433 16.4301C28.0429 15.2974 28.3732 14.0678 28.4998 12.7785L20.2632 14.5682V2.18432C19.0011 2.90893 17.8803 3.87347 16.9691 5.01121V15.2845L13.675 16.0004V0.5C12.413 1.22436 11.2921 2.18916 10.381 3.32689V16.7161L3.01047 18.3177C2.51082 19.4503 2.18029 20.68 2.05351 21.9693L10.381 20.1596V24.4961L1.45646 26.4354C0.956811 27.568 0.626532 28.7977 0.5 30.087L9.84147 28.057C10.6019 27.8953 11.2555 27.4356 11.6804 26.8029L13.3936 24.2058V24.2052C13.5714 23.9365 13.675 23.6126 13.675 23.2636V19.4437L16.9691 18.7277V25.6147L27.5433 23.3153L27.5435 23.3158Z" fill="#808282"/>
</g>
<defs>
<clipPath id="clip0_1840_584">
<rect width="28" height="32" fill="white" transform="translate(0.5 0.5)"/>
</clipPath>
</defs>
</svg>
